<?xml version="1.0" encoding="UTF-8" standalone="no"?>
<!DOCTYPE svg PUBLIC "-//W3C//DTD SVG 1.1//EN"
 "http://www.w3.org/Graphics/SVG/1.1/DTD/svg11.dtd">
<!-- Generated by graphviz version 2.38.0 (20140413.2041)
 -->
<!-- Title: NedapDiabetes Pages: 1 -->
<svg width="734pt" height="569pt"
 viewBox="0.00 0.00 733.60 568.60" xmlns="http://www.w3.org/2000/svg" xmlns:xlink="http://www.w3.org/1999/xlink">
<g id="graph0" class="graph" transform="scale(1 1) rotate(0) translate(28.8 539.8)">
<title>NedapDiabetes</title>
<polygon fill="white" stroke="none" points="-28.8,28.8 -28.8,-539.8 704.8,-539.8 704.8,28.8 -28.8,28.8"/>
<text text-anchor="middle" x="338" y="-496.6" font-family="Arial BoldMT" font-size="13.00">NedapDiabetes domain model</text>
<!-- m_Answer -->
<g id="node1" class="node"><title>m_Answer</title>
<path fill="none" stroke="black" d="M198,-0.5C198,-0.5 318,-0.5 318,-0.5 324,-0.5 330,-6.5 330,-12.5 330,-12.5 330,-43.5 330,-43.5 330,-49.5 324,-55.5 318,-55.5 318,-55.5 198,-55.5 198,-55.5 192,-55.5 186,-49.5 186,-43.5 186,-43.5 186,-12.5 186,-12.5 186,-6.5 192,-0.5 198,-0.5"/>
<text text-anchor="start" x="237.66" y="-42.2" font-family="Arial BoldMT" font-size="11.00">Answer</text>
<polyline fill="none" stroke="black" points="186,-36.5 330,-36.5 "/>
<text text-anchor="start" x="193" y="-23.5" font-family="ArialMT" font-size="10.00">content </text>
<text text-anchor="start" x="228.581" y="-23.5" font-family="Arial ItalicMT" font-size="10.00" fill="#999999">string ∗</text>
<text text-anchor="start" x="193" y="-10.5" font-family="ArialMT" font-size="10.00">correct </text>
<text text-anchor="start" x="226.34" y="-10.5" font-family="Arial ItalicMT" font-size="10.00" fill="#999999">boolean ∗</text>
</g>
<!-- m_Article -->
<g id="node2" class="node"><title>m_Article</title>
<path fill="none" stroke="black" d="M185,-171.5C185,-171.5 331,-171.5 331,-171.5 337,-171.5 343,-177.5 343,-183.5 343,-183.5 343,-305.5 343,-305.5 343,-311.5 337,-317.5 331,-317.5 331,-317.5 185,-317.5 185,-317.5 179,-317.5 173,-311.5 173,-305.5 173,-305.5 173,-183.5 173,-183.5 173,-177.5 179,-171.5 185,-171.5"/>
<text text-anchor="start" x="240.719" y="-304.2" font-family="Arial BoldMT" font-size="11.00">Article</text>
<polyline fill="none" stroke="black" points="173,-298.5 343,-298.5 "/>
<text text-anchor="start" x="180" y="-285" font-family="ArialMT" font-size="10.00">article_image_content_type </text>
<text text-anchor="start" x="305.078" y="-285" font-family="Arial ItalicMT" font-size="10.00" fill="#999999">string</text>
<text text-anchor="start" x="180" y="-272" font-family="ArialMT" font-size="10.00">article_image_file_name </text>
<text text-anchor="start" x="291.172" y="-272" font-family="Arial ItalicMT" font-size="10.00" fill="#999999">string</text>
<text text-anchor="start" x="180" y="-259" font-family="ArialMT" font-size="10.00">article_image_file_size </text>
<text text-anchor="start" x="283.94" y="-259" font-family="Arial ItalicMT" font-size="10.00" fill="#999999">integer</text>
<text text-anchor="start" x="179.892" y="-246" font-family="ArialMT" font-size="10.00">article_image_updated_at </text>
<text text-anchor="start" x="297.753" y="-246" font-family="Arial ItalicMT" font-size="10.00" fill="#999999">datetime</text>
<text text-anchor="start" x="180" y="-233" font-family="ArialMT" font-size="10.00">author </text>
<text text-anchor="start" x="211.133" y="-233" font-family="Arial ItalicMT" font-size="10.00" fill="#999999">string ∗</text>
<text text-anchor="start" x="180" y="-220" font-family="ArialMT" font-size="10.00">content </text>
<text text-anchor="start" x="215.581" y="-220" font-family="Arial ItalicMT" font-size="10.00" fill="#999999">string ∗</text>
<text text-anchor="start" x="180" y="-207" font-family="ArialMT" font-size="10.00">explanation </text>
<text text-anchor="start" x="233.931" y="-207" font-family="Arial ItalicMT" font-size="10.00" fill="#999999">string ∗</text>
<text text-anchor="start" x="180" y="-194" font-family="ArialMT" font-size="10.00">source </text>
<text text-anchor="start" x="212.793" y="-194" font-family="Arial ItalicMT" font-size="10.00" fill="#999999">string ∗</text>
<text text-anchor="start" x="180" y="-181" font-family="ArialMT" font-size="10.00">title </text>
<text text-anchor="start" x="198.34" y="-181" font-family="Arial ItalicMT" font-size="10.00" fill="#999999">string ∗</text>
</g>
<!-- m_Question -->
<g id="node5" class="node"><title>m_Question</title>
<path fill="none" stroke="black" d="M198,-92.5C198,-92.5 318,-92.5 318,-92.5 324,-92.5 330,-98.5 330,-104.5 330,-104.5 330,-122.5 330,-122.5 330,-128.5 324,-134.5 318,-134.5 318,-134.5 198,-134.5 198,-134.5 192,-134.5 186,-128.5 186,-122.5 186,-122.5 186,-104.5 186,-104.5 186,-98.5 192,-92.5 198,-92.5"/>
<text text-anchor="start" x="233.987" y="-121.2" font-family="Arial BoldMT" font-size="11.00">Question</text>
<polyline fill="none" stroke="black" points="186,-115.5 330,-115.5 "/>
<text text-anchor="start" x="193" y="-102" font-family="ArialMT" font-size="10.00">content </text>
<text text-anchor="start" x="228.581" y="-102" font-family="Arial ItalicMT" font-size="10.00" fill="#999999">string ∗</text>
</g>
<!-- m_Article&#45;&gt;m_Question -->
<g id="edge2" class="edge"><title>m_Article&#45;&gt;m_Question</title>
<path fill="none" stroke="black" d="M258,-166.418C258,-159.114 258,-152.035 258,-145.573"/>
<ellipse fill="none" stroke="black" cx="258" cy="-169.057" rx="2.4" ry="2.4"/>
<ellipse fill="black" stroke="black" cx="258" cy="-137.096" rx="2.4" ry="2.4"/>
<polygon fill="black" stroke="black" points="260.1,-145.496 258,-139.496 255.9,-145.496 260.1,-145.496"/>
</g>
<!-- m_Tag -->
<g id="node7" class="node"><title>m_Tag</title>
<path fill="none" stroke="black" d="M12,-223.5C12,-223.5 132,-223.5 132,-223.5 138,-223.5 144,-229.5 144,-235.5 144,-235.5 144,-253.5 144,-253.5 144,-259.5 138,-265.5 132,-265.5 132,-265.5 12,-265.5 12,-265.5 6,-265.5 0,-259.5 0,-253.5 0,-253.5 0,-235.5 0,-235.5 0,-229.5 6,-223.5 12,-223.5"/>
<text text-anchor="start" x="61.1323" y="-252.2" font-family="Arial BoldMT" font-size="11.00">Tag</text>
<polyline fill="none" stroke="black" points="0,-246.5 144,-246.5 "/>
<text text-anchor="start" x="7" y="-233" font-family="ArialMT" font-size="10.00">name </text>
<text text-anchor="start" x="34.793" y="-233" font-family="Arial ItalicMT" font-size="10.00" fill="#999999">string ∗</text>
</g>
<!-- m_Article&#45;&gt;m_Tag -->
<g id="edge4" class="edge"><title>m_Article&#45;&gt;m_Tag</title>
<path fill="none" stroke="black" stroke-dasharray="1,5" d="M167.848,-244.5C163.698,-244.5 159.547,-244.5 155.397,-244.5"/>
<ellipse fill="none" stroke="black" cx="170.32" cy="-244.5" rx="2.4" ry="2.4"/>
<ellipse fill="none" stroke="black" cx="146.693" cy="-244.5" rx="2.4" ry="2.4"/>
<polygon fill="black" stroke="black" points="155.093,-242.4 149.093,-244.5 155.093,-246.6 155.093,-242.4"/>
</g>
<!-- m_Tagging -->
<g id="node8" class="node"><title>m_Tagging</title>
<path fill="none" stroke="black" d="M19,-95.5C19,-95.5 139,-95.5 139,-95.5 145,-95.5 151,-101.5 151,-107.5 151,-107.5 151,-119.5 151,-119.5 151,-125.5 145,-131.5 139,-131.5 139,-131.5 19,-131.5 19,-131.5 13,-131.5 7,-125.5 7,-119.5 7,-119.5 7,-107.5 7,-107.5 7,-101.5 13,-95.5 19,-95.5"/>
<text text-anchor="start" x="57.7339" y="-109.7" font-family="Arial BoldMT" font-size="11.00">Tagging</text>
</g>
<!-- m_Article&#45;&gt;m_Tagging -->
<g id="edge3" class="edge"><title>m_Article&#45;&gt;m_Tagging</title>
<path fill="none" stroke="black" d="M168.676,-178.696C165.072,-176.095 161.502,-173.522 158,-171 142.847,-160.088 126.02,-148.044 111.804,-137.889"/>
<ellipse fill="none" stroke="black" cx="170.976" cy="-180.357" rx="2.40002" ry="2.40002"/>
<ellipse fill="black" stroke="black" cx="104.836" cy="-132.914" rx="2.40001" ry="2.40001"/>
<polygon fill="black" stroke="black" points="112.892,-136.086 106.789,-134.309 110.452,-139.504 112.892,-136.086"/>
</g>
<!-- m_Fact -->
<g id="node3" class="node"><title>m_Fact</title>
<path fill="none" stroke="black" d="M371,-387C371,-387 491,-387 491,-387 497,-387 503,-393 503,-399 503,-399 503,-430 503,-430 503,-436 497,-442 491,-442 491,-442 371,-442 371,-442 365,-442 359,-436 359,-430 359,-430 359,-399 359,-399 359,-393 365,-387 371,-387"/>
<text text-anchor="start" x="418.303" y="-428.7" font-family="Arial BoldMT" font-size="11.00">Fact</text>
<polyline fill="none" stroke="black" points="359,-423 503,-423 "/>
<text text-anchor="start" x="366" y="-410" font-family="ArialMT" font-size="10.00">content </text>
<text text-anchor="start" x="401.581" y="-410" font-family="Arial ItalicMT" font-size="10.00" fill="#999999">string ∗</text>
<text text-anchor="start" x="366" y="-397" font-family="ArialMT" font-size="10.00">title </text>
<text text-anchor="start" x="384.34" y="-397" font-family="Arial ItalicMT" font-size="10.00" fill="#999999">string ∗</text>
</g>
<!-- m_Favorite -->
<g id="node4" class="node"><title>m_Favorite</title>
<path fill="none" stroke="black" d="M544,-217C544,-217 664,-217 664,-217 670,-217 676,-223 676,-229 676,-229 676,-260 676,-260 676,-266 670,-272 664,-272 664,-272 544,-272 544,-272 538,-272 532,-266 532,-260 532,-260 532,-229 532,-229 532,-223 538,-217 544,-217"/>
<text text-anchor="start" x="582.132" y="-258.7" font-family="Arial BoldMT" font-size="11.00">Favorite</text>
<polyline fill="none" stroke="black" points="532,-253 676,-253 "/>
<text text-anchor="start" x="539" y="-240" font-family="ArialMT" font-size="10.00">favorited_id </text>
<text text-anchor="start" x="593.478" y="-240" font-family="Arial ItalicMT" font-size="10.00" fill="#999999">integer ∗</text>
<text text-anchor="start" x="539" y="-227" font-family="ArialMT" font-size="10.00">favorited_type </text>
<text text-anchor="start" x="604.596" y="-227" font-family="Arial ItalicMT" font-size="10.00" fill="#999999">string ∗</text>
</g>
<!-- m_Question&#45;&gt;m_Answer -->
<g id="edge1" class="edge"><title>m_Question&#45;&gt;m_Answer</title>
<path fill="none" stroke="black" d="M258,-87.2199C258,-80.749 258,-73.6495 258,-66.701"/>
<ellipse fill="none" stroke="black" cx="258" cy="-89.887" rx="2.4" ry="2.4"/>
<ellipse fill="black" stroke="black" cx="258" cy="-58.0567" rx="2.4" ry="2.4"/>
<polygon fill="black" stroke="black" points="260.1,-66.4567 258,-60.4567 255.9,-66.4567 260.1,-66.4567"/>
</g>
<!-- m_Specialist -->
<g id="node6" class="node"><title>m_Specialist</title>
<path fill="none" stroke="black" d="M198,-380.5C198,-380.5 318,-380.5 318,-380.5 324,-380.5 330,-386.5 330,-392.5 330,-392.5 330,-436.5 330,-436.5 330,-442.5 324,-448.5 318,-448.5 318,-448.5 198,-448.5 198,-448.5 192,-448.5 186,-442.5 186,-436.5 186,-436.5 186,-392.5 186,-392.5 186,-386.5 192,-380.5 198,-380.5"/>
<text text-anchor="start" x="232.461" y="-435.2" font-family="Arial BoldMT" font-size="11.00">Specialist</text>
<polyline fill="none" stroke="black" points="186,-429.5 330,-429.5 "/>
<text text-anchor="start" x="193" y="-416" font-family="ArialMT" font-size="10.00">bio </text>
<text text-anchor="start" x="209.123" y="-416" font-family="Arial ItalicMT" font-size="10.00" fill="#999999">string ∗</text>
<text text-anchor="start" x="193" y="-403" font-family="ArialMT" font-size="10.00">name </text>
<text text-anchor="start" x="220.793" y="-403" font-family="Arial ItalicMT" font-size="10.00" fill="#999999">string ∗</text>
<text text-anchor="start" x="193" y="-390" font-family="ArialMT" font-size="10.00">profession </text>
<text text-anchor="start" x="241.916" y="-390" font-family="Arial ItalicMT" font-size="10.00" fill="#999999">string</text>
</g>
<!-- m_Specialist&#45;&gt;m_Article -->
<g id="edge5" class="edge"><title>m_Specialist&#45;&gt;m_Article</title>
<path fill="none" stroke="black" d="M258,-375.126C258,-361.242 258,-344.969 258,-328.735"/>
<ellipse fill="none" stroke="black" cx="258" cy="-377.909" rx="2.4" ry="2.4"/>
<ellipse fill="black" stroke="black" cx="258" cy="-319.932" rx="2.4" ry="2.4"/>
<polygon fill="black" stroke="black" points="260.1,-328.332 258,-322.332 255.9,-328.332 260.1,-328.332"/>
</g>
<!-- m_Tag&#45;&gt;m_Tagging -->
<g id="edge7" class="edge"><title>m_Tag&#45;&gt;m_Tagging</title>
<path fill="none" stroke="black" d="M73.3611,-218.417C74.5427,-196.641 76.2519,-165.143 77.4784,-142.541"/>
<ellipse fill="none" stroke="black" cx="73.2238" cy="-220.947" rx="2.4" ry="2.4"/>
<ellipse fill="black" stroke="black" cx="77.9404" cy="-134.027" rx="2.4" ry="2.4"/>
<polygon fill="black" stroke="black" points="79.5821,-142.528 77.8103,-136.423 75.3883,-142.301 79.5821,-142.528"/>
</g>
<!-- m_User -->
<g id="node9" class="node"><title>m_User</title>
<path fill="none" stroke="black" d="M544,-354.5C544,-354.5 664,-354.5 664,-354.5 670,-354.5 676,-360.5 676,-366.5 676,-366.5 676,-462.5 676,-462.5 676,-468.5 670,-474.5 664,-474.5 664,-474.5 544,-474.5 544,-474.5 538,-474.5 532,-468.5 532,-462.5 532,-462.5 532,-366.5 532,-366.5 532,-360.5 538,-354.5 544,-354.5"/>
<text text-anchor="start" x="590.388" y="-461.2" font-family="Arial BoldMT" font-size="11.00">User</text>
<polyline fill="none" stroke="black" points="532,-455.5 676,-455.5 "/>
<text text-anchor="start" x="539" y="-442" font-family="ArialMT" font-size="10.00">admin </text>
<text text-anchor="start" x="569.015" y="-442" font-family="Arial ItalicMT" font-size="10.00" fill="#999999">boolean ∗</text>
<text text-anchor="start" x="539" y="-429" font-family="ArialMT" font-size="10.00">email </text>
<text text-anchor="start" x="565.675" y="-429" font-family="Arial ItalicMT" font-size="10.00" fill="#999999">string ∗ U</text>
<text text-anchor="start" x="539" y="-416" font-family="ArialMT" font-size="10.00">firstname </text>
<text text-anchor="start" x="582.901" y="-416" font-family="Arial ItalicMT" font-size="10.00" fill="#999999">string ∗</text>
<text text-anchor="start" x="539" y="-403" font-family="ArialMT" font-size="10.00">password_digest </text>
<text text-anchor="start" x="616.822" y="-403" font-family="Arial ItalicMT" font-size="10.00" fill="#999999">string</text>
<text text-anchor="start" x="539" y="-390" font-family="ArialMT" font-size="10.00">remember_digest </text>
<text text-anchor="start" x="619.591" y="-390" font-family="Arial ItalicMT" font-size="10.00" fill="#999999">string</text>
<text text-anchor="start" x="539" y="-377" font-family="ArialMT" font-size="10.00">reset_digest </text>
<text text-anchor="start" x="596.256" y="-377" font-family="Arial ItalicMT" font-size="10.00" fill="#999999">string</text>
<text text-anchor="start" x="539" y="-364" font-family="ArialMT" font-size="10.00">reset_sent_at </text>
<text text-anchor="start" x="602.374" y="-364" font-family="Arial ItalicMT" font-size="10.00" fill="#999999">datetime</text>
</g>
<!-- m_User&#45;&gt;m_Favorite -->
<g id="edge6" class="edge"><title>m_User&#45;&gt;m_Favorite</title>
<path fill="none" stroke="black" d="M604,-349.316C604,-326.977 604,-302.655 604,-283.172"/>
<ellipse fill="none" stroke="black" cx="604" cy="-351.869" rx="2.4" ry="2.4"/>
<ellipse fill="black" stroke="black" cx="604" cy="-274.712" rx="2.4" ry="2.4"/>
<polygon fill="black" stroke="black" points="606.1,-283.112 604,-277.112 601.9,-283.112 606.1,-283.112"/>
</g>
</g>
</svg>
