<?xml version="1.0" encoding="UTF-8" standalone="no"?>
<svg width="123px" height="141px" viewBox="0 0 123 141" version="1.1" xmlns="http://www.w3.org/2000/svg" xmlns:xlink="http://www.w3.org/1999/xlink">
    <!-- Generator: Sketch 39.1 (31720) - http://www.bohemiancoding.com/sketch -->
    <title>Floor</title>
    <desc>Created with Sketch.</desc>
    <defs>
        <path d="M10.057,0.201 C4.903,0.201 0.721,4.38 0.721,9.536 L0.721,28.197 C0.721,33.359 4.901,37.534 10.057,37.534 L62.939,37.534 C68.092,37.534 72.275,33.353 72.275,28.197 L72.275,9.536 C72.275,4.375 68.096,0.201 62.939,0.201 L10.057,0.201 Z" id="path-1"></path>
        <path d="M11.755,0.001 C11.755,0.001 10.015,11.312 5.23,11.312 C0.444,11.312 0.01,12.483 0.01,16.48 C0.01,26.6 7.605,34.804 16.976,34.804 C26.346,34.804 33.073,26.6 33.073,16.48 C33.073,11.617 25.677,0.001 25.242,0.001 L11.755,0.001 Z" id="path-3"></path>
        <polygon id="path-5" points="0 142 122.297 142 122.297 0.133 0 0.133"></polygon>
        <path d="M25.656,2.337 C20.87,4.077 15.515,6.186 9.124,14.517 C2.732,22.849 1.728,28.874 1.293,34.094 C0.857,39.315 0.81,40.228 1.293,46.276 C1.777,52.323 4.773,69.768 4.773,77.598 C4.773,85.428 2.163,101.526 2.163,103.266 C2.163,105.006 3.033,108.486 5.644,108.486 L21.74,108.486 L21.74,111.531 L28.265,111.531 C33.987,111.531 40.012,103.701 40.012,95 L40.012,86.299 C40.012,86.299 43.271,85.864 46.102,85.864 C48.934,85.864 52.626,86.299 52.626,86.299 L52.626,95.435 L68.831,95.435 C70.076,95.435 80.031,96.74 80.031,107.616 L84.387,107.616 C86.126,107.616 87.71,105.607 88.301,102.395 C88.893,99.184 88.187,96.677 87.431,91.085 C86.676,85.492 83.951,70.202 83.951,70.202 C83.951,70.202 83.333,64.247 83.951,58.456 C84.568,52.667 87.431,49.756 87.431,37.574 C87.431,25.394 69.595,11.037 63.069,11.907 C63.32,12.241 63.634,12.832 63.979,13.568 C66.352,17.826 67.42,22.348 67.42,22.348 C67.42,22.348 65.431,16.667 63.979,13.568 C63.023,11.852 61.855,10.178 60.459,8.862 C55.601,4.278 49.542,1.491 44.363,0.596 C42.968,0.355 41.317,0.244 39.553,0.244 C34.764,0.244 29.153,1.065 25.656,2.337 Z" id="path-7"></path>
        <path d="M24.878,2.559 C20.092,4.298 14.738,6.408 8.347,14.74 C1.955,23.07 0.95,29.096 0.515,34.317 C0.08,39.537 0.031,40.45 0.515,46.497 C0.999,52.544 3.996,69.989 3.996,77.82 C3.996,85.651 -2.257,101.267 1.787,101.267 L14.854,101.267 C15.715,101.267 15.978,102.123 15.978,102.398 L15.978,104.294 L20.788,104.294 C20.788,104.294 25.696,104.722 29.165,98.467 C30.231,96.544 31.777,92.882 31.777,89.474 L31.777,82.297 L33.012,82.372 L33.012,80.299 C33.012,80.299 36.271,79.864 39.102,79.864 C41.934,79.864 45.626,80.299 45.626,80.299 L45.626,83.145 L46.898,83.223 L46.898,88.198 C46.898,88.198 56.571,88.067 60.968,88.198 C67.49,88.366 73.797,92.469 74.231,100.384 L76.157,100.384 C76.966,100.384 77.513,100.55 78.228,100.061 C78.942,99.57 79.771,97.995 80.069,96.282 C80.59,93.295 80.274,92.708 80.069,91.213 C79.866,89.717 76.89,70.627 76.89,70.627 C76.89,70.627 74.712,59.495 75.537,53.518 C76.361,47.541 75.808,51.293 77.565,44.465 C78.053,42.568 78.601,39.916 78.942,37.179 C79.099,35.915 80.947,28.901 75.435,21.194 C69.924,13.488 62.364,8.396 58.281,7.374 C59.538,9.572 60.898,13.498 61.645,16.046 C61.645,16.046 61.823,17.117 60.968,17.453 C60.114,17.787 59.413,17.453 59.212,16.688 C58.01,13.632 57.265,11.353 56.186,8.913 C55.107,6.474 54.64,6.173 54.242,5.631 C53.205,4.224 48.765,1.713 43.584,0.819 C42.19,0.578 40.538,0.467 38.774,0.467 C33.986,0.467 28.375,1.287 24.878,2.559 Z" id="path-9"></path>
        <path d="M29.254,7.936 C29.254,7.936 29.538,7.639 30.145,7.381 C33.294,4.466 35.205,0.158 35.205,0.158 L29.254,7.936 Z M30.145,7.381 C30.056,7.463 29.966,7.544 29.876,7.624 C26.566,10.536 17.803,14.079 13.452,19.3 C9.103,24.52 9.537,30.611 7.362,34.961 C5.816,38.053 2.91,42.043 1.359,44.092 L4.88,39.526 L4.88,47.134 C4.88,48.551 13.289,68.894 32.16,68.894 C51.031,68.894 56.755,49.155 56.942,47.757 C57.091,46.644 57.27,35.418 56.942,31.127 C56.009,24.594 52.898,21.482 49.786,17.749 C46.675,14.016 40.86,10.164 36.075,7.989 C34.453,7.251 33.148,7.008 32.13,7.008 C31.267,7.008 30.611,7.183 30.145,7.381 Z M0.32,45.438 C0.32,45.438 0.728,44.925 1.359,44.092 L0.32,45.438 Z" id="path-11"></path>
        <path d="M0.365,3.513 C0.365,5.231 1.758,6.623 3.476,6.623 C5.194,6.623 6.587,5.231 6.587,3.513 C6.587,1.794 5.194,0.401 3.476,0.401 C1.758,0.401 0.365,1.794 0.365,3.513 Z" id="path-13"></path>
        <path d="M0.031,3.513 C0.031,5.231 1.424,6.623 3.142,6.623 C4.86,6.623 6.253,5.231 6.253,3.513 C6.253,1.794 4.86,0.401 3.142,0.401 C1.424,0.401 0.031,1.794 0.031,3.513 Z" id="path-15"></path>
        <path d="M1.64,0.731 C-2.454,1.134 4.098,8.157 8.033,8.157 C11.969,8.157 18.241,0.731 14.658,0.731 C12.908,0.731 8.119,0.69 4.845,0.69 C3.208,0.69 1.95,0.7 1.64,0.731 Z" id="path-17"></path>
        <path d="M0.187,0.313 L0.187,8.093 C0.187,8.093 6.409,9.012 6.409,4.211 C6.409,0.723 3.124,0.246 1.328,0.246 C0.652,0.246 0.187,0.313 0.187,0.313 Z" id="path-19"></path>
        <path d="M0.591,0.623 L0.591,6.846 C0.591,6.846 5.567,7.58 5.567,3.741 C5.567,0.95 2.939,0.569 1.503,0.569 C0.963,0.569 0.591,0.623 0.591,0.623 Z" id="path-21"></path>
    </defs>
    <g id="Prototype-3.0" stroke="none" stroke-width="1" fill="none" fill-rule="evenodd">
        <g id="Kennismaken_w/name" transform="translate(-99.000000, -38.000000)">
            <g id="Floor" transform="translate(99.000000, 36.000000)">
                <g id="Group-4" transform="translate(20.000000, 97.867000)">
                    <mask id="mask-2" fill="white">
                        <use xlink:href="#path-1"></use>
                    </mask>
                    <g id="Clip-2"></g>
                    <polygon id="Fill-1" fill="#F34584" mask="url(#mask-2)" points="-2.39 40.644 75.386 40.644 75.386 -2.911 -2.39 -2.911"></polygon>
                    <path d="M10.0571,2.6895 C6.2811,2.6895 3.2091,5.7615 3.2091,9.5365 L3.2091,28.1975 C3.2091,31.9725 6.2811,35.0445 10.0571,35.0445 L62.9391,35.0445 C66.7151,35.0445 69.7861,31.9725 69.7861,28.1975 L69.7861,9.5365 C69.7861,5.7615 66.7151,2.6895 62.9391,2.6895 L10.0571,2.6895 Z M62.9391,40.0225 L10.0571,40.0225 C3.5361,40.0225 -1.7679,34.7175 -1.7679,28.1975 L-1.7679,9.5365 C-1.7679,3.0165 3.5361,-2.2885 10.0571,-2.2885 L62.9391,-2.2885 C69.4591,-2.2885 74.7641,3.0165 74.7641,9.5365 L74.7641,28.1975 C74.7641,34.7175 69.4591,40.0225 62.9391,40.0225 L62.9391,40.0225 Z" id="Fill-3" fill="#000D46" mask="url(#mask-2)"></path>
                </g>
                <g id="Group-7" transform="translate(40.000000, 86.867000)">
                    <mask id="mask-4" fill="white">
                        <use xlink:href="#path-3"></use>
                    </mask>
                    <g id="Clip-6"></g>
                    <polygon id="Fill-5" fill="#FBD2AE" mask="url(#mask-4)" points="-3.102 37.915 36.184 37.915 36.184 -3.11 -3.102 -3.11"></polygon>
                </g>
                <g id="Group-13" transform="translate(0.000000, 0.867000)">
                    <path d="M52.7983,87.2451 C52.1903,90.3511 50.1203,98.5561 45.2303,98.5561 C41.2543,98.5561 41.2543,99.0781 41.2543,102.4801 C41.2543,111.8981 48.3063,119.5591 56.9763,119.5591 C65.4433,119.5591 71.8283,112.2171 71.8283,102.4801 C71.8283,98.6721 66.2273,89.2341 64.7093,87.2451 L52.7983,87.2451 Z M56.9763,122.0481 C46.9343,122.0481 38.7653,113.2701 38.7653,102.4801 C38.7653,97.9571 39.6633,96.0671 45.2303,96.0671 C48.0393,96.0671 50.0103,89.1581 50.5253,85.8121 L50.6883,84.7561 L65.2413,84.7561 C65.7433,84.7561 66.5843,84.7561 70.4143,91.8241 C72.1943,95.1091 74.3173,99.6241 74.3173,102.4801 C74.3173,113.6361 66.8623,122.0481 56.9763,122.0481 Z" id="Fill-8" fill="#000D46"></path>
                    <mask id="mask-6" fill="white">
                        <use xlink:href="#path-5"></use>
                    </mask>
                    <g id="Clip-11"></g>
                    <polygon id="Fill-10" fill="#000D46" mask="url(#mask-6)" points="55.565 120.417 58.054 120.417 58.054 114.428 55.565 114.428"></polygon>
                    <polygon id="Fill-12" fill="#000D46" mask="url(#mask-6)" points="0 134.533 112.996 134.533 112.996 132.044 0 132.044"></polygon>
                </g>
                <g id="Group-16" transform="translate(11.000000, 3.867000)">
                    <mask id="mask-8" fill="white">
                        <use xlink:href="#path-7"></use>
                    </mask>
                    <g id="Clip-15"></g>
                    <polygon id="Fill-14" fill="#E87F00" mask="url(#mask-8)" points="-2.163 114.643 91.632 114.643 91.632 -2.867 -2.163 -2.867"></polygon>
                </g>
                <path d="M33.9844,114.1541 L39.2654,114.1541 C44.9214,114.1541 49.7674,105.7491 49.7674,98.8671 L49.7674,89.0761 L50.8474,88.9321 C50.9834,88.9141 54.2214,88.4871 57.1024,88.4871 C59.9744,88.4871 63.6174,88.9121 63.7714,88.9301 L64.8694,89.0591 L64.8694,98.0581 L79.8314,98.0581 C82.3584,98.0581 91.5314,100.1651 92.2324,110.2391 L95.3864,110.2391 C96.3384,110.2391 97.5694,108.7961 98.0774,106.0371 C98.4944,103.7711 98.1954,101.8081 97.6994,98.5571 C97.5454,97.5441 97.3734,96.4141 97.1984,95.1181 C96.4544,89.6151 93.7534,74.4411 93.7264,74.2871 L93.7134,74.1971 C93.6884,73.9491 93.0894,68.0451 93.7134,62.1921 C93.9454,60.0191 94.4764,58.2301 95.0394,56.3361 C96.0464,52.9491 97.1874,49.1091 97.1874,41.4421 C97.1874,31.1481 83.3864,18.9901 76.2714,17.2041 C78.5564,21.4451 79.5864,25.7431 79.6304,25.9291 L77.2444,26.6261 C77.2254,26.5701 75.2794,21.0211 73.8724,18.0051 C72.8604,16.1951 71.7604,14.7241 70.6054,13.6341 C66.3184,9.5911 60.5414,6.6211 55.1504,5.6891 C53.8684,5.4681 52.3214,5.3561 50.5524,5.3561 C45.8134,5.3561 40.3994,6.1661 37.0814,7.3731 C32.7924,8.9321 27.4554,10.8721 21.1114,19.1421 C14.8984,27.2401 13.9614,32.9301 13.5334,38.0641 C13.1004,43.2641 13.0624,44.1551 13.5334,50.0431 C13.7064,52.1951 14.2024,55.8181 14.7764,60.0131 C15.7754,67.3051 17.0184,76.3821 17.0184,81.4661 C17.0184,86.8691 15.8204,95.9421 15.0294,101.9461 C14.7094,104.3691 14.4074,106.6571 14.4074,107.1331 C14.4074,108.4761 15.0824,111.1091 16.6434,111.1091 L33.9844,111.1091 L33.9844,114.1541 Z M39.2654,116.6431 L31.4954,116.6431 L31.4954,113.5971 L16.6434,113.5971 C13.2014,113.5971 11.9194,109.6321 11.9194,107.1331 C11.9194,106.5211 12.1274,104.9111 12.5614,101.6201 C13.3454,95.6811 14.5294,86.7061 14.5294,81.4661 C14.5294,76.5511 13.2984,67.5681 12.3104,60.3511 C11.7314,56.1181 11.2304,52.4641 11.0524,50.2411 C10.5614,44.0991 10.6194,43.0611 11.0524,37.8581 C11.4914,32.5961 12.5144,26.2591 19.1364,17.6271 C25.9224,8.7811 31.6374,6.7031 36.2304,5.0341 C39.7954,3.7371 45.5504,2.8671 50.5524,2.8671 C52.4634,2.8671 54.1524,2.9911 55.5744,3.2371 C61.5154,4.2631 67.6164,7.3931 72.3124,11.8231 C73.1074,12.5731 73.8724,13.4661 74.6004,14.4921 L74.6664,14.4921 C82.1204,14.4921 99.6754,28.5881 99.6754,41.4421 C99.6754,49.4711 98.4274,53.6711 97.4254,57.0461 C96.8734,58.9041 96.3964,60.5091 96.1884,62.4551 C95.6194,67.7901 96.1324,73.3581 96.1844,73.8991 C96.3544,74.8491 98.9354,89.3861 99.6654,94.7851 C99.8374,96.0641 100.0084,97.1821 100.1604,98.1821 C100.6774,101.5711 101.0194,103.8101 100.5254,106.4881 C99.8274,110.2791 97.8104,112.7281 95.3864,112.7281 L89.7864,112.7281 L89.7864,111.4831 C89.7864,107.3601 88.2524,104.2921 85.2284,102.3631 C82.8854,100.8701 80.3364,100.5471 79.8314,100.5471 L62.3804,100.5471 L62.3804,91.2861 C61.0914,91.1591 58.9014,90.9751 57.1024,90.9751 C55.3604,90.9751 53.4264,91.1491 52.2564,91.2731 L52.2564,98.8671 C52.2564,108.0041 45.9424,116.6431 39.2654,116.6431 L39.2654,116.6431 Z" id="Fill-17" fill="#000D46"></path>
                <g id="Group-21" transform="translate(18.000000, 9.867000)">
                    <mask id="mask-10" fill="white">
                        <use xlink:href="#path-9"></use>
                    </mask>
                    <g id="Clip-20"></g>
                    <polygon id="Fill-19" fill="#CA6E00" mask="url(#mask-10)" points="-2.941 107.412 83.464 107.412 83.464 -2.645 -2.941 -2.645"></polygon>
                </g>
                <g id="Group-26" transform="translate(32.000000, 122.867000)" fill="#000D46">
                    <polygon id="Fill-22" points="87.497 12.533 90.297 12.533 90.297 10.044 87.497 10.044"></polygon>
                    <polygon id="Fill-24" points="46.794 10.226 49.283 10.226 49.283 0.089 46.794 0.089"></polygon>
                    <polygon id="Fill-25" points="0.128 10.226 2.617 10.226 2.617 0.089 0.128 0.089"></polygon>
                </g>
                <g id="Group-29" transform="translate(26.000000, 23.867000)">
                    <mask id="mask-12" fill="white">
                        <use xlink:href="#path-11"></use>
                    </mask>
                    <g id="Clip-28"></g>
                    <polygon id="Fill-27" fill="#FBD2AE" mask="url(#mask-12)" points="-2.791 72.005 60.237 72.005 60.237 -2.954 -2.791 -2.954"></polygon>
                </g>
                <g id="Group-38" transform="translate(25.000000, 14.867000)" fill="#000D46">
                    <path d="M7.124,56.0791 C7.502,58.2291 15.634,76.6501 33.16,76.6501 C51.571,76.6501 56.679,56.7901 56.708,56.5901 C56.827,55.7021 57.034,44.6621 56.704,40.2621 C55.903,34.7251 53.497,31.8831 50.712,28.5931 C50.419,28.2471 50.125,27.8991 49.831,27.5451 C46.687,23.7731 40.9,20.0941 36.56,18.1211 C34.676,17.2651 32.998,17.0411 31.813,17.4561 C31.775,17.4901 31.736,17.5241 31.698,17.5581 C30.364,18.7321 28.334,19.9251 25.983,21.3061 C22.234,23.5091 17.985,26.0051 15.409,29.0961 C12.887,32.1221 12.089,35.4781 11.317,38.7221 C10.825,40.7921 10.36,42.7471 9.475,44.5171 C8.848,45.7721 8.009,47.1631 7.124,48.5171 L7.124,56.0791 Z M33.16,79.1391 C12.982,79.1391 4.635,57.6411 4.635,56.1341 L4.635,52.1771 L3.354,53.8391 C2.71,54.6891 2.295,55.2111 2.295,55.2111 L0.335,53.6771 L1.376,52.3281 C2.931,50.2741 5.757,46.3891 7.249,43.4041 C8.005,41.8911 8.438,40.0721 8.896,38.1461 C9.695,34.7871 10.601,30.9781 13.497,27.5031 C16.35,24.0791 20.798,21.4661 24.723,19.1601 C26.484,18.1251 28.166,17.1371 29.351,16.2541 L29.265,16.1791 L41.603,0.0551 L37.343,9.6621 C37.281,9.8011 36.158,12.3051 34.209,14.8361 C35.273,14.9761 36.405,15.3171 37.589,15.8551 C42.188,17.9451 48.347,21.8781 51.742,25.9531 C52.033,26.3011 52.323,26.6441 52.612,26.9851 C55.397,30.2751 58.277,33.6771 59.173,39.9511 L59.183,40.0321 C59.511,44.3291 59.339,55.6901 59.175,56.9211 C59.145,57.1431 53.766,79.1391 33.16,79.1391 L33.16,79.1391 Z" id="Fill-30"></path>
                    <path d="M31.8091,51.1567 C30.0931,51.1567 28.4221,50.4957 28.3511,50.4677 L29.0431,48.7347 C29.0581,48.7397 30.4601,49.2897 31.8091,49.2897 C33.1581,49.2897 34.5601,48.7397 34.5751,48.7347 L35.2671,50.4677 C35.1961,50.4957 33.5251,51.1567 31.8091,51.1567" id="Fill-32"></path>
                    <path d="M20.1436,37.2568 L18.9066,35.8598 C18.9566,35.8158 20.1286,34.7858 21.5276,34.4108 C22.9256,34.0358 24.4566,34.3408 24.5206,34.3548 L24.1466,36.1838 C24.1376,36.1818 22.9766,35.9548 22.0106,36.2138 C21.0446,36.4728 20.1526,37.2488 20.1436,37.2568" id="Fill-34"></path>
                    <path d="M43.4644,37.2554 C43.4574,37.2494 42.5654,36.4724 41.5994,36.2134 C40.6344,35.9554 39.4724,36.1824 39.4604,36.1844 L39.0884,34.3544 C39.1524,34.3404 40.6824,34.0354 42.0824,34.4114 C43.4814,34.7854 44.6534,35.8154 44.7034,35.8594 L43.4644,37.2554 Z" id="Fill-36"></path>
                </g>
                <g id="Group-41" transform="translate(44.000000, 52.867000)">
                    <mask id="mask-14" fill="white">
                        <use xlink:href="#path-13"></use>
                    </mask>
                    <g id="Clip-40"></g>
                    <polygon id="Fill-39" fill="#000E46" mask="url(#mask-14)" points="-2.746 9.735 9.698 9.735 9.698 -2.709 -2.746 -2.709"></polygon>
                </g>
                <g id="Group-44" transform="translate(63.000000, 52.867000)">
                    <mask id="mask-16" fill="white">
                        <use xlink:href="#path-15"></use>
                    </mask>
                    <g id="Clip-43"></g>
                    <polygon id="Fill-42" fill="#000E46" mask="url(#mask-16)" points="-3.08 9.735 9.364 9.735 9.364 -2.709 -3.08 -2.709"></polygon>
                </g>
                <g id="Group-48" transform="translate(10.000000, 139.867000)" fill="#000E46">
                    <polygon id="Fill-45" points="0.58 3 49.491 3 49.491 0.511 0.58 0.511"></polygon>
                    <polygon id="Fill-47" points="64.047 3 93.088 3 93.088 0.511 64.047 0.511"></polygon>
                </g>
                <g id="Group-51" transform="translate(49.000000, 71.867000)">
                    <mask id="mask-18" fill="white">
                        <use xlink:href="#path-17"></use>
                    </mask>
                    <g id="Clip-50"></g>
                    <polygon id="Fill-49" fill="#FFFFFF" mask="url(#mask-18)" points="-2.769 11.267 18.835 11.267 18.835 -2.421 -2.769 -2.421"></polygon>
                </g>
                <path d="M53.8452,73.4905 C51.4562,73.4905 50.8692,73.5125 50.7322,73.5265 C50.3722,73.5615 50.2762,73.6525 50.2752,73.6525 C50.2552,73.7135 50.2712,74.1525 50.8502,74.9945 C52.1522,76.8885 55.1372,79.0905 57.0332,79.0905 C58.6802,79.0905 61.0942,77.3025 62.5292,75.6185 C63.4062,74.5895 63.7282,73.8535 63.7832,73.5365 C63.7502,73.5335 63.7082,73.5315 63.6582,73.5315 C62.9172,73.5315 61.6342,73.5235 60.1522,73.5155 C58.1292,73.5035 55.7342,73.4905 53.8452,73.4905 M57.0332,80.9565 C54.0392,80.9565 48.5602,76.8335 48.4122,73.8245 C48.3662,72.8885 48.9032,71.8315 50.5492,71.6685 C50.7622,71.6475 51.3302,71.6235 53.8452,71.6235 C55.7382,71.6235 58.1362,71.6375 60.1622,71.6485 C61.6402,71.6575 62.9192,71.6645 63.6582,71.6645 C64.2432,71.6645 64.7192,71.8135 65.0702,72.1075 C65.4492,72.4245 65.6572,72.8955 65.6572,73.4335 C65.6572,76.0245 60.5022,80.9565 57.0332,80.9565" id="Fill-52" fill="#000E46"></path>
                <g id="Group-56" transform="translate(84.000000, 59.867000)">
                    <mask id="mask-20" fill="white">
                        <use xlink:href="#path-19"></use>
                    </mask>
                    <g id="Clip-55"></g>
                    <polygon id="Fill-54" fill="#000000" mask="url(#mask-20)" points="-2.925 11.275 9.519 11.275 9.519 -2.865 -2.925 -2.865"></polygon>
                </g>
                <g id="Group-59" transform="translate(83.000000, 58.867000)">
                    <mask id="mask-22" fill="white">
                        <use xlink:href="#path-21"></use>
                    </mask>
                    <g id="Clip-58"></g>
                    <polygon id="Fill-57" fill="#FBD2AE" mask="url(#mask-22)" points="-2.52 10.013 8.678 10.013 8.678 -2.542 -2.52 -2.542"></polygon>
                </g>
                <path d="M84.8354,60.6878 L84.8354,64.5178 C85.5044,64.4858 86.0874,64.3518 86.5004,64.1318 C87.0764,63.8238 87.3224,63.3678 87.3224,62.6078 C87.3224,62.1508 87.3224,60.7978 84.8354,60.6878 M84.5234,67.0138 L84.5234,67.0138 C83.8984,67.0138 83.4574,66.9508 83.4094,66.9438 L82.3464,66.7868 L82.3464,58.4138 L83.4114,58.2588 C83.5254,58.2428 85.8254,57.9028 87.6584,58.8768 C89.0464,59.6148 89.8114,60.9388 89.8114,62.6078 C89.8114,64.2708 89.0514,65.5918 87.6704,66.3278 C86.6084,66.8948 85.3734,67.0138 84.5234,67.0138" id="Fill-60" fill="#000E46"></path>
            </g>
        </g>
    </g>
</svg>