<?xml version="1.0" encoding="UTF-8" standalone="no"?>
<svg width="226px" height="144px" viewBox="0 0 226 144" version="1.1" xmlns="http://www.w3.org/2000/svg" xmlns:xlink="http://www.w3.org/1999/xlink">
    <!-- Generator: Sketch 39.1 (31720) - http://www.bohemiancoding.com/sketch -->
    <title>Slice 1</title>
    <desc>Created with Sketch.</desc>
    <defs>
        <path d="M10.696,20.204 C6.77,22.502 4.807,23.158 4.807,26.441 C4.807,29.723 8.636,30.007 7.424,33.991 C6.213,37.975 0.227,39.242 0.227,44.495 C0.227,49.75 10.368,49.42 10.368,54.671 C10.368,59.925 4.807,57.295 4.807,61.563 C4.807,65.829 10.696,64.193 10.696,68.131 C10.696,72.07 4.807,73.055 4.807,77.98 C4.807,82.904 12.985,83.56 12.985,83.56 L75.801,83.56 C82.672,83.56 85.289,81.427 85.289,77.98 C85.289,74.531 76.129,72.726 76.129,68.131 C76.129,63.536 81.035,62.843 81.035,59.925 C81.035,57.006 76.129,57.955 76.129,54.344 C76.129,50.733 86.924,49.75 86.924,44.495 C86.924,39.242 79.4,36.617 79.4,33.335 C79.4,30.052 82.344,30.052 82.017,27.097 C81.69,24.143 80.054,23.158 76.129,20.861 C72.809,19.58 72.516,0.033 43.576,0.033 C14.636,0.033 12.985,18.563 10.696,20.204 Z" id="path-1"></path>
        <path d="M10.003,0.916 C4.848,0.916 0.669,5.097 0.669,10.253 L0.669,21.576 C0.669,26.735 4.848,30.913 10.003,30.913 L48.636,30.913 C53.792,30.913 57.969,26.732 57.969,21.576 L57.969,10.253 C57.969,5.094 53.791,0.916 48.636,0.916 L10.003,0.916 Z" id="path-3"></path>
        <path d="M12.574,0.917 C8.723,0.917 5.597,4.05 5.597,7.915 L5.597,12.916 L0.615,12.916 L0.615,17.411 C0.615,21.28 3.482,25.651 7.019,27.175 C7.019,27.175 9.948,28.914 13.503,28.914 C17.057,28.914 20.105,27.149 20.105,27.149 C23.675,25.696 26.524,21.279 26.524,17.411 L26.524,12.916 L21.043,12.916 L21.043,7.915 C21.043,4.055 17.919,0.917 14.065,0.917 L12.574,0.917 Z" id="path-5"></path>
        <path d="M0.597,8.30207233 L0.597,6.165 C0.597,3.267 3.723,0.917 7.574,0.917 L9.065,0.917 C12.919,0.917 16.043,3.269 16.043,6.165 L16.043,8.10495959 C14.8033314,8.30954634 13.5305777,8.416 12.233,8.416 L2.912,8.416 C2.13070024,8.416 1.35844411,8.37740786 0.597,8.30207233 L0.597,8.30207233 Z" id="path-7"></path>
        <path d="M2.585,0.171 C1.548,0.171 0.715,1.008 0.715,2.04 L0.715,5.709 C0.715,6.743 1.551,7.579 2.585,7.579 L13.725,7.579 C14.761,7.579 15.594,6.742 15.594,5.709 L15.594,2.04 C15.594,1.007 14.756,0.171 13.725,0.171 L2.585,0.171 Z" id="path-9"></path>
        <path d="M23.825,6.422 C23.825,6.422 23.877,6.355 23.997,6.267 C26.545,3.924 28.093,0.422 28.093,0.422 L23.825,6.422 Z M23.997,6.267 C23.94,6.32 23.883,6.371 23.825,6.422 C21.174,8.761 14.158,11.608 10.673,15.803 C7.189,19.998 7.538,24.891 5.796,28.387 C4.561,30.865 2.243,34.06 0.999,35.71 L3.808,32.055 L3.808,38.168 C3.808,39.307 10.456,55.416 25.569,55.416 C40.68,55.416 45.349,39.791 45.5,38.669 C45.617,37.775 45.761,28.754 45.5,25.306 C44.752,20.056 42.26,17.556 39.769,14.557 C37.278,11.557 32.621,8.462 28.789,6.715 C27.351,6.059 26.294,5.854 25.533,5.854 C24.702,5.854 24.226,6.099 23.997,6.267 Z M0.158,36.805 C0.158,36.805 0.488,36.388 0.999,35.71 L0.158,36.805 Z" id="path-11"></path>
        <path d="M1.629,0.451 C-1.65,0.775 3.597,6.417 6.748,6.417 C9.9,6.417 14.922,0.451 12.053,0.451 C10.651,0.451 6.816,0.419 4.195,0.419 C2.885,0.419 1.877,0.427 1.629,0.451 Z" id="path-13"></path>
        <path d="M0.604,3.42 C0.604,4.8 1.719,5.92 3.095,5.92 C4.472,5.92 5.587,4.8 5.587,3.42 C5.587,2.04 4.472,0.92 3.095,0.92 C1.719,0.92 0.604,2.04 0.604,3.42 Z" id="path-15"></path>
        <path d="M0.551,3.42 C0.551,4.8 1.667,5.92 3.043,5.92 C4.419,5.92 5.534,4.8 5.534,3.42 C5.534,2.04 4.419,0.92 3.043,0.92 C1.667,0.92 0.551,2.04 0.551,3.42 Z" id="path-17"></path>
        <path d="M0.496,0.474 L0.496,6.725 C0.496,6.725 5.478,7.464 5.478,3.605 C5.478,0.803 2.849,0.42 1.41,0.42 C0.869,0.42 0.496,0.474 0.496,0.474 Z" id="path-19"></path>
        <path d="M0.019,0.92 L0.019,5.918 C0.019,5.918 4.004,6.509 4.004,3.423 C4.004,1.183 1.901,0.876 0.75,0.876 C0.317,0.876 0.019,0.92 0.019,0.92 Z" id="path-21"></path>
        <path d="M7.977,9.221 C4.102,10.648 0.958,15.16 0.958,19.299 L0.958,38.3 L61.248,38.3 L61.248,19.299 C61.248,15.16 58.101,10.664 54.219,9.26 L30.855,0.805 L7.977,9.221 Z" id="path-23"></path>
        <polygon id="path-25" points="0.374 32.301 11.834 32.301 11.834 0.804 0.374 0.804"></polygon>
        <polygon id="path-27" points="4.363 0.302 0.876 20.3 13.332 20.3 10.342 0.302"></polygon>
        <path d="M0.685,3.852 L0.831,7.86 C1.992,8.826 3.577,9.775 5.346,9.794 C5.792,9.8 6.219,9.743 6.625,9.64 C7.24,9.367 7.822,9.002 8.322,8.513 C9.562,7.301 9.939,5.631 9.993,4.218 L7.465,1.268 L3.378,0.952 L0.685,3.852 Z" id="path-29"></path>
        <path d="M0.921,10.279 C0.921,10.279 5.728,11.047 8.322,8.513 C10.915,5.979 9.731,1.443 9.731,1.443 L0.57,0.735 L0.921,10.279 Z" id="path-31"></path>
        <path d="M0.38,8.531 L0.38,10.577 C0.38,14.847 3.839,18.304 8.104,18.304 C12.37,18.304 15.827,14.844 15.827,10.577 L15.827,8.531 C15.827,4.263 12.369,0.805 8.104,0.805 C3.838,0.805 0.38,4.265 0.38,8.531 Z" id="path-33"></path>
        <path d="M0.956,28.711 L0.956,43.406 C0.956,58.814 13.447,71.305 28.858,71.305 C44.272,71.305 56.761,58.815 56.761,43.406 L56.761,28.711 C56.761,13.304 44.269,0.812 28.858,0.812 C13.444,0.812 0.956,13.303 0.956,28.711 Z" id="path-35"></path>
        <path d="M1.918,0.839 C-1.361,1.163 3.886,6.805 7.037,6.805 C10.189,6.805 15.211,0.839 12.342,0.839 C10.941,0.839 7.106,0.807 4.484,0.807 C3.174,0.807 2.166,0.815 1.918,0.839 Z" id="path-37"></path>
        <path d="M0.966,3.332 C0.966,6.833 4.952,5.833 4.952,5.833 L4.952,0.333 C4.952,0.333 4.755,0.308 4.449,0.308 C3.378,0.308 0.966,0.61 0.966,3.332 Z" id="path-39"></path>
        <path d="M0.765,0.333 L0.765,5.833 C0.765,5.833 4.751,6.833 4.751,3.332 C4.751,0.61 2.338,0.308 1.267,0.308 C0.961,0.308 0.765,0.333 0.765,0.333 Z" id="path-41"></path>
        <polygon id="path-43" points="0 142 225.755 142 225.755 0.133 0 0.133"></polygon>
        <path d="M2.843,0.808 C1.465,0.808 0.353,1.921 0.353,3.293 L0.353,10.823 C0.353,12.198 1.468,13.307 2.843,13.307 L14.803,13.307 C16.182,13.307 17.294,12.195 17.294,10.823 L17.294,3.293 C17.294,1.918 16.179,0.808 14.803,0.808 L2.843,0.808 Z" id="path-45"></path>
        <path d="M2.843,0.808 C1.465,0.808 0.353,1.921 0.353,3.293 L0.353,10.823 C0.353,12.198 1.468,13.307 2.843,13.307 L14.803,13.307 C16.182,13.307 17.294,12.195 17.294,10.823 L17.294,3.293 C17.294,1.918 16.179,0.808 14.803,0.808 L2.843,0.808 Z" id="path-47"></path>
        <path d="M2.913,0.808 C1.534,0.808 0.423,1.921 0.423,3.293 L0.423,10.823 C0.423,12.198 1.537,13.307 2.913,13.307 L14.873,13.307 C16.252,13.307 17.363,12.195 17.363,10.823 L17.363,3.293 C17.363,1.918 16.248,0.808 14.873,0.808 L2.913,0.808 Z" id="path-49"></path>
        <path d="M2.913,0.808 C1.534,0.808 0.423,1.921 0.423,3.293 L0.423,10.823 C0.423,12.198 1.537,13.307 2.913,13.307 L14.873,13.307 C16.252,13.307 17.363,12.195 17.363,10.823 L17.363,3.293 C17.363,1.918 16.248,0.808 14.873,0.808 L2.913,0.808 Z" id="path-51"></path>
        <path d="M0.899,2.307 C0.899,3.412 1.792,4.308 2.893,4.308 C3.993,4.308 4.886,3.412 4.886,2.307 C4.886,1.204 3.993,0.308 2.893,0.308 C1.792,0.308 0.899,1.204 0.899,2.307 Z" id="path-53"></path>
        <path d="M0.83,2.307 C0.83,3.412 1.722,4.308 2.823,4.308 C3.924,4.308 4.816,3.412 4.816,2.307 C4.816,1.204 3.924,0.308 2.823,0.308 C1.722,0.308 0.83,1.204 0.83,2.307 Z" id="path-55"></path>
        <path d="M16.748,3.217 C8.57,6.733 9.348,15.722 9.348,15.722 C9.348,15.722 2.461,17.811 0.966,21.81 C-0.529,25.81 -0.778,31.939 4.87,37.605 C4.952,35.809 5.083,32.915 6.447,29.594 C7.809,26.272 9.738,22.951 12.464,22.951 C15.191,22.951 17.917,30.18 30.769,29.594 C40.987,29.128 48.867,22.61 51.668,19.958 L52.774,18.847 C52.774,18.847 52.39,19.274 51.668,19.958 L51.021,20.607 C51.021,20.607 54.721,22.561 56.084,25.882 C57.447,29.204 58.765,34.489 58.765,36.809 C61.125,36.44 65.236,33.111 64.847,24.514 C64.607,19.236 63.135,19.758 61.529,20.281 C60.521,20.609 59.458,20.938 58.616,19.825 C56.434,16.943 57.837,9.665 49.269,4.779 C44.533,2.08 37.599,0.813 30.96,0.813 C25.587,0.813 20.407,1.644 16.748,3.217 Z" id="path-57"></path>
        <polygon id="path-59" points="0 142 225.755 142 225.755 0.133 0 0.133"></polygon>
        <path d="M7.607,1.656 C2.602,2.624 0.187,7.812 0.187,11.624 C0.187,15.436 1.421,19.252 1.168,20.281 C0.914,21.311 1.052,21.589 0.554,22.589 C3.64,25.181 8.601,28.438 16.83,27.518 C25.06,26.598 33.015,21.827 37.198,17.019 C37.785,16.606 38.41,16.925 38.638,17.297 C38.868,17.67 38.886,18.116 38.516,18.521 C38.147,18.926 37.636,19.421 37.636,19.421 C37.636,19.421 40.761,21.183 42.51,25.705 C44.257,30.228 44.69,34.446 44.69,34.446 C44.69,34.446 49.305,31.976 48.836,23.871 C48.744,21.769 48.542,20.473 48.077,20.096 C47.835,19.969 47.352,20.158 46.742,20.349 C45.702,20.672 44.294,20.996 43.073,19.75 C40.292,16.91 42.21,11.916 37.059,7.19 C31.907,2.464 28.464,2.393 23.429,1.393 C21.262,0.962 18.956,0.772 16.634,0.772 C13.561,0.772 10.458,1.105 7.607,1.656 Z" id="path-61"></path>
        <path d="M10.252,0.2 C5.099,0.2 0.916,4.381 0.916,9.537 L0.916,28.197 C0.916,33.359 5.096,37.534 10.252,37.534 L63.134,37.534 C68.288,37.534 72.47,33.353 72.47,28.197 L72.47,9.537 C72.47,4.374 68.29,0.2 63.134,0.2 L10.252,0.2 Z" id="path-63"></path>
        <path d="M11.95,0.001 C11.95,0.001 10.211,11.311 5.424,11.311 C0.64,11.311 0.204,12.483 0.204,16.48 C0.204,26.601 7.8,34.804 17.17,34.804 C26.541,34.804 33.268,26.601 33.268,16.48 C33.268,11.617 25.872,0.001 25.437,0.001 L11.95,0.001 Z" id="path-65"></path>
        <polygon id="path-67" points="0 142 225.755 142 225.755 0.133 0 0.133"></polygon>
        <path d="M24.851,2.337 C20.065,4.077 14.711,6.186 8.319,14.517 C1.928,22.849 0.924,28.874 0.488,34.094 C0.053,39.315 0.005,40.228 0.488,46.276 C0.972,52.323 3.968,69.768 3.968,77.598 C3.968,85.428 1.358,101.526 1.358,103.266 C1.358,105.006 2.229,108.486 4.839,108.486 L20.935,108.486 L20.935,111.531 L27.461,111.531 C33.182,111.531 39.207,103.701 39.207,95 L39.207,86.299 C39.207,86.299 42.466,85.864 45.297,85.864 C48.13,85.864 51.82,86.299 51.82,86.299 L51.82,95.435 L68.026,95.435 C69.27,95.435 79.226,96.74 79.226,107.616 L83.581,107.616 C85.322,107.616 86.905,105.607 87.496,102.395 C88.089,99.184 87.382,96.677 86.626,91.085 C85.871,85.492 83.146,70.202 83.146,70.202 C83.146,70.202 82.528,64.247 83.146,58.456 C83.763,52.666 86.626,49.756 86.626,37.574 C86.626,25.394 68.79,11.037 62.264,11.907 C62.515,12.242 62.83,12.834 63.176,13.571 C65.547,17.828 66.615,22.348 66.615,22.348 C66.615,22.348 64.628,16.671 63.176,13.571 C62.219,11.854 61.051,10.18 59.654,8.862 C54.796,4.278 48.738,1.491 43.558,0.596 C42.163,0.355 40.512,0.244 38.748,0.244 C33.959,0.244 28.348,1.065 24.851,2.337 Z" id="path-69"></path>
        <path d="M25.073,2.559 C20.287,4.298 14.932,6.408 8.541,14.74 C2.15,23.07 1.145,29.096 0.711,34.317 C0.275,39.537 0.226,40.45 0.711,46.497 C1.194,52.544 4.191,69.989 4.191,77.82 C4.191,85.651 -2.061,101.267 1.983,101.267 L15.049,101.267 C15.91,101.267 16.173,102.123 16.173,102.397 L16.173,104.294 L20.984,104.294 C20.984,104.294 25.891,104.722 29.36,98.467 C30.427,96.544 31.972,92.882 31.972,89.474 L31.972,82.296 L33.207,82.371 L33.207,80.299 C33.207,80.299 36.466,79.864 39.297,79.864 C42.13,79.864 45.82,80.299 45.82,80.299 L45.82,83.145 L47.093,83.223 L47.093,88.198 C47.093,88.198 56.766,88.067 61.163,88.198 C67.685,88.366 73.993,92.469 74.426,100.384 L76.352,100.384 C77.16,100.384 77.708,100.55 78.423,100.061 C79.137,99.57 79.966,97.995 80.265,96.282 C80.785,93.295 80.469,92.708 80.265,91.213 C80.061,89.717 77.085,70.628 77.085,70.628 C77.085,70.628 74.907,59.495 75.732,53.518 C76.557,47.541 76.003,51.293 77.76,44.465 C78.247,42.568 78.796,39.916 79.137,37.179 C79.294,35.915 81.142,28.901 75.63,21.194 C70.119,13.488 62.558,8.396 58.476,7.374 C59.733,9.572 61.094,13.498 61.84,16.046 C61.84,16.046 62.018,17.117 61.163,17.453 C60.308,17.787 59.607,17.453 59.407,16.688 C58.205,13.632 57.46,11.353 56.381,8.913 C55.302,6.474 54.836,6.173 54.437,5.631 C53.401,4.224 48.96,1.713 43.78,0.819 C42.385,0.578 40.734,0.467 38.97,0.467 C34.181,0.467 28.57,1.287 25.073,2.559 Z" id="path-71"></path>
        <path d="M29.449,7.936 C29.449,7.936 29.733,7.639 30.34,7.381 C33.49,4.465 35.4,0.158 35.4,0.158 L29.449,7.936 Z M30.34,7.381 C30.251,7.463 30.161,7.544 30.07,7.624 C26.761,10.536 17.998,14.079 13.648,19.3 C9.298,24.52 9.733,30.611 7.557,34.961 C6.015,38.047 3.118,42.026 1.564,44.079 L5.075,39.526 L5.075,47.134 C5.075,48.551 13.484,68.894 32.354,68.894 C51.226,68.894 56.951,49.156 57.137,47.757 C57.286,46.644 57.466,35.418 57.137,31.127 C56.204,24.594 53.092,21.482 49.982,17.749 C46.871,14.016 41.055,10.164 36.27,7.989 C34.648,7.251 33.342,7.008 32.324,7.008 C31.462,7.008 30.806,7.183 30.34,7.381 Z M0.516,45.438 C0.516,45.438 0.928,44.92 1.564,44.079 L0.516,45.438 Z" id="path-73"></path>
        <path d="M0.56,3.513 C0.56,5.231 1.953,6.623 3.671,6.623 C5.389,6.623 6.782,5.231 6.782,3.513 C6.782,1.794 5.389,0.401 3.671,0.401 C1.953,0.401 0.56,1.794 0.56,3.513 Z" id="path-75"></path>
        <path d="M0.226,3.513 C0.226,5.231 1.619,6.623 3.338,6.623 C5.055,6.623 6.449,5.231 6.449,3.513 C6.449,1.794 5.055,0.401 3.338,0.401 C1.619,0.401 0.226,1.794 0.226,3.513 Z" id="path-77"></path>
        <path d="M1.835,0.731 C-2.258,1.134 4.293,8.157 8.228,8.157 C12.164,8.157 18.436,0.731 14.853,0.731 C13.103,0.731 8.314,0.69 5.04,0.69 C3.403,0.69 2.145,0.7 1.835,0.731 Z" id="path-79"></path>
        <path d="M0.381,0.313 L0.381,8.093 C0.381,8.093 6.603,9.012 6.603,4.211 C6.603,0.723 3.318,0.246 1.522,0.246 C0.846,0.246 0.381,0.313 0.381,0.313 Z" id="path-81"></path>
        <path d="M0.786,0.623 L0.786,6.846 C0.786,6.846 5.762,7.58 5.762,3.741 C5.762,0.95 3.134,0.569 1.698,0.569 C1.158,0.569 0.786,0.623 0.786,0.623 Z" id="path-83"></path>
        <path d="M0.315,1.334 C0.315,1.679 0.594,1.956 0.937,1.956 C1.28,1.956 1.559,1.679 1.559,1.334 C1.559,0.99 1.28,0.712 0.937,0.712 C0.594,0.712 0.315,0.99 0.315,1.334 Z" id="path-85"></path>
        <path d="M0.048,1.334 C0.048,1.679 0.327,1.956 0.671,1.956 C1.014,1.956 1.293,1.679 1.293,1.334 C1.293,0.99 1.014,0.712 0.671,0.712 C0.327,0.712 0.048,0.99 0.048,1.334 Z" id="path-87"></path>
        <path d="M0.181,0.824 C0.181,1.167 0.459,1.445 0.804,1.445 C1.148,1.445 1.426,1.167 1.426,0.824 C1.426,0.48 1.148,0.201 0.804,0.201 C0.459,0.201 0.181,0.48 0.181,0.824 Z" id="path-89"></path>
        <path d="M0.338,1.334 C0.338,1.679 0.617,1.956 0.96,1.956 C1.303,1.956 1.583,1.679 1.583,1.334 C1.583,0.99 1.303,0.712 0.96,0.712 C0.617,0.712 0.338,0.99 0.338,1.334 Z" id="path-91"></path>
        <path d="M0.071,1.334 C0.071,1.679 0.35,1.956 0.694,1.956 C1.037,1.956 1.316,1.679 1.316,1.334 C1.316,0.99 1.037,0.712 0.694,0.712 C0.35,0.712 0.071,0.99 0.071,1.334 Z" id="path-93"></path>
        <path d="M0.204,0.824 C0.204,1.167 0.482,1.445 0.826,1.445 C1.17,1.445 1.449,1.167 1.449,0.824 C1.449,0.48 1.17,0.201 0.826,0.201 C0.482,0.201 0.204,0.48 0.204,0.824 Z" id="path-95"></path>
    </defs>
    <g id="Page-1" stroke="none" stroke-width="1" fill="none" fill-rule="evenodd">
        <g id="Floor&amp;Friends">
            <g id="Group-3" transform="translate(123.000000, 24.867000)">
                <mask id="mask-2" fill="white">
                    <use xlink:href="#path-1"></use>
                </mask>
                <g id="Clip-2"></g>
                <polygon id="Fill-1" fill="#FDAF04" mask="url(#mask-2)" points="-2.884 86.671 90.036 86.671 90.036 -3.077 -2.884 -3.077"></polygon>
            </g>
            <path d="M136.0444,107.1824 L198.8014,107.1824 C207.0444,107.1824 207.0444,104.0324 207.0444,102.8464 C207.0444,101.9314 205.1804,100.7544 203.5354,99.7154 C200.8874,98.0424 197.8844,96.1474 197.8844,92.9974 C197.8844,89.8804 199.7834,88.1954 201.1704,86.9644 C202.1754,86.0734 202.7914,85.4914 202.7914,84.7914 C202.7914,84.3004 202.5314,84.0794 201.2494,83.4794 C199.9084,82.8524 197.8844,81.9034 197.8844,79.2104 C197.8844,76.8014 200.4764,75.5194 203.2204,74.1614 C205.9044,72.8354 208.6804,71.4624 208.6804,69.3624 C208.6804,66.9824 206.6424,65.1464 204.6714,63.3714 C202.8634,61.7434 201.1554,60.2044 201.1554,58.2024 C201.1554,56.0914 202.1614,54.9634 202.8964,54.1394 C203.5804,53.3714 203.8784,52.9944 203.7794,52.1014 C203.5304,49.8464 202.4904,49.1384 198.5704,46.8434 C197.3954,46.3234 196.7364,44.9194 195.7564,42.8274 C193.0234,36.9964 187.9354,26.1454 166.5754,26.1454 C143.8794,26.1454 138.7194,37.5984 136.2384,43.1024 C135.5674,44.5934 135.1234,45.5784 134.4204,46.0824 L134.3244,46.1444 C133.8374,46.4304 133.3784,46.6904 132.9504,46.9344 C129.8594,48.6934 129.0514,49.2384 129.0514,51.3084 C129.0514,52.2424 129.4714,52.7804 130.2124,53.6514 C131.1754,54.7824 132.4934,56.3304 131.6144,59.2204 C130.9924,61.2664 129.4244,62.6274 127.9064,63.9434 C126.0644,65.5424 124.4714,66.9234 124.4714,69.3624 C124.4714,71.0864 126.1224,72.0124 128.8414,73.3324 C131.5474,74.6454 134.6134,76.1334 134.6134,79.5384 C134.6134,83.1614 132.3254,84.0264 130.8124,84.5994 C129.4454,85.1174 129.0514,85.3154 129.0514,86.4294 C129.0514,87.6614 129.6734,88.0364 131.3194,88.7254 C132.8484,89.3654 134.9404,90.2394 134.9404,92.9974 C134.9404,95.4064 133.2914,96.9144 131.8374,98.2454 C130.3424,99.6134 129.0514,100.7944 129.0514,102.8464 C129.0514,106.3714 135.4674,107.1224 136.0444,107.1824 M198.8014,109.6704 L135.8864,109.6664 C135.5054,109.6364 126.5624,108.8504 126.5624,102.8464 C126.5624,99.6984 128.5554,97.8744 130.1564,96.4094 C131.5794,95.1084 132.4514,94.2464 132.4514,92.9974 C132.4514,91.9864 131.9094,91.6694 130.3594,91.0214 C128.8484,90.3894 126.5624,89.4334 126.5624,86.4294 C126.5624,83.5464 128.5904,82.7794 129.9314,82.2714 C131.3454,81.7364 132.1244,81.4424 132.1244,79.5384 C132.1244,77.8164 130.4744,76.8914 127.7554,75.5714 C125.0494,74.2574 121.9814,72.7694 121.9814,69.3624 C121.9814,65.7874 124.2644,63.8084 126.2754,62.0624 C127.5844,60.9284 128.8204,59.8574 129.2334,58.4954 C129.7174,56.9084 129.1904,56.2894 128.3174,55.2654 C127.5354,54.3464 126.5624,53.2034 126.5624,51.3084 C126.5624,47.7054 128.6144,46.5374 131.7204,44.7714 C132.1154,44.5464 132.5374,44.3064 132.9844,44.0454 C133.1824,43.8274 133.6184,42.8604 133.9704,42.0794 C136.4534,36.5674 142.2714,23.6564 166.5754,23.6564 C189.5174,23.6564 195.2524,35.8904 198.0094,41.7704 C198.5514,42.9274 199.2274,44.3674 199.5914,44.5734 L199.7564,44.6544 C203.6894,46.9544 205.8554,48.2224 206.2544,51.8284 C206.4794,53.8604 205.5224,54.9334 204.7534,55.7954 C204.1094,56.5174 203.6444,57.0394 203.6444,58.2024 C203.6444,59.0974 205.0134,60.3304 206.3374,61.5224 C208.4894,63.4614 211.1694,65.8744 211.1694,69.3624 C211.1694,73.0084 207.3734,74.8854 204.3224,76.3934 C202.5634,77.2634 200.3724,78.3474 200.3724,79.2104 C200.3724,80.2244 200.9024,80.5684 202.3054,81.2254 C203.5604,81.8134 205.2794,82.6184 205.2794,84.7914 C205.2794,86.6454 203.9744,87.8044 202.8214,88.8264 C201.5624,89.9444 200.3724,90.9994 200.3724,92.9974 C200.3724,94.7754 202.6554,96.2164 204.8644,97.6124 C207.2664,99.1274 209.5334,100.5604 209.5334,102.8464 C209.5334,107.3744 205.9224,109.6704 198.8014,109.6704" id="Fill-4" fill="#000E46"></path>
            <g id="Group-9" transform="translate(139.000000, 94.867000)">
                <mask id="mask-4" fill="white">
                    <use xlink:href="#path-3"></use>
                </mask>
                <g id="Clip-7"></g>
                <polygon id="Fill-6" fill="#63A5FF" mask="url(#mask-4)" points="-2.442 34.024 61.08 34.024 61.08 -2.195 -2.442 -2.195"></polygon>
                <path d="M10.0034,3.4053 C6.2294,3.4053 3.1584,6.4763 3.1584,10.2533 L3.1584,21.5763 C3.1584,25.3513 6.2294,28.4243 10.0034,28.4243 L48.6364,28.4243 C52.4104,28.4243 55.4814,25.3513 55.4814,21.5763 L55.4814,10.2533 C55.4814,6.4763 52.4104,3.4053 48.6364,3.4053 L10.0034,3.4053 Z M48.6364,33.4013 L10.0034,33.4013 C3.4834,33.4013 -1.8186,28.0963 -1.8186,21.5763 L-1.8186,10.2533 C-1.8186,3.7323 3.4834,-1.5737 10.0034,-1.5737 L48.6364,-1.5737 C55.1544,-1.5737 60.4584,3.7323 60.4584,10.2533 L60.4584,21.5763 C60.4584,28.0963 55.1544,33.4013 48.6364,33.4013 L48.6364,33.4013 Z" id="Fill-8" fill="#000D46" mask="url(#mask-4)"></path>
            </g>
            <g id="Group-13" transform="translate(148.000000, 114.867000)" fill="#000D46">
                <polygon id="Fill-10" points="37.927 9.059 40.416 9.059 40.416 0.913 37.927 0.913"></polygon>
                <polygon id="Fill-12" points="0.556 9.059 3.045 9.059 3.045 0.913 0.556 0.913"></polygon>
            </g>
            <g id="Group-17" transform="translate(155.000000, 82.867000)">
                <mask id="mask-6" fill="white">
                    <use xlink:href="#path-5"></use>
                </mask>
                <g id="Clip-15"></g>
                <polygon id="Fill-14" fill="#FFDABD" mask="url(#mask-6)" points="-2.497 32.026 29.634 32.026 29.634 -2.194 -2.497 -2.194"></polygon>
                <path d="M3.103,15.4053 L3.103,17.4113 C3.103,20.2703 5.393,23.7633 8.004,24.8883 L8.29,25.0343 C8.304,25.0433 10.715,26.4263 13.502,26.4263 C16.309,26.4263 18.832,25.0093 18.857,24.9953 L19.165,24.8443 C21.759,23.7883 24.035,20.3143 24.035,17.4113 L24.035,15.4053 L18.554,15.4053 L18.554,7.9153 C18.554,5.4283 16.541,3.4063 14.065,3.4063 L12.574,3.4063 C10.099,3.4063 8.085,5.4283 8.085,7.9153 L8.085,15.4053 L3.103,15.4053 Z M13.502,31.4033 C9.763,31.4033 6.634,29.8053 5.905,29.4033 C1.532,27.4463 -1.875,22.2103 -1.875,17.4113 L-1.875,10.4263 L3.108,10.4263 L3.108,7.9153 C3.108,2.6843 7.354,-1.5717 12.574,-1.5717 L14.065,-1.5717 C19.285,-1.5717 23.532,2.6843 23.532,7.9153 L23.532,10.4263 L29.012,10.4263 L29.012,17.4113 C29.012,22.2913 25.587,27.5203 21.187,29.3943 C20.429,29.8023 17.223,31.4033 13.502,31.4033 L13.502,31.4033 Z" id="Fill-16" fill="#000E46" mask="url(#mask-6)"></path>
            </g>
            <polygon id="Fill-18" fill="#000B46" points="167.325 111.031 169.813 111.031 169.813 107.532 167.325 107.532"></polygon>
            <g id="Group-22" transform="translate(160.000000, 82.867000)">
                <mask id="mask-8" fill="white">
                    <use xlink:href="#path-7"></use>
                </mask>
                <g id="Clip-21"></g>
                <polygon id="Fill-20" fill="#000000" mask="url(#mask-8)" points="-23.442 11.528 38.585 11.528 38.585 -41.189 -23.442 -41.189"></polygon>
            </g>
            <g id="Group-26" transform="translate(174.000000, 101.867000)">
                <mask id="mask-10" fill="white">
                    <use xlink:href="#path-9"></use>
                </mask>
                <g id="Clip-24"></g>
                <polygon id="Fill-23" fill="#FFFFFF" mask="url(#mask-10)" points="-2.396 10.69 18.706 10.69 18.706 -2.94 -2.396 -2.94"></polygon>
                <path d="M2.5845,2.0371 L2.5815,5.7091 L13.7305,5.7121 L13.7275,2.0401 L2.5845,2.0371 Z M13.7255,9.4451 L2.5845,9.4451 C0.5235,9.4451 -1.1515,7.7691 -1.1515,5.7091 L-1.1515,2.0401 C-1.1515,-0.0199 0.5235,-1.6949 2.5845,-1.6949 L13.7255,-1.6949 C15.7845,-1.6949 17.4605,-0.0199 17.4605,2.0401 L17.4605,5.7091 C17.4605,7.7691 15.7845,9.4451 13.7255,9.4451 L13.7255,9.4451 Z" id="Fill-25" fill="#000E46" mask="url(#mask-10)"></path>
            </g>
            <polygon id="Fill-27" fill="#D6DCE0" points="178.435 106.363 186.447 106.363 186.447 105.119 178.435 105.119"></polygon>
            <g id="Group-31" transform="translate(143.000000, 35.867000)">
                <mask id="mask-12" fill="white">
                    <use xlink:href="#path-11"></use>
                </mask>
                <g id="Clip-30"></g>
                <polygon id="Fill-29" fill="#FBD2AE" mask="url(#mask-12)" points="-2.954 58.528 48.758 58.528 48.758 -2.688 -2.954 -2.688"></polygon>
            </g>
            <path d="M148.0532,73.9656 C148.4202,75.7756 154.7902,90.0386 168.5692,90.0386 C183.2612,90.0386 187.2412,74.5206 187.2672,74.3626 C187.3592,73.6526 187.5222,64.8156 187.2612,61.3086 C186.6282,56.9316 184.7242,54.6736 182.5192,52.0616 C182.2842,51.7836 182.0482,51.5036 181.8122,51.2196 C179.6872,48.6606 175.3542,45.5746 171.2732,43.7136 C169.9162,43.0956 169.0342,42.9656 168.5322,42.9656 C168.0792,42.9656 167.8502,43.0666 167.7662,43.1156 L167.6482,43.2216 C166.5632,44.1806 164.9282,45.1446 163.0342,46.2596 C160.0492,48.0196 156.6662,50.0146 154.6302,52.4646 C152.6472,54.8526 152.0152,57.5206 151.4042,60.1006 C151.0062,61.7776 150.6312,63.3616 149.9092,64.8086 C149.4122,65.8076 148.7512,66.9096 148.0532,67.9856 L148.0532,73.9656 Z M168.5692,92.5276 C152.9372,92.5276 145.5642,76.1796 145.5642,74.0346 L145.5642,71.5826 L144.9782,72.3446 C144.4642,73.0266 144.1332,73.4446 144.1332,73.4446 L142.1702,71.9136 L142.9972,70.8376 C144.2392,69.1926 146.4942,66.0826 147.6822,63.6986 C148.2752,62.5086 148.6182,61.0606 148.9822,59.5266 C149.6282,56.8006 150.3602,53.7116 152.7162,50.8746 C155.0292,48.0906 158.7672,45.8866 161.7712,44.1156 C163.4162,43.1466 164.9742,42.2276 165.8982,41.4446 L177.1872,25.5746 L172.2312,36.7926 C172.1832,36.8996 171.3742,38.7106 169.9602,40.6406 C170.6862,40.7986 171.4712,41.0686 172.3062,41.4486 C176.0132,43.1406 180.9832,46.3256 183.7272,49.6296 C183.9582,49.9086 184.1902,50.1836 184.4202,50.4566 C186.6732,53.1266 189.0032,55.8866 189.7312,60.9976 L189.7402,61.0786 C190.0042,64.5466 189.8652,73.7076 189.7332,74.6996 C189.7082,74.8776 185.3662,92.5276 168.5692,92.5276 L168.5692,92.5276 Z" id="Fill-32" fill="#000D46"></path>
            <g id="Group-36" transform="translate(162.000000, 74.867000)">
                <mask id="mask-14" fill="white">
                    <use xlink:href="#path-13"></use>
                </mask>
                <g id="Clip-35"></g>
                <polygon id="Fill-34" fill="#FFFFFF" mask="url(#mask-14)" points="-2.521 9.529 16.018 9.529 16.018 -2.692 -2.521 -2.692"></polygon>
            </g>
            <g id="Group-45" transform="translate(158.000000, 55.867000)">
                <path d="M5.5278,20.4131 C5.5668,20.6391 5.7988,21.1671 6.4308,21.8871 C7.7118,23.3431 9.6078,24.4841 10.7488,24.4841 C11.7348,24.4841 13.2738,23.5791 14.5778,22.2321 C15.3728,21.4121 15.7628,20.7501 15.9068,20.3851 C15.2988,20.3841 14.3408,20.3781 13.2448,20.3721 C11.6248,20.3621 9.7078,20.3511 8.1948,20.3511 C6.2188,20.3511 5.8058,20.3721 5.7198,20.3801 C5.6318,20.3891 5.5708,20.4011 5.5278,20.4131 M10.7488,26.3501 C7.8138,26.3501 3.7668,22.6371 3.6588,20.4461 C3.6178,19.6101 4.0898,18.6651 5.5378,18.5221 C5.7228,18.5041 6.1848,18.4851 8.1948,18.4851 C9.7118,18.4851 11.6318,18.4961 13.2558,18.5051 C14.4378,18.5121 15.4628,18.5171 16.0528,18.5171 C16.5678,18.5171 16.9888,18.6521 17.3048,18.9181 C17.6498,19.2081 17.8408,19.6361 17.8408,20.1221 C17.8408,22.3221 13.6718,26.3501 10.7488,26.3501" id="Fill-37" fill="#000E46"></path>
                <path d="M10.5688,14.3525 C9.1598,14.3525 7.7878,13.8085 7.7298,13.7855 L8.4248,12.0525 L8.0778,12.9185 L8.4238,12.0525 C8.4348,12.0565 9.5268,12.4855 10.5688,12.4855 C11.6048,12.4855 12.7018,12.0575 12.7128,12.0525 L13.4078,13.7855 C13.3498,13.8085 11.9788,14.3525 10.5688,14.3525" id="Fill-39" fill="#000D46"></path>
                <path d="M1.353,3.1343 L0.112,1.7393 C0.214,1.6493 1.143,0.8423 2.288,0.5363 C3.431,0.2293 4.638,0.4643 4.772,0.4913 L4.394,2.3193 C4.149,2.2703 3.375,2.1773 2.771,2.3393 C2.158,2.5033 1.526,2.9803 1.353,3.1343" id="Fill-41" fill="#000D46"></path>
                <path d="M19.7778,3.1343 C19.5898,2.9693 18.9658,2.5013 18.3608,2.3403 C17.7568,2.1773 16.9808,2.2703 16.7338,2.3203 L16.3588,0.4913 C16.4938,0.4643 17.6978,0.2303 18.8438,0.5363 C19.9868,0.8423 20.9168,1.6493 21.0178,1.7393 L19.7778,3.1343 Z" id="Fill-43" fill="#000D46"></path>
            </g>
            <g id="Group-48" transform="translate(158.000000, 58.867000)">
                <mask id="mask-16" fill="white">
                    <use xlink:href="#path-15"></use>
                </mask>
                <g id="Clip-47"></g>
                <polygon id="Fill-46" fill="#000E46" mask="url(#mask-16)" points="-2.507 9.031 8.698 9.031 8.698 -2.191 -2.507 -2.191"></polygon>
            </g>
            <g id="Group-51" transform="translate(173.000000, 58.867000)">
                <mask id="mask-18" fill="white">
                    <use xlink:href="#path-17"></use>
                </mask>
                <g id="Clip-50"></g>
                <polygon id="Fill-49" fill="#000E46" mask="url(#mask-18)" points="-2.56 9.031 8.645 9.031 8.645 -2.191 -2.56 -2.191"></polygon>
            </g>
            <g id="Group-54" transform="translate(189.000000, 64.867000)">
                <mask id="mask-20" fill="white">
                    <use xlink:href="#path-19"></use>
                </mask>
                <g id="Clip-53"></g>
                <polygon id="Fill-52" fill="#000000" mask="url(#mask-20)" points="-2.616 9.892 8.589 9.892 8.589 -2.692 -2.616 -2.692"></polygon>
            </g>
            <g id="Group-57" transform="translate(189.000000, 63.867000)">
                <mask id="mask-22" fill="white">
                    <use xlink:href="#path-21"></use>
                </mask>
                <g id="Clip-56"></g>
                <polygon id="Fill-55" fill="#FBD2AE" mask="url(#mask-22)" points="-3.092 9.076 7.115 9.076 7.115 -2.235 -3.092 -2.235"></polygon>
            </g>
            <path d="M190.2632,66.0106 L190.2632,68.5616 C190.6522,68.5206 190.9862,68.4316 191.2302,68.3006 C191.5052,68.1536 191.7592,67.9296 191.7592,67.2906 C191.7592,66.9376 191.7592,66.1536 190.2632,66.0106 M189.7662,71.0756 L189.7662,71.0756 C189.2482,71.0756 188.8772,71.0226 188.8362,71.0166 L187.7752,70.8596 L187.7752,63.7106 L188.8392,63.5556 C188.9352,63.5416 190.8512,63.2566 192.3942,64.0786 C193.5892,64.7156 194.2482,65.8566 194.2482,67.2906 C194.2482,68.7206 193.5942,69.8586 192.4052,70.4946 C191.5082,70.9746 190.4762,71.0756 189.7662,71.0756" id="Fill-58" fill="#000E46"></path>
            <g id="Group-63" transform="translate(20.000000, 88.867000)">
                <mask id="mask-24" fill="white">
                    <use xlink:href="#path-23"></use>
                </mask>
                <g id="Clip-61"></g>
                <polygon id="Fill-60" fill="#FFFFFF" mask="url(#mask-24)" points="-2.152 41.411 64.36 41.411 64.36 -2.307 -2.152 -2.307"></polygon>
                <path d="M3.4478,35.8115 L58.7598,35.8115 L58.7598,19.2985 C58.7598,16.1825 56.2928,12.6575 53.3718,11.6005 L30.8618,3.4545 L8.8368,11.5565 C5.9158,12.6315 3.4478,16.1775 3.4478,19.2985 L3.4478,35.8115 Z M63.7378,40.7895 L-1.5302,40.7895 L-1.5302,19.2985 C-1.5302,14.1225 2.2688,8.6695 7.1178,6.8855 L30.8478,-1.8445 L55.0648,6.9185 C59.9278,8.6785 63.7378,14.1165 63.7378,19.2985 L63.7378,40.7895 Z" id="Fill-62" fill="#000E46" mask="url(#mask-24)"></path>
            </g>
            <g id="Group-66" transform="translate(45.000000, 92.867000)">
                <mask id="mask-26" fill="white">
                    <use xlink:href="#path-25"></use>
                </mask>
                <g id="Clip-65"></g>
                <polygon id="Fill-64" fill="#63A5FF" mask="url(#mask-26)" points="-2.737 35.412 14.945 35.412 14.945 -2.308 -2.737 -2.308"></polygon>
            </g>
            <g id="Group-70" transform="translate(44.000000, 106.867000)">
                <mask id="mask-28" fill="white">
                    <use xlink:href="#path-27"></use>
                </mask>
                <g id="Clip-68"></g>
                <polygon id="Fill-67" fill="#25318B" mask="url(#mask-28)" points="-2.235 23.411 16.443 23.411 16.443 -2.809 -2.235 -2.809"></polygon>
                <path d="M3.0957,18.4336 L11.1657,18.4336 L8.7337,2.1696 L5.9327,2.1696 L3.0957,18.4336 Z M15.4987,22.1666 L-1.3443,22.1666 L2.7937,-1.5634 L11.9507,-1.5634 L15.4987,22.1666 Z" id="Fill-69" fill="#001346" mask="url(#mask-28)"></path>
            </g>
            <g id="Group-73" transform="translate(46.000000, 99.867000)">
                <mask id="mask-30" fill="white">
                    <use xlink:href="#path-29"></use>
                </mask>
                <g id="Clip-72"></g>
                <polygon id="Fill-71" fill="#25318B" mask="url(#mask-30)" points="5.3643 -5.585 16.4323 5.483 5.2073 16.709 -5.8607 5.641"></polygon>
            </g>
            <g id="Group-76" transform="translate(46.000000, 99.867000)">
                <mask id="mask-32" fill="white">
                    <use xlink:href="#path-31"></use>
                </mask>
                <g id="Clip-75"></g>
                <path d="M1.3799,5.8457 C2.3759,6.8157 3.8679,7.9117 5.3669,7.9287 L5.4019,9.7957 L5.4019,7.9297 C6.8899,7.9297 8.1799,6.7727 8.9559,5.8767 L5.3079,1.6177 L1.3799,5.8457 Z M5.4019,11.6627 L5.3239,11.6617 C0.8859,11.6107 -2.2991,7.3877 -2.6481,6.9067 L-3.5471,5.6637 L5.4209,-3.9883 L13.6249,5.5877 L12.9519,6.7367 C12.8349,6.9377 10.0139,11.6627 5.4019,11.6627 L5.4019,11.6627 Z" id="Fill-74" fill="#001146" mask="url(#mask-32)"></path>
            </g>
            <g id="Group-80" transform="translate(31.000000, 119.867000)" fill="#000E46">
                <polygon id="Fill-77" points="37.544 5.395 40.033 5.395 40.033 0.802 37.544 0.802"></polygon>
                <polygon id="Fill-79" points="0.174 5.395 2.663 5.395 2.663 0.802 0.174 0.802"></polygon>
            </g>
            <g id="Group-84" transform="translate(43.000000, 81.867000)">
                <mask id="mask-34" fill="white">
                    <use xlink:href="#path-33"></use>
                </mask>
                <g id="Clip-82"></g>
                <polygon id="Fill-81" fill="#FFDABD" mask="url(#mask-34)" points="-2.73 21.415 18.938 21.415 18.938 -2.306 -2.73 -2.306"></polygon>
                <path d="M8.1035,3.2939 C5.2175,3.2939 2.8695,5.6439 2.8695,8.5309 L2.8695,10.5769 C2.8695,13.4659 5.2175,15.8149 8.1035,15.8149 C10.9895,15.8149 13.3375,13.4659 13.3375,10.5769 L13.3375,8.5309 C13.3375,5.6439 10.9895,3.2939 8.1035,3.2939 M8.1035,20.7919 C2.4725,20.7919 -2.1085,16.2099 -2.1085,10.5769 L-2.1085,8.5309 C-2.1085,2.8979 2.4725,-1.6841 8.1035,-1.6841 C13.7345,-1.6841 18.3155,2.8979 18.3155,8.5309 L18.3155,10.5769 C18.3155,16.2099 13.7345,20.7919 8.1035,20.7919" id="Fill-83" fill="#000E46" mask="url(#mask-34)"></path>
            </g>
            <g id="Group-88" transform="translate(21.000000, 18.867000)">
                <mask id="mask-36" fill="white">
                    <use xlink:href="#path-35"></use>
                </mask>
                <g id="Clip-86"></g>
                <polygon id="Fill-85" fill="#FFDBBD" mask="url(#mask-36)" points="-2.156 74.416 59.871 74.416 59.871 -2.298 -2.156 -2.298"></polygon>
                <path d="M28.8579,3.3013 C14.8449,3.3013 3.4439,14.6993 3.4439,28.7103 L3.4439,43.4053 C3.4439,57.4173 14.8449,68.8153 28.8579,68.8153 C42.8709,68.8153 54.2719,57.4173 54.2719,43.4053 L54.2719,28.7103 C54.2719,14.6993 42.8709,3.3013 28.8579,3.3013 M28.8579,73.7933 C12.0999,73.7933 -1.5341,60.1623 -1.5341,43.4053 L-1.5341,28.7103 C-1.5341,11.9553 12.0999,-1.6767 28.8579,-1.6767 C45.6159,-1.6767 59.2499,11.9553 59.2499,28.7103 L59.2499,43.4053 C59.2499,60.1623 45.6159,73.7933 28.8579,73.7933" id="Fill-87" fill="#000E46" mask="url(#mask-36)"></path>
            </g>
            <polygon id="Fill-89" fill="#000E46" points="100.931 127.412 106.162 127.412 106.162 124.923 100.931 124.923"></polygon>
            <g id="Group-93" transform="translate(43.000000, 74.867000)">
                <mask id="mask-38" fill="white">
                    <use xlink:href="#path-37"></use>
                </mask>
                <g id="Clip-92"></g>
                <polygon id="Fill-91" fill="#FFFFFF" mask="url(#mask-38)" points="-2.232 9.917 16.308 9.917 16.308 -2.305 -2.232 -2.305"></polygon>
            </g>
            <path d="M44.8174,76.6678 C44.8564,76.8938 45.0884,77.4218 45.7204,78.1418 C47.0004,79.5988 48.8974,80.7388 50.0374,80.7388 C51.0244,80.7388 52.5624,79.8348 53.8664,78.4878 C54.6614,77.6678 55.0524,77.0048 55.1954,76.6398 C54.5884,76.6388 53.6294,76.6328 52.5344,76.6258 C50.9144,76.6168 48.9974,76.6058 47.4844,76.6058 C45.5084,76.6058 45.0954,76.6258 45.0094,76.6348 C44.9214,76.6438 44.8594,76.6558 44.8174,76.6678 M50.0374,82.6058 C47.1034,82.6058 43.0564,78.8918 42.9484,76.7008 C42.9064,75.8648 43.3784,74.9198 44.8264,74.7758 C45.0014,74.7598 45.4624,74.7398 47.4844,74.7398 C49.0004,74.7398 50.9214,74.7508 52.5444,74.7598 C53.7274,74.7668 54.7514,74.7718 55.3424,74.7718 C55.8574,74.7718 56.2774,74.9068 56.5944,75.1728 C56.9394,75.4628 57.1294,75.8908 57.1294,76.3768 C57.1294,78.5768 52.9604,82.6058 50.0374,82.6058" id="Fill-94" fill="#000E46"></path>
            <g id="Group-98" transform="translate(18.000000, 55.867000)">
                <mask id="mask-40" fill="white">
                    <use xlink:href="#path-39"></use>
                </mask>
                <g id="Clip-97"></g>
                <polygon id="Fill-96" fill="#FFDBBD" mask="url(#mask-40)" points="-2.146 9.075 8.062 9.075 8.062 -2.803 -2.146 -2.803"></polygon>
            </g>
            <path d="M21.7075,57.4764 C20.2095,57.7314 20.2095,58.7734 20.2095,59.1994 C20.2095,59.8934 20.3265,60.5724 21.7075,60.5874 L21.7075,57.4764 Z M21.7535,63.0764 L21.7535,63.0764 C19.2665,63.0764 17.7215,61.5904 17.7215,59.1994 C17.7215,56.5664 19.5325,54.9304 22.4495,54.9304 C22.8495,54.9304 23.1065,54.9654 23.1065,54.9654 L24.1865,55.1094 L24.1965,56.1994 L24.1965,62.6704 L23.2545,62.9064 C23.1855,62.9234 22.5555,63.0764 21.7535,63.0764 L21.7535,63.0764 Z" id="Fill-99" fill="#001146"></path>
            <g id="Group-103" transform="translate(76.000000, 55.867000)">
                <mask id="mask-42" fill="white">
                    <use xlink:href="#path-41"></use>
                </mask>
                <g id="Clip-102"></g>
                <polygon id="Fill-101" fill="#FFDBBD" mask="url(#mask-42)" points="-2.347 9.076 7.861 9.076 7.861 -2.802 -2.347 -2.802"></polygon>
            </g>
            <g id="Group-112" transform="translate(0.000000, 0.867000)">
                <path d="M78.0083,56.6094 L78.0083,59.7204 C79.3893,59.7054 79.5063,59.0264 79.5063,58.3324 C79.5063,57.9064 79.5063,56.8644 78.0083,56.6094 Z M77.9623,62.2094 C77.1603,62.2094 76.5303,62.0564 76.4613,62.0394 L75.5193,61.8034 L75.5193,54.2434 L76.6093,54.0984 C76.6093,54.0984 76.8663,54.0634 77.2663,54.0634 C80.1833,54.0634 81.9943,55.6994 81.9943,58.3324 C81.9943,60.7234 80.4493,62.2094 77.9623,62.2094 Z" id="Fill-104" fill="#001146"></path>
                <path d="M50.3564,72.0508 C46.6784,72.0508 45.8734,69.3478 45.8734,68.3068 L48.3614,68.3068 L47.1174,68.3068 L48.3614,68.2808 C48.3794,68.6658 48.6084,69.5618 50.3564,69.5618 C52.1044,69.5618 52.3334,68.6658 52.3514,68.2808 L54.8394,68.3068 C54.8394,69.3478 54.0334,72.0508 50.3564,72.0508" id="Fill-106" fill="#001346"></path>
                <mask id="mask-44" fill="white">
                    <use xlink:href="#path-43"></use>
                </mask>
                <g id="Clip-109"></g>
                <polygon id="Fill-108" fill="#001146" mask="url(#mask-44)" points="24.696 55.492 30.675 55.492 30.675 53.625 24.696 53.625"></polygon>
                <polygon id="Fill-110" fill="#001146" mask="url(#mask-44)" points="69.041 55.492 75.02 55.492 75.02 53.625 69.041 53.625"></polygon>
                <polygon id="Fill-111" fill="#001346" mask="url(#mask-44)" points="48.115 55.492 51.104 55.492 51.104 53.625 48.115 53.625"></polygon>
            </g>
            <g id="Group-119" transform="translate(51.000000, 51.867000)">
                <g id="Group-115">
                    <mask id="mask-46" fill="white">
                        <use xlink:href="#path-45"></use>
                    </mask>
                    <g id="Clip-114"></g>
                    <polygon id="Fill-113" fill="#FFFFFF" mask="url(#mask-46)" points="-2.758 16.418 20.405 16.418 20.405 -2.303 -2.758 -2.303"></polygon>
                </g>
                <g id="Group-118">
                    <mask id="mask-48" fill="white">
                        <use xlink:href="#path-47"></use>
                    </mask>
                    <g id="Clip-117"></g>
                    <path d="M14.8047,3.293 L2.8437,3.297 L2.8417,10.823 L14.8037,10.818 L14.8087,10.818 L14.8047,3.293 Z M14.8037,15.796 L2.8437,15.796 C0.0977,15.796 -2.1363,13.565 -2.1363,10.823 L-2.1363,3.293 C-2.1363,0.551 0.0977,-1.68 2.8437,-1.68 L14.8037,-1.68 C17.5487,-1.68 19.7827,0.551 19.7827,3.293 L19.7827,10.823 C19.7827,13.565 17.5487,15.796 14.8037,15.796 L14.8037,15.796 Z" id="Fill-116" fill="#001146" mask="url(#mask-48)"></path>
                </g>
            </g>
            <g id="Group-126" transform="translate(31.000000, 51.867000)">
                <g id="Group-122">
                    <mask id="mask-50" fill="white">
                        <use xlink:href="#path-49"></use>
                    </mask>
                    <g id="Clip-121"></g>
                    <polygon id="Fill-120" fill="#FFFFFF" mask="url(#mask-50)" points="-2.689 16.418 20.474 16.418 20.474 -2.303 -2.689 -2.303"></polygon>
                </g>
                <g id="Group-125">
                    <mask id="mask-52" fill="white">
                        <use xlink:href="#path-51"></use>
                    </mask>
                    <g id="Clip-124"></g>
                    <path d="M14.8745,3.293 L2.9135,3.297 L2.9115,10.823 L14.8725,10.818 L14.8785,10.818 L14.8745,3.293 Z M14.8725,15.796 L2.9135,15.796 C0.1675,15.796 -2.0665,13.565 -2.0665,10.823 L-2.0665,3.293 C-2.0665,0.551 0.1675,-1.68 2.9135,-1.68 L14.8725,-1.68 C17.6185,-1.68 19.8525,0.551 19.8525,3.293 L19.8525,10.823 C19.8525,13.565 17.6185,15.796 14.8725,15.796 L14.8725,15.796 Z" id="Fill-123" fill="#001146" mask="url(#mask-52)"></path>
                </g>
            </g>
            <g id="Group-129" transform="translate(37.000000, 56.867000)">
                <mask id="mask-54" fill="white">
                    <use xlink:href="#path-53"></use>
                </mask>
                <g id="Clip-128"></g>
                <polygon id="Fill-127" fill="#001346" mask="url(#mask-54)" points="-2.211 7.419 7.997 7.419 7.997 -2.803 -2.211 -2.803"></polygon>
            </g>
            <g id="Group-132" transform="translate(57.000000, 56.867000)">
                <mask id="mask-56" fill="white">
                    <use xlink:href="#path-55"></use>
                </mask>
                <g id="Clip-131"></g>
                <polygon id="Fill-130" fill="#001346" mask="url(#mask-56)" points="-2.281 7.419 7.927 7.419 7.927 -2.803 -2.281 -2.803"></polygon>
            </g>
            <g id="Group-135" transform="translate(18.000000, 12.867000)">
                <mask id="mask-58" fill="white">
                    <use xlink:href="#path-57"></use>
                </mask>
                <g id="Clip-134"></g>
                <polygon id="Fill-133" fill="#CF894E" mask="url(#mask-58)" points="-3.058 40.717 67.984 40.717 67.984 -2.298 -3.058 -2.298"></polygon>
            </g>
            <g id="Group-146" transform="translate(0.000000, 0.867000)">
                <path d="M71.0029,32.3979 C72.3359,33.3579 74.2739,35.0669 75.2349,37.4089 C76.2969,39.9969 77.4609,44.1409 77.8629,47.0309 C79.5859,45.9169 81.8939,42.9679 81.6039,36.5699 C81.4709,33.6279 80.9599,33.2209 80.9389,33.2049 C80.6909,33.2109 80.3159,33.3329 79.9539,33.4509 C79.3959,33.6319 78.7639,33.8379 78.0769,33.8379 C77.0969,33.8379 76.2489,33.4019 75.6229,32.5759 C74.7999,31.4879 74.4379,30.0659 74.0189,28.4199 C73.1749,25.1059 72.1239,20.9809 66.6519,17.8609 C62.4119,15.4439 55.9629,14.0579 48.9589,14.0579 C43.6429,14.0579 38.6429,14.8969 35.2399,16.3599 C28.0119,19.4679 28.5619,27.2859 28.5889,27.6169 L28.6699,28.6159 L27.7109,28.9119 C25.9579,29.4469 21.1769,31.4489 20.1309,34.2459 C19.1709,36.8149 18.2929,41.5509 21.8699,46.5229 C22.0779,44.9619 22.4779,43.1139 23.2949,41.1219 C24.0479,39.2879 26.3379,33.7069 30.4639,33.7069 C31.7539,33.7069 32.7829,34.5519 34.0859,35.6209 C36.3959,37.5179 39.8869,40.3839 47.3109,40.3839 L47.3139,40.3839 C47.7649,40.3839 48.2319,40.3729 48.7119,40.3509 C58.4569,39.9069 66.0099,33.7069 68.8049,31.0609 L69.8929,29.9689 L71.6979,31.6809 C71.6859,31.6949 71.4459,31.9599 71.0029,32.3979 Z M23.9849,52.4859 L21.9889,50.4829 C15.0419,43.5129 16.7459,36.1969 17.7999,33.3749 C19.1569,29.7449 24.0549,27.5939 26.0949,26.8369 C26.1629,24.2299 27.0379,17.1779 34.2569,14.0729 C38.0129,12.4579 43.2339,11.5689 48.9589,11.5689 C56.3819,11.5689 63.2809,13.0739 67.8849,15.6989 C74.2749,19.3419 75.5209,24.2339 76.4309,27.8049 C76.7829,29.1909 77.0879,30.3869 77.6079,31.0739 C77.8159,31.3499 77.9549,31.3499 78.0769,31.3499 C78.3689,31.3499 78.7829,31.2149 79.1829,31.0849 C79.7299,30.9059 80.2949,30.7219 80.9099,30.7219 C83.8309,30.7219 84.0119,34.7409 84.0899,36.4579 C84.5019,45.5399 80.0489,49.5559 76.9559,50.0389 L75.5199,50.2629 L75.5199,48.8089 C75.5199,46.6749 74.2619,41.5939 72.9329,38.3539 C72.0859,36.2909 70.1529,34.8019 69.1209,34.1209 C65.3799,37.3209 58.0379,42.4169 48.8259,42.8369 C48.3069,42.8609 47.8009,42.8729 47.3139,42.8729 L47.3119,42.8729 C38.9959,42.8729 34.9339,39.5379 32.5059,37.5449 C31.6989,36.8809 30.8629,36.1949 30.4639,36.1949 C28.8339,36.1949 27.1969,38.1709 25.5979,42.0669 C24.3169,45.1889 24.1939,47.8799 24.1129,49.6619 L23.9849,52.4859 Z" id="Fill-136" fill="#001146"></path>
                <path d="M45.0317,50.2554 C45.0067,50.2484 42.5417,49.5534 40.1417,49.5534 C37.7287,49.5534 35.2777,50.2484 35.2527,50.2554 L34.5667,47.8624 C34.6807,47.8304 37.3827,47.0644 40.1417,47.0644 C42.9007,47.0644 45.6027,47.8304 45.7167,47.8624 L45.0317,50.2554 Z" id="Fill-138" fill="#001346"></path>
                <path d="M64.9619,50.2554 C64.9379,50.2484 62.4729,49.5534 60.0719,49.5534 C57.6589,49.5534 55.2079,50.2484 55.1839,50.2554 L54.4979,47.8624 C54.6109,47.8304 57.3139,47.0644 60.0719,47.0644 C62.8319,47.0644 65.5339,47.8304 65.6469,47.8624 L64.9619,50.2554 Z" id="Fill-140" fill="#001346"></path>
                <mask id="mask-60" fill="white">
                    <use xlink:href="#path-59"></use>
                </mask>
                <g id="Clip-143"></g>
                <polygon id="Fill-142" fill="#001146" mask="url(#mask-60)" points="62.065 114.485 68.543 114.485 68.543 112.618 62.065 112.618"></polygon>
                <polygon id="Fill-144" fill="#001146" mask="url(#mask-60)" points="56.586 124.921 59.075 124.921 59.075 93.804 56.586 93.804"></polygon>
                <polygon id="Fill-145" fill="#001146" mask="url(#mask-60)" points="43.133 124.98 45.622 124.98 45.622 93.803 43.133 93.803"></polygon>
            </g>
            <g id="Group-149" transform="translate(33.000000, 13.867000)">
                <mask id="mask-62" fill="white">
                    <use xlink:href="#path-61"></use>
                </mask>
                <g id="Clip-148"></g>
                <polygon id="Fill-147" fill="#B47037" mask="url(#mask-62)" points="-2.924 37.558 51.98 37.558 51.98 -2.339 -2.924 -2.339"></polygon>
            </g>
            <g id="Group-153" transform="translate(78.000000, 97.867000)">
                <mask id="mask-64" fill="white">
                    <use xlink:href="#path-63"></use>
                </mask>
                <g id="Clip-151"></g>
                <polygon id="Fill-150" fill="#F34584" mask="url(#mask-64)" points="-2.195 40.645 75.581 40.645 75.581 -2.91 -2.195 -2.91"></polygon>
                <path d="M10.252,2.6895 C6.477,2.6895 3.405,5.7605 3.405,9.5375 L3.405,28.1975 C3.405,31.9725 6.477,35.0435 10.252,35.0435 L63.134,35.0435 C66.91,35.0435 69.981,31.9725 69.981,28.1975 L69.981,9.5375 C69.981,5.7605 66.91,2.6895 63.134,2.6895 L10.252,2.6895 Z M63.134,40.0225 L10.252,40.0225 C3.732,40.0225 -1.573,34.7175 -1.573,28.1975 L-1.573,9.5375 C-1.573,3.0165 3.732,-2.2885 10.252,-2.2885 L63.134,-2.2885 C69.655,-2.2885 74.959,3.0165 74.959,9.5375 L74.959,28.1975 C74.959,34.7175 69.655,40.0225 63.134,40.0225 L63.134,40.0225 Z" id="Fill-152" fill="#000D46" mask="url(#mask-64)"></path>
            </g>
            <g id="Group-156" transform="translate(98.000000, 86.867000)">
                <mask id="mask-66" fill="white">
                    <use xlink:href="#path-65"></use>
                </mask>
                <g id="Clip-155"></g>
                <polygon id="Fill-154" fill="#FBD2AE" mask="url(#mask-66)" points="-2.907 37.915 36.379 37.915 36.379 -3.11 -2.907 -3.11"></polygon>
            </g>
            <g id="Group-162" transform="translate(0.000000, 0.867000)">
                <path d="M110.9937,87.2451 C110.3857,90.3511 108.3157,98.5571 103.4247,98.5571 C99.4487,98.5571 99.4487,99.0791 99.4487,102.4801 C99.4487,111.8971 106.5017,119.5591 115.1707,119.5591 C123.6387,119.5591 130.0237,112.2171 130.0237,102.4801 C130.0237,98.6721 124.4227,89.2341 122.9047,87.2451 L110.9937,87.2451 Z M115.1707,122.0481 C105.1297,122.0481 96.9597,113.2691 96.9597,102.4801 C96.9597,97.9581 97.8587,96.0671 103.4247,96.0671 C106.2337,96.0671 108.2057,89.1581 108.7207,85.8111 L108.8827,84.7571 L123.4367,84.7571 C123.9387,84.7571 124.7787,84.7571 128.6097,91.8241 C130.3897,95.1091 132.5127,99.6241 132.5127,102.4801 C132.5127,113.6361 125.0567,122.0481 115.1707,122.0481 Z" id="Fill-157" fill="#000D46"></path>
                <mask id="mask-68" fill="white">
                    <use xlink:href="#path-67"></use>
                </mask>
                <g id="Clip-160"></g>
                <polygon id="Fill-159" fill="#000D46" mask="url(#mask-68)" points="113.76 120.417 116.249 120.417 116.249 114.428 113.76 114.428"></polygon>
                <polygon id="Fill-161" fill="#000D46" mask="url(#mask-68)" points="0 134.533 208.586 134.533 208.586 132.044 0 132.044"></polygon>
            </g>
            <g id="Group-165" transform="translate(70.000000, 3.867000)">
                <mask id="mask-70" fill="white">
                    <use xlink:href="#path-69"></use>
                </mask>
                <g id="Clip-164"></g>
                <polygon id="Fill-163" fill="#E87F00" mask="url(#mask-70)" points="-2.968 114.643 90.827 114.643 90.827 -2.867 -2.968 -2.867"></polygon>
            </g>
            <path d="M92.1797,114.1541 L97.4607,114.1541 C103.1167,114.1541 107.9627,105.7491 107.9627,98.8671 L107.9627,89.0771 L109.0417,88.9321 C109.1787,88.9141 112.4167,88.4861 115.2977,88.4861 C118.1697,88.4861 121.8127,88.9121 121.9667,88.9301 L123.0647,89.0591 L123.0647,98.0571 L138.0257,98.0571 C140.5537,98.0571 149.7267,100.1651 150.4277,110.2391 L153.5817,110.2391 C154.5337,110.2391 155.7637,108.7961 156.2727,106.0371 C156.6897,103.7701 156.3907,101.8081 155.8947,98.5561 C155.7407,97.5451 155.5687,96.4141 155.3927,95.1181 C154.6487,89.6161 151.9487,74.4401 151.9217,74.2881 L151.9087,74.1981 C151.8837,73.9491 151.2847,68.0451 151.9087,62.1921 C152.1397,60.0181 152.6717,58.2301 153.2337,56.3361 C154.2407,52.9491 155.3827,49.1091 155.3827,41.4421 C155.3827,31.1481 141.5817,18.9901 134.4667,17.2041 C136.7517,21.4451 137.7817,25.7431 137.8257,25.9291 L135.4397,26.6261 C135.4207,26.5701 133.4737,21.0211 132.0677,18.0051 C131.0547,16.1951 129.9557,14.7241 128.8007,13.6341 C124.5137,9.5911 118.7367,6.6211 113.3457,5.6891 C112.0627,5.4681 110.5157,5.3561 108.7477,5.3561 C104.0087,5.3561 98.5937,6.1661 95.2757,7.3731 C90.9877,8.9321 85.6507,10.8721 79.3057,19.1421 C73.0937,27.2401 72.1567,32.9301 71.7287,38.0641 C71.2947,43.2641 71.2577,44.1551 71.7287,50.0431 C71.9007,52.1951 72.3967,55.8181 72.9717,60.0131 C73.9707,67.3051 75.2127,76.3821 75.2127,81.4661 C75.2127,86.8691 74.0157,95.9421 73.2237,101.9461 C72.9047,104.3691 72.6027,106.6571 72.6027,107.1331 C72.6027,108.4751 73.2777,111.1081 74.8387,111.1081 L92.1797,111.1081 L92.1797,114.1541 Z M97.4607,116.6421 L89.6907,116.6421 L89.6907,113.5971 L74.8387,113.5971 C71.3967,113.5971 70.1137,109.6321 70.1137,107.1331 C70.1137,106.5211 70.3227,104.9111 70.7567,101.6201 C71.5407,95.6801 72.7237,86.7061 72.7237,81.4661 C72.7237,76.5511 71.4937,67.5681 70.5057,60.3511 C69.9267,56.1181 69.4257,52.4641 69.2477,50.2411 C68.7567,44.0991 68.8147,43.0611 69.2477,37.8581 C69.6867,32.5961 70.7087,26.2591 77.3317,17.6271 C84.1177,8.7811 89.8327,6.7031 94.4257,5.0341 C97.9897,3.7371 103.7457,2.8671 108.7477,2.8671 C110.6577,2.8671 112.3467,2.9911 113.7697,3.2371 C119.7107,4.2631 125.8107,7.3931 130.5077,11.8231 C131.3027,12.5731 132.0677,13.4661 132.7957,14.4921 L132.8607,14.4921 C140.3157,14.4921 157.8707,28.5881 157.8707,41.4421 C157.8707,49.4711 156.6227,53.6711 155.6207,57.0461 C155.0677,58.9041 154.5917,60.5091 154.3837,62.4551 C153.8137,67.7991 154.3267,73.3581 154.3797,73.8981 C154.5487,74.8451 157.1307,89.3851 157.8597,94.7851 C158.0327,96.0641 158.2027,97.1811 158.3547,98.1811 C158.8727,101.5711 159.2137,103.8091 158.7207,106.4881 C158.0217,110.2781 156.0057,112.7271 153.5817,112.7271 L147.9807,112.7271 L147.9807,111.4831 C147.9807,107.3601 146.4477,104.2921 143.4237,102.3631 C141.0807,100.8701 138.5317,100.5471 138.0257,100.5471 L120.5757,100.5471 L120.5757,91.2861 C119.2867,91.1601 117.0967,90.9751 115.2977,90.9751 C113.5557,90.9751 111.6217,91.1481 110.4507,91.2731 L110.4507,98.8671 C110.4507,108.0041 104.1377,116.6421 97.4607,116.6421 L97.4607,116.6421 Z" id="Fill-166" fill="#000D46"></path>
            <g id="Group-170" transform="translate(76.000000, 9.867000)">
                <mask id="mask-72" fill="white">
                    <use xlink:href="#path-71"></use>
                </mask>
                <g id="Clip-169"></g>
                <polygon id="Fill-168" fill="#CA6E00" mask="url(#mask-72)" points="-2.746 107.412 83.659 107.412 83.659 -2.645 -2.746 -2.645"></polygon>
            </g>
            <g id="Group-175" transform="translate(90.000000, 122.867000)" fill="#000D46">
                <polygon id="Fill-171" points="130.586 12.533 135.755 12.533 135.755 10.044 130.586 10.044"></polygon>
                <polygon id="Fill-173" points="46.99 10.226 49.478 10.226 49.478 0.089 46.99 0.089"></polygon>
                <polygon id="Fill-174" points="0.323 10.226 2.812 10.226 2.812 0.089 0.323 0.089"></polygon>
            </g>
            <g id="Group-178" transform="translate(84.000000, 23.867000)">
                <mask id="mask-74" fill="white">
                    <use xlink:href="#path-73"></use>
                </mask>
                <g id="Clip-177"></g>
                <polygon id="Fill-176" fill="#FBD2AE" mask="url(#mask-74)" points="-2.595 72.004 60.433 72.004 60.433 -2.954 -2.595 -2.954"></polygon>
            </g>
            <g id="Group-187" transform="translate(83.000000, 14.867000)" fill="#000D46">
                <path d="M7.3193,56.0791 C7.6973,58.2291 15.8283,76.6491 33.3543,76.6491 C51.7663,76.6491 56.8743,56.7901 56.9033,56.5901 C57.0223,55.7021 57.2293,44.6621 56.8993,40.2621 C56.0983,34.7251 53.6923,31.8831 50.9073,28.5931 C50.6143,28.2471 50.3203,27.8991 50.0263,27.5461 C46.8823,23.7731 41.0953,20.0941 36.7553,18.1211 C34.8703,17.2651 33.1933,17.0411 32.0073,17.4561 C31.9703,17.4901 31.9313,17.5241 31.8933,17.5581 C30.5593,18.7321 28.5293,19.9251 26.1783,21.3061 C22.4293,23.5091 18.1793,26.0051 15.6043,29.0961 C13.0813,32.1221 12.2833,35.4781 11.5123,38.7221 C11.0203,40.7921 10.5553,42.7471 9.6703,44.5171 C9.0433,45.7721 8.2033,47.1631 7.3193,48.5171 L7.3193,56.0791 Z M33.3543,79.1391 C13.1773,79.1391 4.8303,57.6411 4.8303,56.1341 L4.8303,52.1771 L3.5483,53.8391 C2.9053,54.6891 2.4903,55.2111 2.4903,55.2111 L0.5303,53.6771 L1.5713,52.3281 C3.1263,50.2741 5.9513,46.3891 7.4443,43.4041 C8.2003,41.8911 8.6333,40.0721 9.0913,38.1461 C9.8903,34.7871 10.7953,30.9781 13.6923,27.5031 C16.5453,24.0791 20.9933,21.4661 24.9173,19.1601 C26.6793,18.1251 28.3603,17.1371 29.5463,16.2541 L29.4603,16.1791 L41.7983,0.0541 L37.5373,9.6621 C37.4763,9.8011 36.3533,12.3051 34.4033,14.8361 C35.4683,14.9761 36.6003,15.3171 37.7843,15.8551 C42.3833,17.9451 48.5413,21.8781 51.9373,25.9531 C52.2283,26.3011 52.5183,26.6441 52.8073,26.9851 C55.5923,30.2751 58.4723,33.6771 59.3683,39.9511 L59.3773,40.0321 C59.7063,44.3291 59.5343,55.6891 59.3703,56.9211 C59.3403,57.1431 53.9613,79.1391 33.3543,79.1391 L33.3543,79.1391 Z" id="Fill-179"></path>
                <path d="M32.0044,51.1567 C30.2884,51.1567 28.6164,50.4957 28.5464,50.4677 L29.2384,48.7347 C29.2524,48.7397 30.6554,49.2897 32.0044,49.2897 C33.3524,49.2897 34.7554,48.7397 34.7704,48.7347 L35.4614,50.4677 C35.3924,50.4957 33.7194,51.1567 32.0044,51.1567" id="Fill-181"></path>
                <path d="M20.3384,37.2568 L19.1024,35.8598 C19.1514,35.8158 20.3234,34.7858 21.7224,34.4108 C23.1204,34.0358 24.6514,34.3408 24.7164,34.3548 L24.3414,36.1838 C24.3324,36.1818 23.1714,35.9548 22.2054,36.2138 C21.2394,36.4728 20.3474,37.2488 20.3384,37.2568" id="Fill-183"></path>
                <path d="M43.6597,37.2554 C43.6527,37.2494 42.7607,36.4724 41.7947,36.2134 C40.8287,35.9554 39.6687,36.1824 39.6557,36.1844 L39.2837,34.3544 C39.3477,34.3404 40.8777,34.0354 42.2767,34.4114 C43.6767,34.7854 44.8487,35.8154 44.8977,35.8594 L43.6597,37.2554 Z" id="Fill-185"></path>
            </g>
            <g id="Group-190" transform="translate(102.000000, 52.867000)">
                <mask id="mask-76" fill="white">
                    <use xlink:href="#path-75"></use>
                </mask>
                <g id="Clip-189"></g>
                <polygon id="Fill-188" fill="#000E46" mask="url(#mask-76)" points="-2.551 9.735 9.893 9.735 9.893 -2.709 -2.551 -2.709"></polygon>
            </g>
            <g id="Group-193" transform="translate(121.000000, 52.867000)">
                <mask id="mask-78" fill="white">
                    <use xlink:href="#path-77"></use>
                </mask>
                <g id="Clip-192"></g>
                <polygon id="Fill-191" fill="#000E46" mask="url(#mask-78)" points="-2.885 9.735 9.559 9.735 9.559 -2.709 -2.885 -2.709"></polygon>
            </g>
            <g id="Group-197" transform="translate(19.000000, 139.867000)" fill="#000E46">
                <polygon id="Fill-194" points="0.529 3 90.818 3 90.818 0.511 0.529 0.511"></polygon>
                <polygon id="Fill-196" points="117.689 3 171.297 3 171.297 0.511 117.689 0.511"></polygon>
            </g>
            <g id="Group-200" transform="translate(107.000000, 71.867000)">
                <mask id="mask-80" fill="white">
                    <use xlink:href="#path-79"></use>
                </mask>
                <g id="Clip-199"></g>
                <polygon id="Fill-198" fill="#FFFFFF" mask="url(#mask-80)" points="-2.573 11.267 19.03 11.267 19.03 -2.421 -2.573 -2.421"></polygon>
            </g>
            <path d="M112.04,73.49 C109.651,73.49 109.064,73.512 108.927,73.527 C108.567,73.562 108.472,73.652 108.471,73.652 C108.451,73.714 108.466,74.153 109.045,74.994 C110.348,76.888 113.332,79.091 115.228,79.091 C116.875,79.091 119.289,77.302 120.724,75.619 C121.601,74.59 121.923,73.853 121.978,73.537 C121.945,73.533 121.903,73.531 121.853,73.531 C121.113,73.531 119.83,73.524 118.347,73.515 C116.325,73.504 113.93,73.49 112.04,73.49 M115.228,80.957 C112.234,80.957 106.755,76.834 106.607,73.825 C106.561,72.888 107.098,71.831 108.744,71.669 C108.957,71.648 109.525,71.624 112.04,71.624 C113.933,71.624 116.332,71.637 118.358,71.649 C119.835,71.657 121.115,71.664 121.853,71.664 C122.438,71.664 122.914,71.814 123.265,72.107 C123.644,72.425 123.852,72.895 123.852,73.433 C123.852,76.024 118.698,80.957 115.228,80.957" id="Fill-201" fill="#000E46"></path>
            <g id="Group-205" transform="translate(142.000000, 59.867000)">
                <mask id="mask-82" fill="white">
                    <use xlink:href="#path-81"></use>
                </mask>
                <g id="Clip-204"></g>
                <polygon id="Fill-203" fill="#000000" mask="url(#mask-82)" points="-2.73 11.275 9.714 11.275 9.714 -2.865 -2.73 -2.865"></polygon>
            </g>
            <g id="Group-208" transform="translate(141.000000, 58.867000)">
                <mask id="mask-84" fill="white">
                    <use xlink:href="#path-83"></use>
                </mask>
                <g id="Clip-207"></g>
                <polygon id="Fill-206" fill="#FBD2AE" mask="url(#mask-84)" points="-2.325 10.013 8.873 10.013 8.873 -2.542 -2.325 -2.542"></polygon>
            </g>
            <path d="M143.0308,60.6878 L143.0308,64.5178 C143.6998,64.4858 144.2828,64.3518 144.6948,64.1318 C145.2718,63.8238 145.5178,63.3678 145.5178,62.6078 C145.5178,62.1508 145.5178,60.7978 143.0308,60.6878 M142.7188,67.0138 L142.7188,67.0138 C142.0938,67.0138 141.6518,66.9508 141.6038,66.9438 L140.5418,66.7868 L140.5418,58.4138 L141.6068,58.2588 C141.7198,58.2428 144.0198,57.9028 145.8528,58.8768 C147.2418,59.6148 148.0068,60.9388 148.0068,62.6078 C148.0068,64.2708 147.2468,65.5918 145.8658,66.3278 C144.8038,66.8948 143.5678,67.0138 142.7188,67.0138" id="Fill-209" fill="#000E46"></path>
            <g id="Group-213" transform="translate(129.000000, 66.867000)">
                <mask id="mask-86" fill="white">
                    <use xlink:href="#path-85"></use>
                </mask>
                <g id="Clip-212"></g>
                <polygon id="Fill-211" fill="#FFBA7E" mask="url(#mask-86)" points="-2.796 5.068 4.671 5.068 4.671 -2.399 -2.796 -2.399"></polygon>
            </g>
            <g id="Group-216" transform="translate(133.000000, 66.867000)">
                <mask id="mask-88" fill="white">
                    <use xlink:href="#path-87"></use>
                </mask>
                <g id="Clip-215"></g>
                <polygon id="Fill-214" fill="#FFBA7E" mask="url(#mask-88)" points="-3.063 5.068 4.404 5.068 4.404 -2.399 -3.063 -2.399"></polygon>
            </g>
            <g id="Group-219" transform="translate(131.000000, 69.867000)">
                <mask id="mask-90" fill="white">
                    <use xlink:href="#path-89"></use>
                </mask>
                <g id="Clip-218"></g>
                <polygon id="Fill-217" fill="#FFBA7E" mask="url(#mask-90)" points="-2.929 4.556 4.537 4.556 4.537 -2.91 -2.929 -2.91"></polygon>
            </g>
            <g id="Group-222" transform="translate(96.000000, 66.867000)">
                <mask id="mask-92" fill="white">
                    <use xlink:href="#path-91"></use>
                </mask>
                <g id="Clip-221"></g>
                <polygon id="Fill-220" fill="#FFBA7E" mask="url(#mask-92)" points="-2.773 5.068 4.693 5.068 4.693 -2.399 -2.773 -2.399"></polygon>
            </g>
            <g id="Group-225" transform="translate(100.000000, 66.867000)">
                <mask id="mask-94" fill="white">
                    <use xlink:href="#path-93"></use>
                </mask>
                <g id="Clip-224"></g>
                <polygon id="Fill-223" fill="#FFBA7E" mask="url(#mask-94)" points="-3.04 5.068 4.427 5.068 4.427 -2.399 -3.04 -2.399"></polygon>
            </g>
            <g id="Group-228" transform="translate(98.000000, 69.867000)">
                <mask id="mask-96" fill="white">
                    <use xlink:href="#path-95"></use>
                </mask>
                <g id="Clip-227"></g>
                <polygon id="Fill-226" fill="#FFBA7E" mask="url(#mask-96)" points="-2.907 4.556 4.56 4.556 4.56 -2.91 -2.907 -2.91"></polygon>
            </g>
        </g>
    </g>
</svg>