<?xml version="1.0" encoding="UTF-8" standalone="no"?>
<svg width="136px" height="161px" viewBox="0 0 136 161" version="1.1" xmlns="http://www.w3.org/2000/svg" xmlns:xlink="http://www.w3.org/1999/xlink">
    <!-- Generator: Sketch 39.1 (31720) - http://www.bohemiancoding.com/sketch -->
    <title>Floor_firework</title>
    <desc>Created with Sketch.</desc>
    <defs>
        <path d="M9.739,0.202 C4.586,0.202 0.404,4.381 0.404,9.537 L0.404,28.197 C0.404,33.359 4.583,37.534 9.739,37.534 L62.622,37.534 C67.775,37.534 71.957,33.353 71.957,28.197 L71.957,9.537 C71.957,4.375 67.778,0.202 62.622,0.202 L9.739,0.202 L9.739,0.202 Z" id="path-1"></path>
        <path d="M12.438,0.001 C12.438,0.001 10.698,11.312 5.912,11.312 C1.127,11.312 0.691,12.483 0.691,16.48 C0.691,26.6 8.288,34.804 17.658,34.804 C27.029,34.804 33.756,26.6 33.756,16.48 C33.756,11.617 26.359,0.001 25.924,0.001 L12.438,0.001 L12.438,0.001 Z" id="path-3"></path>
        <polygon id="path-5" points="0 161 135.568 161 135.568 0.518 0 0.518"></polygon>
        <path d="M25.338,2.337 C20.553,4.077 15.198,6.186 8.807,14.517 C2.415,22.849 1.411,28.874 0.976,34.094 C0.54,39.315 0.492,40.228 0.976,46.276 C1.459,52.323 4.456,69.768 4.456,77.598 C4.456,85.428 1.845,101.526 1.845,103.266 C1.845,105.006 2.716,108.486 5.327,108.486 L21.423,108.486 L21.423,111.531 L27.948,111.531 C33.67,111.531 39.694,103.701 39.694,95 L39.694,86.299 C39.694,86.299 42.953,85.863 45.784,85.863 C48.617,85.863 52.308,86.299 52.308,86.299 L52.308,95.435 L68.514,95.435 C69.758,95.435 79.713,96.74 79.713,107.616 L84.068,107.616 C85.809,107.616 87.392,105.607 87.984,102.395 C88.576,99.184 87.869,96.677 87.114,91.085 C86.358,85.492 83.634,70.202 83.634,70.202 C83.634,70.202 83.016,64.247 83.634,58.456 C84.251,52.667 87.114,49.756 87.114,37.574 C87.114,25.394 69.277,11.037 62.752,11.907 C63.003,12.241 63.317,12.832 63.662,13.569 C66.034,17.827 67.102,22.348 67.102,22.348 C67.102,22.348 65.114,16.668 63.662,13.569 C62.706,11.852 61.538,10.179 60.142,8.862 C55.283,4.278 49.225,1.491 44.045,0.596 C42.65,0.355 40.999,0.244 39.235,0.244 C34.447,0.244 28.835,1.065 25.338,2.337 L25.338,2.337 Z" id="path-7"></path>
        <path d="M25.56,2.559 C20.775,4.298 15.419,6.408 9.029,14.74 C2.637,23.07 1.632,29.096 1.198,34.317 C0.763,39.537 0.714,40.45 1.198,46.497 C1.682,52.544 4.678,69.989 4.678,77.82 C4.678,85.65 -1.574,101.268 2.47,101.268 L15.536,101.268 C16.398,101.268 16.661,102.123 16.661,102.398 L16.661,104.294 L21.471,104.294 C21.471,104.294 26.379,104.723 29.847,98.467 C30.914,96.544 32.459,92.882 32.459,89.474 L32.459,82.297 L33.694,82.372 L33.694,80.299 C33.694,80.299 36.953,79.863 39.784,79.863 C42.617,79.863 46.308,80.299 46.308,80.299 L46.308,83.145 L47.581,83.223 L47.581,88.198 C47.581,88.198 57.254,88.067 61.651,88.198 C68.173,88.367 74.48,92.469 74.914,100.385 L76.839,100.385 C77.648,100.385 78.196,100.55 78.911,100.061 C79.624,99.57 80.454,97.995 80.752,96.282 C81.272,93.295 80.956,92.708 80.752,91.213 C80.549,89.717 77.573,70.627 77.573,70.627 C77.573,70.627 75.394,59.496 76.219,53.518 C77.044,47.541 76.49,51.293 78.248,44.465 C78.735,42.568 79.284,39.916 79.624,37.179 C79.782,35.915 81.63,28.901 76.117,21.194 C70.606,13.488 63.046,8.396 58.964,7.374 C60.221,9.572 61.581,13.498 62.327,16.046 C62.327,16.046 62.506,17.117 61.651,17.453 C60.796,17.787 60.096,17.453 59.895,16.688 C58.693,13.632 57.948,11.353 56.869,8.913 C55.79,6.474 55.323,6.173 54.924,5.631 C53.888,4.224 49.448,1.713 44.267,0.819 C42.873,0.578 41.221,0.467 39.457,0.467 C34.668,0.467 29.058,1.287 25.56,2.559 L25.56,2.559 Z" id="path-9"></path>
        <path d="M28.936,7.936 C28.936,7.936 29.221,7.639 29.828,7.381 C32.977,4.465 34.887,0.158 34.887,0.158 L28.936,7.936 L28.936,7.936 Z M29.828,7.381 C29.739,7.463 29.649,7.544 29.559,7.624 C26.249,10.536 17.486,14.079 13.135,19.3 C8.786,24.52 9.22,30.611 7.045,34.961 C5.499,38.053 2.593,42.043 1.042,44.092 L4.563,39.526 L4.563,47.135 C4.563,48.551 12.971,68.894 31.843,68.894 C50.713,68.894 56.438,49.155 56.624,47.757 C56.773,46.645 56.953,35.418 56.624,31.127 C55.692,24.594 52.581,21.482 49.469,17.749 C46.358,14.016 40.543,10.164 35.758,7.989 C34.136,7.251 32.83,7.008 31.812,7.008 C30.95,7.008 30.294,7.183 29.828,7.381 L29.828,7.381 Z M0.003,45.438 C0.003,45.438 0.41,44.925 1.042,44.092 L0.003,45.438 L0.003,45.438 Z" id="path-11"></path>
        <path d="M0.048,3.513 C0.048,5.231 1.441,6.623 3.159,6.623 C4.877,6.623 6.269,5.231 6.269,3.513 C6.269,1.794 4.877,0.401 3.159,0.401 C1.441,0.401 0.048,1.794 0.048,3.513 L0.048,3.513 Z" id="path-13"></path>
        <path d="M0.714,3.513 C0.714,5.231 2.107,6.623 3.825,6.623 C5.543,6.623 6.936,5.231 6.936,3.513 C6.936,1.794 5.543,0.401 3.825,0.401 C2.107,0.401 0.714,1.794 0.714,3.513 L0.714,3.513 Z" id="path-15"></path>
        <path d="M1.323,0.731 C-2.771,1.135 3.781,8.157 7.716,8.157 C11.651,8.157 17.924,0.731 14.34,0.731 C12.59,0.731 7.802,0.69 4.528,0.69 C2.891,0.69 1.633,0.7 1.323,0.731 L1.323,0.731 Z" id="path-17"></path>
        <path d="M0.869,0.313 L0.869,8.094 C0.869,8.094 7.091,9.012 7.091,4.211 C7.091,0.723 3.806,0.246 2.01,0.246 C1.334,0.246 0.869,0.313 0.869,0.313 L0.869,0.313 Z" id="path-19"></path>
        <path d="M0.273,0.623 L0.273,6.846 C0.273,6.846 5.25,7.58 5.25,3.74 C5.25,0.95 2.622,0.569 1.185,0.569 C0.645,0.569 0.273,0.623 0.273,0.623 L0.273,0.623 Z" id="path-21"></path>
    </defs>
    <g id="Prototype-3.0" stroke="none" stroke-width="1" fill="none" fill-rule="evenodd">
        <g id="Gefeliciteerd" transform="translate(-92.000000, -27.000000)">
            <g id="Floor_firework" transform="translate(92.000000, 26.000000)">
                <g id="Group-158" transform="translate(0.000000, 0.482000)">
                    <path d="M72.9478,12.3247 C72.2058,12.3247 71.6028,11.7217 71.6028,10.9797 L71.6028,9.5777 C71.6028,8.8347 72.2058,8.2327 72.9478,8.2327 C73.6908,8.2327 74.2938,8.8347 74.2938,9.5777 L74.2938,10.9797 C74.2938,11.7217 73.6908,12.3247 72.9478,12.3247" id="Fill-1" fill="#4CCEAD"></path>
                    <path d="M72.9478,19.4932 C72.2058,19.4932 71.6028,18.8902 71.6028,18.1482 L71.6028,16.7462 C71.6028,16.0042 72.2058,15.4012 72.9478,15.4012 C73.6908,15.4012 74.2938,16.0042 74.2938,16.7462 L74.2938,18.1482 C74.2938,18.8902 73.6908,19.4932 72.9478,19.4932" id="Fill-3" fill="#4CCEAD"></path>
                    <path d="M77.2334,15.2085 L75.8314,15.2085 C75.0884,15.2085 74.4864,14.6055 74.4864,13.8635 C74.4864,13.1205 75.0884,12.5185 75.8314,12.5185 L77.2334,12.5185 C77.9764,12.5185 78.5784,13.1205 78.5784,13.8635 C78.5784,14.6055 77.9764,15.2085 77.2334,15.2085" id="Fill-5" fill="#4CCEAD"></path>
                    <path d="M70.0645,15.2085 L68.6625,15.2085 C67.9195,15.2085 67.3175,14.6055 67.3175,13.8635 C67.3175,13.1205 67.9195,12.5185 68.6625,12.5185 L70.0645,12.5185 C70.8075,12.5185 71.4095,13.1205 71.4095,13.8635 C71.4095,14.6055 70.8075,15.2085 70.0645,15.2085" id="Fill-7" fill="#4CCEAD"></path>
                    <path d="M15.8516,43.6216 C15.1096,43.6216 14.5066,43.0186 14.5066,42.2766 L14.5066,40.8746 C14.5066,40.1316 15.1096,39.5296 15.8516,39.5296 C16.5946,39.5296 17.1976,40.1316 17.1976,40.8746 L17.1976,42.2766 C17.1976,43.0186 16.5946,43.6216 15.8516,43.6216" id="Fill-9" fill="#F8B239"></path>
                    <path d="M15.8516,50.79 C15.1096,50.79 14.5066,50.187 14.5066,49.445 L14.5066,48.043 C14.5066,47.301 15.1096,46.698 15.8516,46.698 C16.5946,46.698 17.1976,47.301 17.1976,48.043 L17.1976,49.445 C17.1976,50.187 16.5946,50.79 15.8516,50.79" id="Fill-11" fill="#F8B239"></path>
                    <path d="M20.1372,46.5054 L18.7352,46.5054 C17.9922,46.5054 17.3902,45.9024 17.3902,45.1604 C17.3902,44.4174 17.9922,43.8154 18.7352,43.8154 L20.1372,43.8154 C20.8802,43.8154 21.4822,44.4174 21.4822,45.1604 C21.4822,45.9024 20.8802,46.5054 20.1372,46.5054" id="Fill-13" fill="#F8B239"></path>
                    <path d="M12.9683,46.5054 L11.5663,46.5054 C10.8233,46.5054 10.2213,45.9024 10.2213,45.1604 C10.2213,44.4174 10.8233,43.8154 11.5663,43.8154 L12.9683,43.8154 C13.7113,43.8154 14.3133,44.4174 14.3133,45.1604 C14.3133,45.9024 13.7113,46.5054 12.9683,46.5054" id="Fill-15" fill="#F8B239"></path>
                    <path d="M120.4502,56.3828 C119.7082,56.3828 119.1052,55.7798 119.1052,55.0368 L119.1052,53.6368 C119.1052,52.8928 119.7082,52.2908 120.4502,52.2908 C121.1932,52.2908 121.7962,52.8928 121.7962,53.6368 L121.7962,55.0368 C121.7962,55.7798 121.1932,56.3828 120.4502,56.3828" id="Fill-17" fill="#63A5FF"></path>
                    <path d="M120.4502,63.5508 C119.7082,63.5508 119.1052,62.9488 119.1052,62.2058 L119.1052,60.8048 C119.1052,60.0628 119.7082,59.4588 120.4502,59.4588 C121.1932,59.4588 121.7962,60.0628 121.7962,60.8048 L121.7962,62.2058 C121.7962,62.9488 121.1932,63.5508 120.4502,63.5508" id="Fill-19" fill="#63A5FF"></path>
                    <path d="M124.7358,59.2666 L123.3338,59.2666 C122.5908,59.2666 121.9888,58.6636 121.9888,57.9216 C121.9888,57.1776 122.5908,56.5766 123.3338,56.5766 L124.7358,56.5766 C125.4788,56.5766 126.0808,57.1776 126.0808,57.9216 C126.0808,58.6636 125.4788,59.2666 124.7358,59.2666" id="Fill-21" fill="#63A5FF"></path>
                    <path d="M117.5669,59.2666 L116.1649,59.2666 C115.4219,59.2666 114.8199,58.6636 114.8199,57.9216 C114.8199,57.1776 115.4219,56.5766 116.1649,56.5766 L117.5669,56.5766 C118.3099,56.5766 118.9119,57.1776 118.9119,57.9216 C118.9119,58.6636 118.3099,59.2666 117.5669,59.2666" id="Fill-23" fill="#63A5FF"></path>
                    <path d="M128.6411,141.6836 C128.1961,141.2386 127.4741,141.2386 127.0291,141.6836 C126.5841,142.1266 126.5841,142.8496 127.0291,143.2946 L129.1181,145.3846 C129.3401,145.6076 129.6321,145.7186 129.9231,145.7186 C130.2151,145.7186 130.5061,145.6076 130.7281,145.3846 C131.1741,144.9416 131.1741,144.2186 130.7281,143.7736 L128.6411,141.6836 Z" id="Fill-25" fill="#4CCEAD"></path>
                    <path d="M104.271,120.5371 C104.494,120.7601 104.786,120.8701 105.077,120.8701 C105.368,120.8701 105.66,120.7601 105.882,120.5371 C106.327,120.0921 106.327,119.3701 105.882,118.9251 L94.888,107.9311 C94.442,107.4851 93.721,107.4851 93.276,107.9311 C92.831,108.3761 92.831,109.0981 93.276,109.5431 L104.271,120.5371 Z" id="Fill-27" fill="#4CCEAD"></path>
                    <path d="M132.4082,131.5059 L125.6762,129.7009 C125.0652,129.5409 124.4422,129.8989 124.2782,130.5079 C124.1152,131.1159 124.4762,131.7419 125.0832,131.9039 L131.8152,133.7089 C131.9152,133.7359 132.0132,133.7469 132.1122,133.7469 C132.6142,133.7469 133.0752,133.4119 133.2132,132.9019 C133.3762,132.2949 133.0152,131.6699 132.4082,131.5059" id="Fill-29" fill="#4CCEAD"></path>
                    <path d="M95.0928,123.8262 C95.5958,123.8262 96.0568,123.4912 96.1948,122.9822 C96.3578,122.3742 95.9968,121.7482 95.3868,121.5862 L91.4088,120.5212 C90.8128,120.3602 90.1778,120.7202 90.0128,121.3262 C89.8508,121.9352 90.2118,122.5602 90.8208,122.7222 L94.7988,123.7882 C94.8968,123.8142 94.9948,123.8262 95.0928,123.8262" id="Fill-31" fill="#4CCEAD"></path>
                    <path d="M135.5288,121.3262 C135.3638,120.7192 134.7498,120.3592 134.1308,120.5212 L116.5858,125.2222 L121.5798,120.2262 C122.0248,119.7812 122.0248,119.0602 121.5798,118.6152 C121.1338,118.1702 120.4128,118.1702 119.9668,118.6152 L114.9728,123.6102 L117.5718,113.9092 C117.7348,113.3022 117.3738,112.6762 116.7668,112.5132 C116.1528,112.3542 115.5358,112.7122 115.3688,113.3202 L112.7708,123.0172 L111.2878,117.4872 C111.1238,116.8772 110.5088,116.5212 109.8898,116.6802 C109.2818,116.8442 108.9218,117.4692 109.0848,118.0762 L110.5678,123.6102 L109.0218,122.0642 C108.5758,121.6192 107.8548,121.6192 107.4098,122.0642 C106.9648,122.5102 106.9648,123.2312 107.4098,123.6762 L108.9548,125.2222 L98.5608,122.4362 C97.9478,122.2732 97.3268,122.6352 97.1618,123.2422 C96.9998,123.8512 97.3608,124.4762 97.9688,124.6392 L108.3658,127.4262 L102.8148,128.9122 C102.2068,129.0752 101.8468,129.7002 102.0098,130.3082 C102.1478,130.8182 102.6088,131.1532 103.1118,131.1532 C103.2098,131.1532 103.3078,131.1402 103.4078,131.1152 L108.9588,129.6272 L95.9608,142.6252 C95.5158,143.0692 95.5158,143.7912 95.9608,144.2362 C96.1828,144.4592 96.4748,144.5692 96.7668,144.5692 C97.0578,144.5692 97.3498,144.4592 97.5718,144.2362 L110.5658,131.2412 L108.7118,138.1632 C108.5498,138.7712 108.9098,139.3962 109.5168,139.5582 C109.6178,139.5862 109.7158,139.5972 109.8138,139.5972 C110.3168,139.5972 110.7778,139.2632 110.9158,138.7522 L112.7708,131.8322 L113.2018,133.4432 C113.3408,133.9522 113.8008,134.2882 114.3038,134.2882 C114.4018,134.2882 114.4998,134.2752 114.5998,134.2482 C115.2078,134.0862 115.5688,133.4612 115.4058,132.8522 L114.9738,131.2402 L124.4558,140.7212 C124.6778,140.9432 124.9698,141.0552 125.2608,141.0552 C125.5528,141.0552 125.8438,140.9432 126.0668,140.7212 C126.5118,140.2762 126.5118,139.5552 126.0668,139.1092 L116.5828,129.6262 L121.3368,130.9002 C121.4358,130.9282 121.5348,130.9382 121.6328,130.9382 C122.1358,130.9382 122.5958,130.6032 122.7338,130.0942 C122.8968,129.4852 122.5358,128.8602 121.9288,128.6972 L117.1758,127.4262 L134.7228,122.7232 C135.3308,122.5602 135.6918,121.9352 135.5288,121.3262" id="Fill-33" fill="#4CCEAD"></path>
                    <path d="M100.4751,130.7207 C100.3101,130.1117 99.6831,129.7517 99.0791,129.9137 L92.6011,131.6497 C91.9911,131.8127 91.6311,132.4377 91.7931,133.0447 C91.9321,133.5547 92.3921,133.8907 92.8951,133.8907 C92.9931,133.8907 93.0911,133.8787 93.1891,133.8517 L99.6671,132.1167 C100.2771,131.9527 100.6381,131.3277 100.4751,130.7207" id="Fill-35" fill="#4CCEAD"></path>
                    <path d="M123.7607,117.5723 C124.0527,117.5723 124.3447,117.4613 124.5667,117.2383 L130.6207,111.1833 C131.0667,110.7383 131.0667,110.0163 130.6207,109.5713 C130.1757,109.1263 129.4547,109.1263 129.0097,109.5713 L122.9547,115.6273 C122.5097,116.0723 122.5097,116.7933 122.9547,117.2383 C123.1777,117.4613 123.4687,117.5723 123.7607,117.5723" id="Fill-37" fill="#4CCEAD"></path>
                    <path d="M117.8169,108.584 C117.9179,108.611 118.0149,108.623 118.1129,108.623 C118.6159,108.623 119.0769,108.287 119.2129,107.779 L119.5339,106.588 C119.6989,105.98 119.3379,105.355 118.7299,105.191 C118.1199,105.033 117.4959,105.39 117.3349,105.996 L117.0139,107.188 C116.8489,107.795 117.2099,108.42 117.8169,108.584" id="Fill-39" fill="#4CCEAD"></path>
                    <path d="M108.9956,141.5254 C108.3856,141.3644 107.7646,141.7214 107.5976,142.3314 L105.8656,148.7874 C105.7026,149.3944 106.0636,150.0204 106.6706,150.1834 C106.7706,150.2114 106.8696,150.2214 106.9676,150.2214 C107.4706,150.2214 107.9306,149.8864 108.0686,149.3774 L109.8006,142.9214 C109.9636,142.3124 109.6026,141.6884 108.9956,141.5254" id="Fill-41" fill="#4CCEAD"></path>
                    <path d="M108.2178,114.8437 C108.3568,115.3537 108.8168,115.6897 109.3198,115.6897 C109.4178,115.6897 109.5158,115.6767 109.6158,115.6507 C110.2238,115.4887 110.5848,114.8627 110.4218,114.2537 L108.0688,105.4727 C107.9038,104.8637 107.2858,104.5047 106.6708,104.6657 C106.0628,104.8277 105.7028,105.4537 105.8648,106.0627 L108.2178,114.8437 Z" id="Fill-43" fill="#4CCEAD"></path>
                    <path d="M116.3413,136.3418 C116.1763,135.7328 115.5493,135.3728 114.9453,135.5348 C114.3353,135.6968 113.9753,136.3218 114.1373,136.9308 L116.7913,146.8368 C116.9293,147.3458 117.3893,147.6818 117.8933,147.6818 C117.9903,147.6818 118.0893,147.6688 118.1873,147.6428 C118.7973,147.4808 119.1573,146.8548 118.9943,146.2458 L116.3413,136.3418 Z" id="Fill-45" fill="#4CCEAD"></path>
                    <path d="M118.8813,45.3096 C118.4363,44.8636 117.7143,44.8636 117.2693,45.3096 C116.8243,45.7526 116.8243,46.4756 117.2693,46.9206 L119.3583,49.0116 C119.5803,49.2336 119.8723,49.3446 120.1633,49.3446 C120.4553,49.3446 120.7463,49.2336 120.9683,49.0116 C121.4143,48.5676 121.4143,47.8446 120.9683,47.3996 L118.8813,45.3096 Z" id="Fill-47" fill="#E44034"></path>
                    <path d="M94.5112,24.1626 C94.7342,24.3856 95.0262,24.4956 95.3172,24.4956 C95.6082,24.4956 95.9002,24.3856 96.1222,24.1626 C96.5672,23.7176 96.5672,22.9956 96.1222,22.5506 L85.1282,11.5566 C84.6822,11.1116 83.9612,11.1116 83.5162,11.5566 C83.0712,12.0016 83.0712,12.7236 83.5162,13.1686 L94.5112,24.1626 Z" id="Fill-49" fill="#E44034"></path>
                    <path d="M122.6484,35.1323 L115.9164,33.3273 C115.3054,33.1663 114.6824,33.5243 114.5184,34.1333 C114.3554,34.7423 114.7164,35.3673 115.3234,35.5293 L122.0554,37.3353 C122.1554,37.3613 122.2534,37.3733 122.3524,37.3733 C122.8544,37.3733 123.3154,37.0383 123.4534,36.5283 C123.6164,35.9213 123.2554,35.2953 122.6484,35.1323" id="Fill-51" fill="#E44034"></path>
                    <path d="M85.333,27.4526 C85.836,27.4526 86.297,27.1176 86.435,26.6076 C86.598,25.9996 86.237,25.3746 85.627,25.2116 L81.649,24.1466 C81.053,23.9866 80.418,24.3456 80.253,24.9526 C80.091,25.5606 80.452,26.1856 81.061,26.3486 L85.039,27.4136 C85.137,27.4406 85.235,27.4526 85.333,27.4526" id="Fill-53" fill="#E44034"></path>
                    <path d="M125.769,24.9526 C125.604,24.3446 124.99,23.9846 124.371,24.1466 L106.826,28.8476 L111.82,23.8526 C112.265,23.4076 112.265,22.6866 111.82,22.2416 C111.374,21.7966 110.653,21.7966 110.207,22.2416 L105.213,27.2366 L107.812,17.5356 C107.975,16.9276 107.614,16.3026 107.007,16.1396 C106.393,15.9806 105.776,16.3376 105.609,16.9456 L103.011,26.6436 L101.528,21.1136 C101.364,20.5026 100.749,20.1466 100.13,20.3066 C99.522,20.4696 99.162,21.0946 99.325,21.7026 L100.808,27.2366 L99.262,25.6906 C98.816,25.2456 98.095,25.2456 97.65,25.6906 C97.205,26.1356 97.205,26.8576 97.65,27.3026 L99.195,28.8476 L88.801,26.0626 C88.188,25.8986 87.567,26.2616 87.402,26.8686 C87.24,27.4766 87.601,28.1016 88.209,28.2646 L98.606,31.0516 L93.055,32.5386 C92.447,32.7016 92.087,33.3266 92.25,33.9346 C92.388,34.4446 92.849,34.7796 93.352,34.7796 C93.45,34.7796 93.548,34.7666 93.648,34.7406 L99.199,33.2536 L86.201,46.2506 C85.756,46.6956 85.756,47.4176 86.201,47.8626 C86.423,48.0846 86.715,48.1956 87.007,48.1956 C87.298,48.1956 87.59,48.0846 87.812,47.8626 L100.806,34.8676 L98.952,41.7886 C98.79,42.3966 99.15,43.0226 99.757,43.1846 C99.858,43.2116 99.956,43.2236 100.054,43.2236 C100.557,43.2236 101.018,42.8886 101.156,42.3786 L103.011,35.4576 L103.442,37.0686 C103.581,37.5776 104.041,37.9136 104.544,37.9136 C104.642,37.9136 104.74,37.9016 104.84,37.8746 C105.448,37.7126 105.809,37.0866 105.646,36.4786 L105.214,34.8666 L114.696,44.3466 C114.918,44.5696 115.21,44.6806 115.501,44.6806 C115.793,44.6806 116.084,44.5696 116.307,44.3466 C116.752,43.9026 116.752,43.1806 116.307,42.7356 L106.823,33.2516 L111.577,34.5266 C111.676,34.5536 111.775,34.5646 111.873,34.5646 C112.376,34.5646 112.836,34.2286 112.974,33.7196 C113.137,33.1116 112.776,32.4866 112.169,32.3236 L107.416,31.0516 L124.963,26.3496 C125.571,26.1856 125.932,25.5606 125.769,24.9526" id="Fill-55" fill="#E44034"></path>
                    <path d="M90.7153,34.3462 C90.5503,33.7372 89.9233,33.3772 89.3193,33.5392 L82.8413,35.2752 C82.2313,35.4382 81.8713,36.0632 82.0333,36.6712 C82.1723,37.1812 82.6323,37.5162 83.1353,37.5162 C83.2333,37.5162 83.3313,37.5042 83.4293,37.4772 L89.9073,35.7422 C90.5173,35.5792 90.8783,34.9532 90.7153,34.3462" id="Fill-57" fill="#E44034"></path>
                    <path d="M114.001,21.1982 C114.293,21.1982 114.585,21.0872 114.807,20.8652 L120.861,14.8092 C121.307,14.3642 121.307,13.6422 120.861,13.1972 C120.416,12.7522 119.695,12.7522 119.25,13.1972 L113.195,19.2532 C112.75,19.6982 112.75,20.4192 113.195,20.8652 C113.418,21.0872 113.709,21.1982 114.001,21.1982" id="Fill-59" fill="#E44034"></path>
                    <path d="M108.0571,12.21 C108.1581,12.237 108.2551,12.249 108.3531,12.249 C108.8561,12.249 109.3171,11.914 109.4531,11.405 L109.7741,10.214 C109.9391,9.606 109.5781,8.981 108.9701,8.817 C108.3601,8.659 107.7361,9.016 107.5751,9.622 L107.2541,10.813 C107.0891,11.42 107.4501,12.046 108.0571,12.21" id="Fill-61" fill="#E44034"></path>
                    <path d="M99.2358,45.1514 C98.6258,44.9904 98.0048,45.3474 97.8378,45.9574 L96.1058,52.4134 C95.9428,53.0204 96.3038,53.6464 96.9108,53.8094 C97.0108,53.8364 97.1098,53.8474 97.2078,53.8474 C97.7108,53.8474 98.1708,53.5134 98.3088,53.0034 L100.0408,46.5474 C100.2038,45.9394 99.8428,45.3144 99.2358,45.1514" id="Fill-63" fill="#E44034"></path>
                    <path d="M98.458,18.4702 C98.597,18.9802 99.057,19.3152 99.56,19.3152 C99.658,19.3152 99.756,19.3032 99.856,19.2762 C100.464,19.1142 100.825,18.4882 100.662,17.8802 L98.309,9.0982 C98.144,8.4892 97.526,8.1312 96.911,8.2922 C96.303,8.4542 95.943,9.0802 96.105,9.6882 L98.458,18.4702 Z" id="Fill-65" fill="#E44034"></path>
                    <path d="M106.5815,39.9673 C106.4165,39.3583 105.7895,38.9993 105.1855,39.1603 C104.5755,39.3233 104.2155,39.9483 104.3775,40.5563 L107.0315,50.4633 C107.1695,50.9723 107.6295,51.3073 108.1335,51.3073 C108.2305,51.3073 108.3295,51.2953 108.4275,51.2683 C109.0375,51.1063 109.3975,50.4803 109.2345,49.8723 L106.5815,39.9673 Z" id="Fill-67" fill="#E44034"></path>
                    <path d="M40.3633,90.8799 C39.9183,90.4339 39.1963,90.4339 38.7513,90.8799 C38.3063,91.3229 38.3063,92.0449 38.7513,92.4909 L40.8403,94.5809 C41.0623,94.8039 41.3543,94.9139 41.6453,94.9139 C41.9373,94.9139 42.2283,94.8039 42.4503,94.5809 C42.8963,94.1379 42.8963,93.4139 42.4503,92.9699 L40.3633,90.8799 Z" id="Fill-69" fill="#63A5FF"></path>
                    <path d="M15.9932,69.7324 C16.2162,69.9554 16.5082,70.0654 16.7992,70.0654 C17.0902,70.0654 17.3822,69.9554 17.6042,69.7324 C18.0492,69.2874 18.0492,68.5654 17.6042,68.1204 L6.6102,57.1264 C6.1642,56.6814 5.4432,56.6814 4.9982,57.1264 C4.5532,57.5714 4.5532,58.2934 4.9982,58.7384 L15.9932,69.7324 Z" id="Fill-71" fill="#63A5FF"></path>
                    <path d="M44.1304,80.7021 L37.3984,78.8971 C36.7874,78.7361 36.1644,79.0941 36.0004,79.7031 C35.8374,80.3121 36.1984,80.9371 36.8054,81.0991 L43.5374,82.9041 C43.6374,82.9311 43.7354,82.9421 43.8344,82.9421 C44.3364,82.9421 44.7974,82.6081 44.9354,82.0981 C45.0984,81.4901 44.7374,80.8651 44.1304,80.7021" id="Fill-73" fill="#63A5FF"></path>
                    <path d="M6.8149,73.0225 C7.3179,73.0225 7.7789,72.6875 7.9169,72.1775 C8.0799,71.5695 7.7189,70.9445 7.1089,70.7815 L3.1309,69.7165 C2.5349,69.5565 1.8999,69.9155 1.7349,70.5225 C1.5729,71.1305 1.9339,71.7555 2.5429,71.9185 L6.5209,72.9835 C6.6189,73.0105 6.7169,73.0225 6.8149,73.0225" id="Fill-75" fill="#63A5FF"></path>
                    <path d="M47.251,70.5225 C47.086,69.9145 46.472,69.5545 45.853,69.7165 L28.308,74.4175 L33.302,69.4225 C33.747,68.9775 33.747,68.2565 33.302,67.8115 C32.856,67.3665 32.135,67.3665 31.689,67.8115 L26.695,72.8065 L29.294,63.1055 C29.457,62.4975 29.096,61.8725 28.489,61.7095 C27.875,61.5505 27.258,61.9075 27.091,62.5155 L24.493,72.2135 L23.01,66.6835 C22.846,66.0725 22.231,65.7165 21.612,65.8765 C21.004,66.0395 20.644,66.6645 20.807,67.2725 L22.29,72.8065 L20.744,71.2605 C20.298,70.8155 19.577,70.8155 19.132,71.2605 C18.687,71.7055 18.687,72.4275 19.132,72.8725 L20.677,74.4175 L10.283,71.6325 C9.67,71.4685 9.049,71.8315 8.884,72.4385 C8.722,73.0465 9.083,73.6715 9.691,73.8345 L20.088,76.6215 L14.537,78.1085 C13.929,78.2715 13.569,78.8965 13.732,79.5045 C13.87,80.0145 14.331,80.3495 14.834,80.3495 C14.932,80.3495 15.03,80.3365 15.13,80.3105 L20.681,78.8235 L7.683,91.8215 C7.238,92.2645 7.238,92.9875 7.683,93.4325 C7.905,93.6555 8.197,93.7645 8.489,93.7645 C8.78,93.7645 9.072,93.6555 9.294,93.4325 L22.288,80.4375 L20.434,87.3585 C20.272,87.9665 20.632,88.5925 21.239,88.7545 C21.34,88.7825 21.438,88.7935 21.536,88.7935 C22.039,88.7935 22.5,88.4585 22.638,87.9485 L24.493,81.0275 L24.924,82.6385 C25.063,83.1475 25.523,83.4835 26.026,83.4835 C26.124,83.4835 26.222,83.4715 26.322,83.4445 C26.93,83.2825 27.291,82.6565 27.128,82.0485 L26.696,80.4365 L36.178,89.9175 C36.4,90.1395 36.692,90.2505 36.983,90.2505 C37.275,90.2505 37.566,90.1395 37.789,89.9175 C38.234,89.4715 38.234,88.7505 37.789,88.3055 L28.305,78.8215 L33.059,80.0965 C33.158,80.1235 33.257,80.1345 33.355,80.1345 C33.858,80.1345 34.318,79.7985 34.456,79.2895 C34.619,78.6815 34.258,78.0565 33.651,77.8935 L28.898,76.6215 L46.445,71.9195 C47.053,71.7555 47.414,71.1305 47.251,70.5225" id="Fill-77" fill="#63A5FF"></path>
                    <path d="M12.1973,79.916 C12.0323,79.307 11.4053,78.947 10.8013,79.109 L4.3233,80.846 C3.7133,81.008 3.3533,81.633 3.5153,82.241 C3.6543,82.751 4.1143,83.086 4.6173,83.086 C4.7153,83.086 4.8133,83.074 4.9113,83.048 L11.3893,81.312 C11.9993,81.148 12.3603,80.523 12.1973,79.916" id="Fill-79" fill="#63A5FF"></path>
                    <path d="M35.4829,66.7681 C35.7749,66.7681 36.0669,66.6571 36.2889,66.4351 L42.3429,60.3791 C42.7889,59.9341 42.7889,59.2121 42.3429,58.7671 C41.8979,58.3221 41.1769,58.3221 40.7319,58.7671 L34.6769,64.8231 C34.2319,65.2681 34.2319,65.9891 34.6769,66.4351 C34.8999,66.6571 35.1909,66.7681 35.4829,66.7681" id="Fill-81" fill="#63A5FF"></path>
                    <path d="M29.5391,57.7798 C29.6401,57.8068 29.7371,57.8188 29.8351,57.8188 C30.3381,57.8188 30.7991,57.4838 30.9351,56.9748 L31.2561,55.7838 C31.4211,55.1758 31.0601,54.5508 30.4521,54.3868 C29.8421,54.2288 29.2181,54.5858 29.0571,55.1918 L28.7361,56.3828 C28.5711,56.9898 28.9321,57.6158 29.5391,57.7798" id="Fill-83" fill="#63A5FF"></path>
                    <path d="M20.7178,90.7217 C20.1078,90.5597 19.4868,90.9167 19.3198,91.5267 L17.5878,97.9837 C17.4248,98.5907 17.7858,99.2157 18.3928,99.3797 C18.4928,99.4067 18.5918,99.4167 18.6898,99.4167 C19.1928,99.4167 19.6528,99.0827 19.7908,98.5737 L21.5228,92.1177 C21.6858,91.5087 21.3248,90.8837 20.7178,90.7217" id="Fill-85" fill="#63A5FF"></path>
                    <path d="M19.9399,64.04 C20.0789,64.55 20.5389,64.885 21.0419,64.885 C21.1399,64.885 21.2379,64.873 21.3379,64.846 C21.9459,64.684 22.3069,64.058 22.1439,63.45 L19.7909,54.668 C19.6259,54.059 19.0079,53.701 18.3929,53.862 C17.7849,54.024 17.4249,54.65 17.5869,55.258 L19.9399,64.04 Z" id="Fill-87" fill="#63A5FF"></path>
                    <path d="M28.0635,85.5371 C27.8985,84.9291 27.2715,84.5691 26.6675,84.7301 C26.0575,84.8931 25.6975,85.5181 25.8595,86.1261 L28.5135,96.0321 C28.6515,96.5421 29.1115,96.8781 29.6155,96.8781 C29.7125,96.8781 29.8115,96.8641 29.9095,96.8391 C30.5195,96.6771 30.8795,96.0501 30.7165,95.4421 L28.0635,85.5371 Z" id="Fill-89" fill="#63A5FF"></path>
                    <path d="M124.0859,99.4062 C123.6409,98.9592 122.9189,98.9592 122.4739,99.4062 C122.0289,99.8492 122.0289,100.5702 122.4739,101.0172 L124.5629,103.1072 C124.7849,103.3302 125.0769,103.4392 125.3679,103.4392 C125.6599,103.4392 125.9509,103.3302 126.1729,103.1072 C126.6189,102.6642 126.6189,101.9392 126.1729,101.4962 L124.0859,99.4062 Z" id="Fill-91" fill="#F8B239"></path>
                    <path d="M99.7158,78.2583 C99.9388,78.4813 100.2308,78.5913 100.5218,78.5913 C100.8128,78.5913 101.1048,78.4813 101.3268,78.2583 C101.7718,77.8133 101.7718,77.0913 101.3268,76.6463 L90.3328,65.6523 C89.8868,65.2073 89.1658,65.2073 88.7208,65.6523 C88.2758,66.0973 88.2758,66.8193 88.7208,67.2643 L99.7158,78.2583 Z" id="Fill-93" fill="#F8B239"></path>
                    <path d="M127.853,89.2285 L121.121,87.4235 C120.51,87.2615 119.887,87.6205 119.723,88.2295 C119.56,88.8375 119.921,89.4625 120.528,89.6245 L127.26,91.4305 C127.36,91.4575 127.458,91.4685 127.557,91.4685 C128.059,91.4685 128.52,91.1345 128.658,90.6245 C128.821,90.0165 128.46,89.3905 127.853,89.2285" id="Fill-95" fill="#F8B239"></path>
                    <path d="M90.5376,81.5488 C91.0406,81.5488 91.5016,81.2128 91.6396,80.7028 C91.8026,80.0958 91.4416,79.4698 90.8316,79.3078 L86.8536,78.2428 C86.2576,78.0818 85.6226,78.4418 85.4576,79.0488 C85.2956,79.6568 85.6566,80.2818 86.2656,80.4448 L90.2436,81.5098 C90.3416,81.5368 90.4396,81.5488 90.5376,81.5488" id="Fill-97" fill="#F8B239"></path>
                    <path d="M130.9736,79.0483 C130.8086,78.4403 130.1946,78.0803 129.5756,78.2423 L112.0306,82.9433 L117.0246,77.9483 C117.4696,77.5033 117.4696,76.7823 117.0246,76.3373 C116.5786,75.8923 115.8576,75.8923 115.4116,76.3373 L110.4176,81.3323 L113.0166,71.6313 C113.1796,71.0233 112.8186,70.3983 112.2116,70.2353 C111.5976,70.0763 110.9806,70.4333 110.8136,71.0413 L108.2156,80.7393 L106.7326,75.2093 C106.5686,74.5983 105.9536,74.2423 105.3346,74.4023 C104.7266,74.5653 104.3666,75.1903 104.5296,75.7983 L106.0126,81.3323 L104.4666,79.7863 C104.0206,79.3413 103.2996,79.3413 102.8546,79.7863 C102.4096,80.2313 102.4096,80.9533 102.8546,81.3983 L104.3996,82.9433 L94.0056,80.1583 C93.3926,79.9943 92.7716,80.3573 92.6066,80.9653 C92.4446,81.5723 92.8056,82.1973 93.4136,82.3603 L103.8106,85.1463 L98.2596,86.6343 C97.6516,86.7973 97.2916,87.4223 97.4546,88.0303 C97.5926,88.5403 98.0536,88.8753 98.5566,88.8753 C98.6546,88.8753 98.7526,88.8633 98.8526,88.8363 L104.4036,87.3493 L91.4056,100.3473 C90.9606,100.7913 90.9606,101.5133 91.4056,101.9593 C91.6276,102.1813 91.9196,102.2913 92.2116,102.2913 C92.5026,102.2913 92.7946,102.1813 93.0166,101.9593 L106.0106,88.9633 L104.1566,95.8843 C103.9946,96.4923 104.3546,97.1193 104.9616,97.2813 C105.0626,97.3083 105.1606,97.3183 105.2586,97.3183 C105.7616,97.3183 106.2226,96.9843 106.3606,96.4743 L108.2156,89.5523 L108.6466,91.1643 C108.7856,91.6733 109.2456,92.0093 109.7486,92.0093 C109.8466,92.0093 109.9446,91.9983 110.0446,91.9703 C110.6526,91.8083 111.0136,91.1823 110.8506,90.5743 L110.4186,88.9623 L119.9006,98.4433 C120.1226,98.6663 120.4146,98.7753 120.7056,98.7753 C120.9976,98.7753 121.2886,98.6663 121.5116,98.4433 C121.9566,97.9983 121.9566,97.2753 121.5116,96.8323 L112.0276,87.3473 L116.7816,88.6223 C116.8806,88.6483 116.9796,88.6603 117.0776,88.6603 C117.5806,88.6603 118.0406,88.3243 118.1786,87.8153 C118.3416,87.2073 117.9806,86.5823 117.3736,86.4203 L112.6206,85.1463 L130.1676,80.4453 C130.7756,80.2813 131.1366,79.6563 130.9736,79.0483" id="Fill-99" fill="#F8B239"></path>
                    <path d="M95.9199,88.4414 C95.7549,87.8334 95.1279,87.4724 94.5239,87.6344 L88.0459,89.3714 C87.4359,89.5334 87.0759,90.1584 87.2379,90.7674 C87.3769,91.2774 87.8369,91.6114 88.3399,91.6114 C88.4379,91.6114 88.5359,91.5994 88.6339,91.5744 L95.1119,89.8374 C95.7219,89.6744 96.0829,89.0484 95.9199,88.4414" id="Fill-101" fill="#F8B239"></path>
                    <path d="M119.2056,75.2939 C119.4976,75.2939 119.7896,75.1829 120.0116,74.9609 L126.0656,68.9049 C126.5116,68.4599 126.5116,67.7379 126.0656,67.2929 C125.6206,66.8479 124.8996,66.8479 124.4546,67.2929 L118.3996,73.3489 C117.9546,73.7939 117.9546,74.5149 118.3996,74.9609 C118.6226,75.1829 118.9136,75.2939 119.2056,75.2939" id="Fill-103" fill="#F8B239"></path>
                    <path d="M113.2617,66.3057 C113.3627,66.3327 113.4597,66.3447 113.5577,66.3447 C114.0607,66.3447 114.5217,66.0097 114.6577,65.5007 L114.9787,64.3097 C115.1437,63.7017 114.7827,63.0767 114.1747,62.9127 C113.5647,62.7547 112.9407,63.1117 112.7797,63.7177 L112.4587,64.9087 C112.2937,65.5157 112.6547,66.1417 113.2617,66.3057" id="Fill-105" fill="#F8B239"></path>
                    <path d="M104.4404,99.248 C103.8304,99.086 103.2094,99.443 103.0424,100.053 L101.3104,106.51 C101.1474,107.117 101.5084,107.742 102.1154,107.906 C102.2154,107.932 102.3144,107.943 102.4124,107.943 C102.9154,107.943 103.3754,107.609 103.5134,107.1 L105.2454,100.643 C105.4084,100.035 105.0474,99.41 104.4404,99.248" id="Fill-107" fill="#F8B239"></path>
                    <path d="M103.6626,72.5659 C103.8016,73.0759 104.2616,73.4109 104.7646,73.4109 C104.8626,73.4109 104.9606,73.3989 105.0606,73.3719 C105.6686,73.2099 106.0296,72.5839 105.8666,71.9759 L103.5136,63.1939 C103.3486,62.5849 102.7306,62.2269 102.1156,62.3879 C101.5076,62.5499 101.1476,63.1759 101.3096,63.7839 L103.6626,72.5659 Z" id="Fill-109" fill="#F8B239"></path>
                    <path d="M111.7861,94.0625 C111.6211,93.4555 110.9941,93.0955 110.3901,93.2555 C109.7801,93.4195 109.4201,94.0445 109.5821,94.6525 L112.2361,104.5585 C112.3741,105.0685 112.8341,105.4045 113.3381,105.4045 C113.4351,105.4045 113.5341,105.3905 113.6321,105.3655 C114.2421,105.2035 114.6021,104.5765 114.4391,103.9685 L111.7861,94.0625 Z" id="Fill-111" fill="#F8B239"></path>
                    <path d="M54.7749,37.5742 C54.3299,37.1282 53.6079,37.1282 53.1629,37.5742 C52.7179,38.0172 52.7179,38.7402 53.1629,39.1852 L55.2519,41.2762 C55.4739,41.4982 55.7659,41.6092 56.0569,41.6092 C56.3489,41.6092 56.6399,41.4982 56.8619,41.2762 C57.3079,40.8322 57.3079,40.1092 56.8619,39.6642 L54.7749,37.5742 Z" id="Fill-113" fill="#F8B239"></path>
                    <path d="M30.4048,16.4272 C30.6278,16.6502 30.9198,16.7602 31.2108,16.7602 C31.5018,16.7602 31.7938,16.6502 32.0158,16.4272 C32.4608,15.9822 32.4608,15.2602 32.0158,14.8152 L21.0218,3.8212 C20.5758,3.3762 19.8548,3.3762 19.4098,3.8212 C18.9648,4.2662 18.9648,4.9882 19.4098,5.4332 L30.4048,16.4272 Z" id="Fill-115" fill="#F8B239"></path>
                    <path d="M58.542,27.397 L51.81,25.592 C51.199,25.431 50.576,25.789 50.412,26.398 C50.249,27.007 50.61,27.632 51.217,27.794 L57.949,29.6 C58.049,29.626 58.147,29.638 58.246,29.638 C58.748,29.638 59.209,29.303 59.347,28.793 C59.51,28.186 59.149,27.56 58.542,27.397" id="Fill-117" fill="#F8B239"></path>
                    <path d="M21.2266,19.7173 C21.7296,19.7173 22.1906,19.3823 22.3286,18.8723 C22.4916,18.2643 22.1306,17.6393 21.5206,17.4763 L17.5426,16.4113 C16.9466,16.2513 16.3116,16.6103 16.1466,17.2173 C15.9846,17.8253 16.3456,18.4503 16.9546,18.6133 L20.9326,19.6783 C21.0306,19.7053 21.1286,19.7173 21.2266,19.7173" id="Fill-119" fill="#F8B239"></path>
                    <path d="M61.6626,17.2173 C61.4976,16.6093 60.8836,16.2493 60.2646,16.4113 L42.7196,21.1123 L47.7136,16.1173 C48.1586,15.6723 48.1586,14.9513 47.7136,14.5063 C47.2676,14.0613 46.5466,14.0613 46.1006,14.5063 L41.1066,19.5013 L43.7056,9.8003 C43.8686,9.1923 43.5076,8.5673 42.9006,8.4043 C42.2866,8.2453 41.6696,8.6023 41.5026,9.2103 L38.9046,18.9083 L37.4216,13.3783 C37.2576,12.7673 36.6426,12.4113 36.0236,12.5713 C35.4156,12.7343 35.0556,13.3593 35.2186,13.9673 L36.7016,19.5013 L35.1556,17.9553 C34.7096,17.5103 33.9886,17.5103 33.5436,17.9553 C33.0986,18.4003 33.0986,19.1223 33.5436,19.5673 L35.0886,21.1123 L24.6946,18.3273 C24.0816,18.1633 23.4606,18.5263 23.2956,19.1333 C23.1336,19.7413 23.4946,20.3663 24.1026,20.5293 L34.4996,23.3163 L28.9486,24.8033 C28.3406,24.9663 27.9806,25.5913 28.1436,26.1993 C28.2816,26.7093 28.7426,27.0443 29.2456,27.0443 C29.3436,27.0443 29.4416,27.0313 29.5416,27.0053 L35.0926,25.5183 L22.0946,38.5153 C21.6496,38.9603 21.6496,39.6823 22.0946,40.1273 C22.3166,40.3493 22.6086,40.4603 22.9006,40.4603 C23.1916,40.4603 23.4836,40.3493 23.7056,40.1273 L36.6996,27.1323 L34.8456,34.0533 C34.6836,34.6613 35.0436,35.2873 35.6506,35.4493 C35.7516,35.4763 35.8496,35.4883 35.9476,35.4883 C36.4506,35.4883 36.9116,35.1533 37.0496,34.6433 L38.9046,27.7223 L39.3356,29.3333 C39.4746,29.8423 39.9346,30.1783 40.4376,30.1783 C40.5356,30.1783 40.6336,30.1663 40.7336,30.1393 C41.3416,29.9773 41.7026,29.3513 41.5396,28.7433 L41.1076,27.1313 L50.5896,36.6113 C50.8116,36.8343 51.1036,36.9453 51.3946,36.9453 C51.6866,36.9453 51.9776,36.8343 52.2006,36.6113 C52.6456,36.1673 52.6456,35.4453 52.2006,35.0003 L42.7166,25.5163 L47.4706,26.7913 C47.5696,26.8183 47.6686,26.8293 47.7666,26.8293 C48.2696,26.8293 48.7296,26.4933 48.8676,25.9843 C49.0306,25.3763 48.6696,24.7513 48.0626,24.5883 L43.3096,23.3163 L60.8566,18.6143 C61.4646,18.4503 61.8256,17.8253 61.6626,17.2173" id="Fill-121" fill="#F8B239"></path>
                    <path d="M26.6089,26.6108 C26.4439,26.0018 25.8169,25.6418 25.2129,25.8038 L18.7349,27.5398 C18.1249,27.7028 17.7649,28.3278 17.9269,28.9358 C18.0659,29.4458 18.5259,29.7808 19.0289,29.7808 C19.1269,29.7808 19.2249,29.7688 19.3229,29.7418 L25.8009,28.0068 C26.4109,27.8438 26.7719,27.2178 26.6089,26.6108" id="Fill-123" fill="#F8B239"></path>
                    <path d="M49.8945,13.4629 C50.1865,13.4629 50.4785,13.3519 50.7005,13.1299 L56.7545,7.0739 C57.2005,6.6289 57.2005,5.9069 56.7545,5.4619 C56.3095,5.0169 55.5885,5.0169 55.1435,5.4619 L49.0885,11.5179 C48.6435,11.9629 48.6435,12.6839 49.0885,13.1299 C49.3115,13.3519 49.6025,13.4629 49.8945,13.4629" id="Fill-125" fill="#F8B239"></path>
                    <path d="M43.9507,4.4746 C44.0517,4.5016 44.1487,4.5136 44.2467,4.5136 C44.7497,4.5136 45.2107,4.1786 45.3467,3.6696 L45.6677,2.4786 C45.8327,1.8706 45.4717,1.2456 44.8637,1.0816 C44.2537,0.9236 43.6297,1.2806 43.4687,1.8866 L43.1477,3.0776 C42.9827,3.6846 43.3437,4.3106 43.9507,4.4746" id="Fill-127" fill="#F8B239"></path>
                    <path d="M35.1294,37.416 C34.5194,37.255 33.8984,37.612 33.7314,38.222 L31.9994,44.678 C31.8364,45.285 32.1974,45.911 32.8044,46.074 C32.9044,46.101 33.0034,46.112 33.1014,46.112 C33.6044,46.112 34.0644,45.778 34.2024,45.268 L35.9344,38.812 C36.0974,38.204 35.7364,37.579 35.1294,37.416" id="Fill-129" fill="#F8B239"></path>
                    <path d="M34.3516,10.7349 C34.4906,11.2449 34.9506,11.5799 35.4536,11.5799 C35.5516,11.5799 35.6496,11.5679 35.7496,11.5409 C36.3576,11.3789 36.7186,10.7529 36.5556,10.1449 L34.2026,1.3629 C34.0376,0.7539 33.4196,0.3959 32.8046,0.5569 C32.1966,0.7189 31.8366,1.3449 31.9986,1.9529 L34.3516,10.7349 Z" id="Fill-131" fill="#F8B239"></path>
                    <path d="M42.4751,32.2319 C42.3101,31.6229 41.6831,31.2639 41.0791,31.4249 C40.4691,31.5879 40.1091,32.2129 40.2711,32.8209 L42.9251,42.7279 C43.0631,43.2369 43.5231,43.5719 44.0271,43.5719 C44.1241,43.5719 44.2231,43.5599 44.3211,43.5329 C44.9311,43.3709 45.2911,42.7449 45.1281,42.1369 L42.4751,32.2319 Z" id="Fill-133" fill="#F8B239"></path>
                    <path d="M38.667,138.0049 C38.222,137.5599 37.5,137.5599 37.055,138.0049 C36.61,138.4479 36.61,139.1709 37.055,139.6159 L39.144,141.7059 C39.366,141.9289 39.658,142.0399 39.949,142.0399 C40.241,142.0399 40.532,141.9289 40.754,141.7059 C41.2,141.2629 41.2,140.5399 40.754,140.0949 L38.667,138.0049 Z" id="Fill-135" fill="#F8B239"></path>
                    <path d="M14.2969,116.8584 C14.5199,117.0814 14.8119,117.1914 15.1029,117.1914 C15.3939,117.1914 15.6859,117.0814 15.9079,116.8584 C16.3529,116.4134 16.3529,115.6914 15.9079,115.2464 L4.9139,104.2524 C4.4679,103.8064 3.7469,103.8064 3.3019,104.2524 C2.8569,104.6974 2.8569,105.4194 3.3019,105.8644 L14.2969,116.8584 Z" id="Fill-137" fill="#F8B239"></path>
                    <path d="M42.4341,127.8271 L35.7021,126.0221 C35.0911,125.8621 34.4681,126.2201 34.3041,126.8291 C34.1411,127.4371 34.5021,128.0631 35.1091,128.2251 L41.8411,130.0301 C41.9411,130.0571 42.0391,130.0681 42.1381,130.0681 C42.6401,130.0681 43.1011,129.7331 43.2391,129.2231 C43.4021,128.6161 43.0411,127.9911 42.4341,127.8271" id="Fill-139" fill="#F8B239"></path>
                    <g id="Group-143" transform="translate(0.000000, 116.000000)" fill="#F8B239">
                        <path d="M5.1187,4.1475 C5.6217,4.1475 6.0827,3.8125 6.2207,3.3035 C6.3837,2.6955 6.0227,2.0695 5.4127,1.9075 L1.4347,0.8425 C0.8387,0.6815 0.2037,1.0415 0.0387,1.6475 C-0.1233,2.2565 0.2377,2.8815 0.8467,3.0435 L4.8247,4.1095 C4.9227,4.1355 5.0207,4.1475 5.1187,4.1475" id="Fill-141"></path>
                    </g>
                    <path d="M45.5547,117.6475 C45.3897,117.0405 44.7757,116.6805 44.1567,116.8425 L26.6117,121.5435 L31.6057,116.5475 C32.0507,116.1025 32.0507,115.3815 31.6057,114.9365 C31.1597,114.4915 30.4387,114.4915 29.9927,114.9365 L24.9987,119.9315 L27.5977,110.2305 C27.7607,109.6235 27.3997,108.9975 26.7927,108.8345 C26.1787,108.6755 25.5617,109.0335 25.3947,109.6415 L22.7967,119.3385 L21.3137,113.8085 C21.1497,113.1985 20.5347,112.8425 19.9157,113.0015 C19.3077,113.1655 18.9477,113.7905 19.1107,114.3975 L20.5937,119.9315 L19.0477,118.3855 C18.6017,117.9405 17.8807,117.9405 17.4357,118.3855 C16.9907,118.8315 16.9907,119.5525 17.4357,119.9975 L18.9807,121.5435 L8.5867,118.7575 C7.9737,118.5945 7.3527,118.9565 7.1877,119.5635 C7.0257,120.1725 7.3867,120.7975 7.9947,120.9605 L18.3917,123.7475 L12.8407,125.2335 C12.2327,125.3965 11.8727,126.0215 12.0357,126.6295 C12.1737,127.1395 12.6347,127.4745 13.1377,127.4745 C13.2357,127.4745 13.3337,127.4615 13.4337,127.4365 L18.9847,125.9485 L5.9867,138.9465 C5.5417,139.3905 5.5417,140.1125 5.9867,140.5575 C6.2087,140.7805 6.5007,140.8905 6.7927,140.8905 C7.0837,140.8905 7.3757,140.7805 7.5977,140.5575 L20.5917,127.5625 L18.7377,134.4845 C18.5757,135.0925 18.9357,135.7175 19.5427,135.8795 C19.6437,135.9075 19.7417,135.9185 19.8397,135.9185 C20.3427,135.9185 20.8037,135.5845 20.9417,135.0735 L22.7967,128.1535 L23.2277,129.7645 C23.3667,130.2735 23.8267,130.6095 24.3297,130.6095 C24.4277,130.6095 24.5257,130.5965 24.6257,130.5695 C25.2337,130.4075 25.5947,129.7825 25.4317,129.1735 L24.9997,127.5615 L34.4817,137.0425 C34.7037,137.2645 34.9957,137.3765 35.2867,137.3765 C35.5787,137.3765 35.8697,137.2645 36.0927,137.0425 C36.5377,136.5975 36.5377,135.8765 36.0927,135.4305 L26.6087,125.9475 L31.3627,127.2215 C31.4617,127.2495 31.5607,127.2595 31.6587,127.2595 C32.1617,127.2595 32.6217,126.9245 32.7597,126.4155 C32.9227,125.8065 32.5617,125.1815 31.9547,125.0185 L27.2017,123.7475 L44.7487,119.0445 C45.3567,118.8815 45.7177,118.2565 45.5547,117.6475" id="Fill-144" fill="#F8B239"></path>
                    <path d="M10.501,127.042 C10.336,126.433 9.709,126.073 9.105,126.235 L2.627,127.971 C2.017,128.134 1.657,128.759 1.819,129.366 C1.958,129.876 2.418,130.212 2.921,130.212 C3.019,130.212 3.117,130.2 3.215,130.173 L9.693,128.438 C10.303,128.274 10.664,127.649 10.501,127.042" id="Fill-146" fill="#F8B239"></path>
                    <path d="M33.7866,113.8936 C34.0786,113.8936 34.3706,113.7826 34.5926,113.5596 L40.6466,107.5046 C41.0926,107.0596 41.0926,106.3376 40.6466,105.8926 C40.2016,105.4476 39.4806,105.4476 39.0356,105.8926 L32.9806,111.9486 C32.5356,112.3936 32.5356,113.1146 32.9806,113.5596 C33.2036,113.7826 33.4946,113.8936 33.7866,113.8936" id="Fill-148" fill="#F8B239"></path>
                    <path d="M27.8428,104.9053 C27.9438,104.9323 28.0408,104.9443 28.1388,104.9443 C28.6418,104.9443 29.1028,104.6083 29.2388,104.1003 L29.5598,102.9093 C29.7248,102.3013 29.3638,101.6763 28.7558,101.5123 C28.1458,101.3543 27.5218,101.7113 27.3608,102.3173 L27.0398,103.5093 C26.8748,104.1163 27.2358,104.7413 27.8428,104.9053" id="Fill-150" fill="#F8B239"></path>
                    <path d="M19.0215,137.8467 C18.4115,137.6857 17.7905,138.0427 17.6235,138.6527 L15.8915,145.1087 C15.7285,145.7157 16.0895,146.3417 16.6965,146.5047 C16.7965,146.5327 16.8955,146.5427 16.9935,146.5427 C17.4965,146.5427 17.9565,146.2077 18.0945,145.6987 L19.8265,139.2427 C19.9895,138.6337 19.6285,138.0097 19.0215,137.8467" id="Fill-152" fill="#F8B239"></path>
                    <path d="M18.2437,111.165 C18.3827,111.675 18.8427,112.011 19.3457,112.011 C19.4437,112.011 19.5417,111.998 19.6417,111.972 C20.2497,111.81 20.6107,111.184 20.4477,110.575 L18.0947,101.794 C17.9297,101.185 17.3117,100.826 16.6967,100.987 C16.0887,101.149 15.7287,101.775 15.8907,102.384 L18.2437,111.165 Z" id="Fill-154" fill="#F8B239"></path>
                    <path d="M26.3672,132.6631 C26.2022,132.0541 25.5752,131.6941 24.9712,131.8561 C24.3612,132.0181 24.0012,132.6431 24.1632,133.2521 L26.8172,143.1581 C26.9552,143.6671 27.4152,144.0031 27.9192,144.0031 C28.0162,144.0031 28.1152,143.9901 28.2132,143.9641 C28.8232,143.8021 29.1832,143.1761 29.0202,142.5671 L26.3672,132.6631 Z" id="Fill-156" fill="#F8B239"></path>
                </g>
                <g id="Group-162" transform="translate(32.000000, 116.482000)">
                    <mask id="mask-2" fill="white">
                        <use xlink:href="#path-1"></use>
                    </mask>
                    <g id="Clip-160"></g>
                    <polygon id="Fill-159" fill="#F34584" mask="url(#mask-2)" points="-2.708 40.645 75.068 40.645 75.068 -2.91 -2.708 -2.91"></polygon>
                    <path d="M9.7397,2.6895 C5.9637,2.6895 2.8917,5.7615 2.8917,9.5375 L2.8917,28.1975 C2.8917,31.9725 5.9637,35.0445 9.7397,35.0445 L62.6217,35.0445 C66.3977,35.0445 69.4687,31.9725 69.4687,28.1975 L69.4687,9.5375 C69.4687,5.7615 66.3977,2.6895 62.6217,2.6895 L9.7397,2.6895 Z M62.6217,40.0215 L9.7397,40.0215 C3.2187,40.0215 -2.0853,34.7165 -2.0853,28.1975 L-2.0853,9.5375 C-2.0853,3.0165 3.2187,-2.2885 9.7397,-2.2885 L62.6217,-2.2885 C69.1417,-2.2885 74.4467,3.0165 74.4467,9.5375 L74.4467,28.1975 C74.4467,34.7165 69.1417,40.0215 62.6217,40.0215 L62.6217,40.0215 Z" id="Fill-161" fill="#000D46" mask="url(#mask-2)"></path>
                </g>
                <g id="Group-165" transform="translate(51.000000, 105.482000)">
                    <mask id="mask-4" fill="white">
                        <use xlink:href="#path-3"></use>
                    </mask>
                    <g id="Clip-164"></g>
                    <polygon id="Fill-163" fill="#FBD2AE" mask="url(#mask-4)" points="-2.419 37.915 36.867 37.915 36.867 -3.11 -2.419 -3.11"></polygon>
                </g>
                <g id="Group-171" transform="translate(0.000000, 0.482000)">
                    <path d="M64.481,106.2451 C63.873,109.3511 61.803,117.5571 56.913,117.5571 C52.937,117.5571 52.937,118.0781 52.937,121.4801 C52.937,130.8981 59.989,138.5591 68.659,138.5591 C77.126,138.5591 83.511,131.2171 83.511,121.4801 C83.511,117.6721 77.91,108.2341 76.392,106.2451 L64.481,106.2451 L64.481,106.2451 Z M68.659,141.0491 C58.617,141.0491 50.448,132.2691 50.448,121.4801 C50.448,116.9571 51.346,115.0671 56.913,115.0671 C59.722,115.0671 61.693,108.1581 62.208,104.8121 L62.371,103.7561 L76.924,103.7561 C77.426,103.7561 78.267,103.7561 82.097,110.8241 C83.877,114.1091 86,118.6251 86,121.4801 C86,132.6361 78.545,141.0491 68.659,141.0491 L68.659,141.0491 Z" id="Fill-166" fill="#000D46"></path>
                    <mask id="mask-6" fill="white">
                        <use xlink:href="#path-5"></use>
                    </mask>
                    <g id="Clip-169"></g>
                    <polygon id="Fill-168" fill="#000D46" mask="url(#mask-6)" points="67.247 139.417 69.736 139.417 69.736 133.428 67.247 133.428"></polygon>
                    <polygon id="Fill-170" fill="#000D46" mask="url(#mask-6)" points="11.682 153.533 124.678 153.533 124.678 151.045 11.682 151.045"></polygon>
                </g>
                <g id="Group-174" transform="translate(23.000000, 22.482000)">
                    <mask id="mask-8" fill="white">
                        <use xlink:href="#path-7"></use>
                    </mask>
                    <g id="Clip-173"></g>
                    <polygon id="Fill-172" fill="#E87F00" mask="url(#mask-8)" points="-2.48 114.643 91.315 114.643 91.315 -2.867 -2.48 -2.867"></polygon>
                </g>
                <path d="M45.667,132.7691 L50.948,132.7691 C56.604,132.7691 61.45,124.3641 61.45,117.4821 L61.45,107.6911 L62.53,107.5471 C62.666,107.5291 65.904,107.1011 68.785,107.1011 C71.657,107.1011 75.3,107.5271 75.454,107.5441 L76.552,107.6741 L76.552,116.6731 L91.514,116.6731 C94.041,116.6731 103.214,118.7811 103.915,128.8541 L107.069,128.8541 C108.021,128.8541 109.252,127.4111 109.76,124.6521 C110.177,122.3861 109.878,120.4231 109.382,117.1711 C109.228,116.1601 109.056,115.0291 108.881,113.7331 C108.137,108.2301 105.436,93.0561 105.409,92.9021 L105.396,92.8121 C105.371,92.5641 104.772,86.6601 105.396,80.8071 C105.628,78.6341 106.159,76.8451 106.722,74.9511 C107.729,71.5641 108.87,67.7241 108.87,60.0571 C108.87,49.7631 95.069,37.6051 87.954,35.8191 C90.239,40.0601 91.269,44.3581 91.313,44.5441 L88.927,45.2411 C88.908,45.1851 86.962,39.6361 85.555,36.6201 C84.543,34.8101 83.443,33.3391 82.288,32.2491 C78.001,28.2061 72.224,25.2361 66.833,24.3041 C65.551,24.0831 64.004,23.9711 62.235,23.9711 C57.496,23.9711 52.082,24.7811 48.764,25.9881 C44.475,27.5471 39.138,29.4871 32.794,37.7571 C26.581,45.8551 25.644,51.5451 25.216,56.6791 C24.783,61.8791 24.745,62.7701 25.216,68.6581 C25.389,70.8101 25.885,74.4331 26.459,78.6281 C27.458,85.9201 28.701,94.9971 28.701,100.0811 C28.701,105.4841 27.503,114.5571 26.712,120.5611 C26.392,122.9841 26.09,125.2721 26.09,125.7481 C26.09,127.0911 26.765,129.7241 28.326,129.7241 L45.667,129.7241 L45.667,132.7691 Z M50.948,135.2571 L43.178,135.2571 L43.178,132.2121 L28.326,132.2121 C24.884,132.2121 23.602,128.2481 23.602,125.7481 C23.602,125.1361 23.81,123.5271 24.244,120.2361 C25.028,114.2961 26.212,105.3211 26.212,100.0811 C26.212,95.1661 24.981,86.1831 23.993,78.9661 C23.414,74.7331 22.913,71.0791 22.735,68.8561 C22.244,62.7141 22.302,61.6761 22.735,56.4731 C23.174,51.2111 24.197,44.8741 30.819,36.2421 C37.605,27.3961 43.32,25.3181 47.913,23.6491 C51.478,22.3521 57.233,21.4821 62.235,21.4821 C64.146,21.4821 65.835,21.6061 67.257,21.8521 C73.198,22.8781 79.299,26.0081 83.995,30.4381 C84.79,31.1881 85.555,32.0811 86.283,33.1071 L86.349,33.1071 C93.803,33.1071 111.358,47.2031 111.358,60.0571 C111.358,68.0861 110.11,72.2861 109.108,75.6611 C108.556,77.5191 108.079,79.1241 107.871,81.0701 C107.302,86.4051 107.815,91.9721 107.867,92.5131 C108.037,93.4641 110.618,108.0011 111.348,113.4001 C111.52,114.6791 111.691,115.7961 111.843,116.7961 C112.36,120.1851 112.702,122.4251 112.208,125.1031 C111.51,128.8941 109.493,131.3431 107.069,131.3431 L101.469,131.3431 L101.469,130.0981 C101.469,125.9751 99.935,122.9071 96.911,120.9781 C94.568,119.4851 92.019,119.1621 91.514,119.1621 L74.063,119.1621 L74.063,109.9011 C72.774,109.7751 70.584,109.5901 68.785,109.5901 C67.043,109.5901 65.109,109.7631 63.939,109.8881 L63.939,117.4821 C63.939,126.6191 57.625,135.2571 50.948,135.2571 L50.948,135.2571 Z" id="Fill-175" fill="#000D46"></path>
                <g id="Group-179" transform="translate(29.000000, 28.482000)">
                    <mask id="mask-10" fill="white">
                        <use xlink:href="#path-9"></use>
                    </mask>
                    <g id="Clip-178"></g>
                    <polygon id="Fill-177" fill="#CA6E00" mask="url(#mask-10)" points="-2.258 107.412 84.147 107.412 84.147 -2.645 -2.258 -2.645"></polygon>
                </g>
                <g id="Group-184" transform="translate(43.000000, 141.482000)" fill="#000D46">
                    <polygon id="Fill-180" points="88.179 12.533 90.979 12.533 90.979 10.045 88.179 10.045"></polygon>
                    <polygon id="Fill-182" points="47.477 10.227 49.966 10.227 49.966 0.089 47.477 0.089"></polygon>
                    <polygon id="Fill-183" points="0.811 10.227 3.3 10.227 3.3 0.089 0.811 0.089"></polygon>
                </g>
                <g id="Group-187" transform="translate(38.000000, 42.482000)">
                    <mask id="mask-12" fill="white">
                        <use xlink:href="#path-11"></use>
                    </mask>
                    <g id="Clip-186"></g>
                    <polygon id="Fill-185" fill="#FBD2AE" mask="url(#mask-12)" points="-3.108 72.005 59.92 72.005 59.92 -2.954 -3.108 -2.954"></polygon>
                </g>
                <g id="Group-196" transform="translate(37.000000, 33.482000)" fill="#000D46">
                    <path d="M6.8066,56.0791 C7.1846,58.2291 15.3166,76.6501 32.8426,76.6501 C51.2536,76.6501 56.3616,56.7911 56.3906,56.5901 C56.5096,55.7021 56.7166,44.6621 56.3866,40.2621 C55.5856,34.7251 53.1796,31.8831 50.3946,28.5931 C50.1016,28.2471 49.8076,27.8991 49.5136,27.5451 C46.3696,23.7731 40.5826,20.0941 36.2426,18.1211 C34.3586,17.2651 32.6806,17.0411 31.4956,17.4561 C31.4576,17.4901 31.4186,17.5241 31.3806,17.5581 C30.0466,18.7321 28.0166,19.9251 25.6656,21.3061 C21.9166,23.5091 17.6676,26.0051 15.0916,29.0961 C12.5696,32.1221 11.7716,35.4781 10.9996,38.7221 C10.5076,40.7921 10.0426,42.7471 9.1576,44.5171 C8.5306,45.7721 7.6916,47.1631 6.8066,48.5171 L6.8066,56.0791 Z M32.8426,79.1391 C12.6646,79.1391 4.3176,57.6411 4.3176,56.1351 L4.3176,52.1781 L3.0366,53.8391 C2.3926,54.6891 1.9776,55.2111 1.9776,55.2111 L0.0176,53.6781 L1.0586,52.3281 C2.6136,50.2741 5.4396,46.3891 6.9316,43.4041 C7.6876,41.8911 8.1206,40.0721 8.5786,38.1461 C9.3776,34.7871 10.2836,30.9781 13.1796,27.5031 C16.0326,24.0791 20.4806,21.4661 24.4056,19.1601 C26.1666,18.1251 27.8486,17.1371 29.0336,16.2541 L28.9476,16.1791 L41.2856,0.0551 L37.0256,9.6621 C36.9636,9.8011 35.8406,12.3051 33.8916,14.8361 C34.9556,14.9761 36.0876,15.3171 37.2716,15.8551 C41.8706,17.9451 48.0296,21.8781 51.4246,25.9531 C51.7156,26.3011 52.0056,26.6441 52.2946,26.9851 C55.0796,30.2751 57.9596,33.6771 58.8556,39.9511 L58.8656,40.0321 C59.1936,44.3291 59.0216,55.6891 58.8576,56.9211 C58.8276,57.1431 53.4486,79.1391 32.8426,79.1391 L32.8426,79.1391 Z" id="Fill-188"></path>
                    <path d="M31.4917,51.1562 C29.7757,51.1562 28.1047,50.4962 28.0337,50.4682 L28.7257,48.7342 C28.7407,48.7402 30.1427,49.2902 31.4917,49.2902 C32.8407,49.2902 34.2427,48.7402 34.2577,48.7342 L34.9497,50.4682 C34.8787,50.4962 33.2077,51.1562 31.4917,51.1562" id="Fill-190"></path>
                    <path d="M19.8262,37.2568 L18.5892,35.8598 C18.6392,35.8158 19.8112,34.7858 21.2102,34.4108 C22.6082,34.0358 24.1392,34.3408 24.2032,34.3548 L23.8292,36.1838 C23.8202,36.1818 22.6592,35.9548 21.6932,36.2138 C20.7272,36.4728 19.8352,37.2488 19.8262,37.2568" id="Fill-192"></path>
                    <path d="M43.147,37.2554 C43.14,37.2494 42.248,36.4724 41.282,36.2134 C40.317,35.9554 39.155,36.1824 39.143,36.1844 L38.771,34.3544 C38.835,34.3404 40.365,34.0354 41.765,34.4114 C43.164,34.7854 44.336,35.8154 44.386,35.8594 L43.147,37.2554 Z" id="Fill-194"></path>
                </g>
                <g id="Group-199" transform="translate(56.000000, 71.482000)">
                    <mask id="mask-14" fill="white">
                        <use xlink:href="#path-13"></use>
                    </mask>
                    <g id="Clip-198"></g>
                    <polygon id="Fill-197" fill="#000E46" mask="url(#mask-14)" points="-3.063 9.735 9.381 9.735 9.381 -2.709 -3.063 -2.709"></polygon>
                </g>
                <g id="Group-202" transform="translate(74.000000, 71.482000)">
                    <mask id="mask-16" fill="white">
                        <use xlink:href="#path-15"></use>
                    </mask>
                    <g id="Clip-201"></g>
                    <polygon id="Fill-200" fill="#000E46" mask="url(#mask-16)" points="-2.397 9.735 10.047 9.735 10.047 -2.709 -2.397 -2.709"></polygon>
                </g>
                <g id="Group-206" transform="translate(22.000000, 158.482000)" fill="#000E46">
                    <polygon id="Fill-203" points="0.263 3 49.174 3 49.174 0.511 0.263 0.511"></polygon>
                    <polygon id="Fill-205" points="63.73 3 92.771 3 92.771 0.511 63.73 0.511"></polygon>
                </g>
                <g id="Group-209" transform="translate(61.000000, 90.482000)">
                    <mask id="mask-18" fill="white">
                        <use xlink:href="#path-17"></use>
                    </mask>
                    <g id="Clip-208"></g>
                    <polygon id="Fill-207" fill="#FFFFFF" mask="url(#mask-18)" points="-3.086 11.267 18.518 11.267 18.518 -2.421 -3.086 -2.421"></polygon>
                </g>
                <path d="M65.5278,92.105 C63.1388,92.105 62.5518,92.128 62.4148,92.142 C62.0548,92.177 61.9588,92.267 61.9578,92.267 C61.9378,92.328 61.9538,92.767 62.5328,93.609 C63.8348,95.503 66.8198,97.705 68.7158,97.705 C70.3628,97.705 72.7768,95.918 74.2118,94.234 C75.0888,93.205 75.4108,92.468 75.4658,92.152 C75.4328,92.148 75.3908,92.146 75.3408,92.146 C74.5998,92.146 73.3168,92.138 71.8348,92.13 C69.8118,92.119 67.4168,92.105 65.5278,92.105 M68.7158,99.572 C65.7218,99.572 60.2428,95.449 60.0948,92.439 C60.0488,91.503 60.5858,90.447 62.2318,90.284 C62.4448,90.263 63.0128,90.239 65.5278,90.239 C67.4208,90.239 69.8188,90.252 71.8448,90.263 C73.3228,90.272 74.6018,90.279 75.3408,90.279 C75.9258,90.279 76.4018,90.429 76.7528,90.722 C77.1318,91.04 77.3398,91.51 77.3398,92.048 C77.3398,94.639 72.1848,99.572 68.7158,99.572" id="Fill-210" fill="#000E46"></path>
                <g id="Group-214" transform="translate(95.000000, 78.482000)">
                    <mask id="mask-20" fill="white">
                        <use xlink:href="#path-19"></use>
                    </mask>
                    <g id="Clip-213"></g>
                    <polygon id="Fill-212" fill="#000000" mask="url(#mask-20)" points="-2.242 11.276 10.202 11.276 10.202 -2.865 -2.242 -2.865"></polygon>
                </g>
                <g id="Group-217" transform="translate(95.000000, 77.482000)">
                    <mask id="mask-22" fill="white">
                        <use xlink:href="#path-21"></use>
                    </mask>
                    <g id="Clip-216"></g>
                    <polygon id="Fill-215" fill="#FBD2AE" mask="url(#mask-22)" points="-2.837 10.013 8.361 10.013 8.361 -2.542 -2.837 -2.542"></polygon>
                </g>
                <path d="M96.5181,79.3028 L96.5181,83.1328 C97.1871,83.1008 97.7701,82.9668 98.1831,82.7468 C98.7591,82.4388 99.0051,81.9828 99.0051,81.2218 C99.0051,80.7658 99.0051,79.4128 96.5181,79.3028 M96.2061,85.6288 L96.2061,85.6288 C95.5811,85.6288 95.1401,85.5658 95.0921,85.5578 L94.0291,85.4018 L94.0291,77.0288 L95.0941,76.8738 C95.2081,76.8578 97.5081,76.5178 99.3411,77.4918 C100.7291,78.2298 101.4941,79.5538 101.4941,81.2218 C101.4941,82.8858 100.7341,84.2068 99.3531,84.9428 C98.2911,85.5098 97.0561,85.6288 96.2061,85.6288" id="Fill-218" fill="#000E46"></path>
            </g>
        </g>
    </g>
</svg>