<?xml version="1.0" encoding="UTF-8" standalone="no"?>
<svg width="152px" height="118px" viewBox="0 0 152 118" version="1.1" xmlns="http://www.w3.org/2000/svg" xmlns:xlink="http://www.w3.org/1999/xlink">
    <!-- Generator: Sketch 39.1 (31720) - http://www.bohemiancoding.com/sketch -->
    <title>Handshake</title>
    <desc>Created with Sketch.</desc>
    <defs>
        <polygon id="path-1" points="42.617009 44.6208189 42.617009 0.0226207207 0.33244955 0.0226207207 0.33244955 44.6208189 42.617009 44.6208189"></polygon>
        <polygon id="path-3" points="5.81171435e-20 0.00879099099 5.81171435e-20 46.8476198 44.6879306 46.8476198 44.6879306 0.00879099099 0 0.00879099099"></polygon>
    </defs>
    <g id="Prototype-3.0" stroke="none" stroke-width="1" fill="none" fill-rule="evenodd">
        <g id="Introductie" transform="translate(-78.000000, -50.000000)">
            <g id="Handshake" transform="translate(78.000000, 49.000000)">
                <g id="Group-15" transform="translate(5.360360, 6.423856)">
                    <path d="M138.866782,32.4543018 L126.457548,44.863536 C126.167016,47.6552117 125.606323,50.3975721 124.796908,53.0520225 L124.796908,53.0541667 C122.721377,59.8435991 119.010935,66.0637613 113.933602,71.1421667 L109.578845,75.4969234 L75.8750432,41.7931216 C75.8471694,41.768464 75.8246559,41.7470225 75.8010703,41.7223649 L75.5984486,41.5186712 L71.0260613,36.9441396 L67.5214577,40.4508874 C64.4681964,43.5030766 60.4693676,45.0297072 56.4673225,45.0297072 C52.4674216,45.0297072 48.4696649,43.5030766 45.4153315,40.4508874 C44.5823315,39.6146712 44.5823315,38.2595721 45.4153315,37.4265721 L66.6316378,16.2102658 C67.897755,14.9441486 69.2807279,13.8602838 70.7419622,12.9575991 C74.3451964,10.7298333 78.4469441,9.61809459 82.5444036,9.61809459 C88.3014306,9.61809459 94.0627459,11.8158423 98.4539532,16.2102658 L111.643656,3.02377928 L138.866782,32.4543018 Z" id="Fill-1" fill="#D18B4E"></path>
                    <path d="M123.589862,54.8966297 C121.516475,61.6860622 117.804961,67.9062243 112.726556,72.9846297 L108.371799,77.3404586 L81.2044207,50.1730802 L81.0543306,49.411909 C81.0543306,49.411909 110.883664,73.3159 123.587718,54.8966297 L123.589862,54.8966297 Z" id="Fill-3" fill="#9C6739"></path>
                    <path d="M111.325894,83.1808928 C111.325894,84.9637486 110.6462,86.7466045 109.285741,88.108136 C106.564822,90.8322712 102.150029,90.8322712 99.4291099,88.108136 L79.512155,68.1943973 L101.63865,90.3208928 C102.99911,91.6824243 103.678804,93.4642081 103.678804,95.248136 C103.678804,97.032064 102.99911,98.8192081 101.63865,100.178595 C98.9145153,102.900586 94.5018667,102.900586 91.7809477,100.178595 L86.5610288,94.9608207 C87.8818216,96.3127036 88.5411459,98.0719739 88.5411459,99.8269559 C88.5411459,101.610884 87.8603802,103.39374 86.4999207,104.755271 C83.7790018,107.47619 79.3652811,107.47619 76.6443622,104.755271 L69.9278306,98.0376676 C72.6487495,100.758586 72.6487495,105.172307 69.9278306,107.893226 C69.8838757,107.935037 69.8388486,107.98328 69.7927495,108.021875 C68.4505153,109.298713 66.7223351,109.936595 64.9962991,109.936595 C63.2123712,109.936595 61.4284432,109.256902 60.0669117,107.893226 L31.8896414,79.7148838 L29.4967766,77.3241631 L25.1559568,72.9844153 C18.0920739,65.9183883 13.6708486,56.6406766 12.635227,46.7068568 L0.790974775,34.8615324 L14.9123081,20.5043432 L34.2792901,0.811451351 L52.4198216,18.9509108 C55.7228757,15.6500009 60.0508306,13.9990099 64.3766414,13.9990099 C66.1166144,13.9990099 67.8587315,14.2648838 69.5354523,14.8009198 C68.0731459,15.7036045 66.690173,16.7863973 65.4251279,18.0525144 L44.2088216,39.2688207 C43.3747495,40.1018207 43.3747495,41.4569198 44.2088216,42.293136 C47.2620829,45.3453252 51.2609117,46.8708838 55.2597405,46.8708838 C59.2628577,46.8708838 63.2606144,45.3453252 66.3149477,42.293136 L69.8184793,38.7874604 L74.3919387,43.3609198 L74.485209,43.453118 L74.5934883,43.5646135 C74.6181459,43.5881991 74.6395874,43.6107126 74.6685333,43.6342982 L108.371263,77.3402441 L109.285741,78.2525775 C110.6462,79.6130369 111.325894,81.3969649 111.325894,83.1808928" id="Fill-5" fill="#FBD2AE"></path>
                    <path d="M39.3546937,87.1791856 L39.3514775,87.1824018 C39.2078198,87.3271315 39.0609459,87.4611405 38.9108559,87.5844288 C36.1727838,89.8979604 32.0731802,89.7596631 29.4937748,87.1824018 C28.1322432,85.8208703 27.4525495,84.0380144 27.4525495,82.2551586 C27.4525495,80.4712306 28.1322432,78.6873027 29.4937748,77.3279153 L29.496991,77.3246991 L31.8898559,79.7143477 L39.3546937,87.1791856 Z" id="Fill-7" fill="#995C0D"></path>
                    <path d="M39.3546937,87.1791856 L49.6433694,97.4678613 L49.207036,97.8988342 L48.6098919,97.8141405 C45.8761081,100.284195 41.6510721,100.200573 39.0148468,97.5654198 C37.6533153,96.2017441 36.9736216,94.4188883 36.9736216,92.6349604 C36.9736216,90.8510324 37.6533153,89.0681766 39.0148468,87.705573 L38.9108559,87.5844288 C39.0609459,87.4611405 39.2078198,87.3271315 39.3514775,87.1824018 L39.3546937,87.1791856 Z" id="Fill-9" fill="#995C0D"></path>
                    <path d="M59.4978559,107.32342 L59.0625946,107.758681 C57.7021351,109.118068 55.9192793,109.799906 54.1353514,109.799906 C52.3524955,109.799906 50.5685676,109.118068 49.207036,107.758681 C46.4861171,105.032402 46.4861171,100.620825 49.207036,97.8988342 L49.6433694,97.4678613 L59.4978559,107.32342 Z" id="Fill-11" fill="#995C0D"></path>
                    <path d="" id="Fill-13" fill="#FFFFFF"></path>
                </g>
                <g id="Group-20" transform="translate(3.216216, 4.279712)">
                    <path d="" id="Fill-16" fill="#FFFFFF"></path>
                    <path d="M52.9785856,108.278207 C51.5763153,106.874865 51.258982,104.800405 52.0115766,103.087234 L58.1684865,109.243072 C57.5820631,109.50573 56.942036,109.645099 56.2794955,109.645099 C55.0316036,109.645099 53.8587568,109.15945 52.9785856,108.278207 M42.7853243,98.0870901 C41.9019369,97.2015586 41.4162883,96.0265676 41.4162883,94.7786757 C41.4162883,94.1172072 41.5567297,93.4793243 41.8161712,92.8918288 L47.9762973,99.053027 C46.2577658,99.8141982 44.1865225,99.4861441 42.7853243,98.0870901 M33.2621081,87.7019279 C32.3808649,86.8196126 31.8962883,85.6478378 31.8962883,84.3999459 C31.8962883,83.970045 31.9573964,83.5497928 32.0678198,83.1456216 L37.8141261,88.8908559 C36.2392523,89.3196847 34.4789099,88.9165856 33.2621081,87.7019279 M141.429892,34.8166126 C140.531495,33.9203604 139.077766,33.9182162 138.178297,34.8166126 L125.770135,47.2247748 C125.398126,47.5967838 125.164414,48.0867207 125.109739,48.612036 C124.129865,57.9915946 119.91555,66.8319009 113.245117,73.5023333 L110.515622,76.2318288 L90.039045,55.7573964 C91.0285676,55.9364324 92.0406036,56.0382793 93.0622883,56.0382793 C94.8773063,56.0382793 96.731991,55.722018 98.5727387,54.9672793 C99.7488018,54.486991 100.310568,53.1447568 99.8302793,51.9697658 C99.3510631,50.7969189 98.0099009,50.2308649 96.8327658,50.7143694 C88.8501171,53.9788288 79.461982,45.1513874 78.4167117,44.133991 C78.3984865,44.1168378 75.2144324,40.9327838 75.2144324,40.9327838 L78.4939009,37.6533153 C79.3922973,36.7549189 79.3922973,35.3022613 78.4939009,34.4027928 C77.5965766,33.5054685 76.1396306,33.5054685 75.2433784,34.4027928 L66.834045,42.8131982 C64.3146757,45.3304234 60.9665946,46.7176847 57.4051712,46.7176847 C53.8962793,46.7176847 50.5942973,45.3711622 48.0931532,42.9236216 L69.1947477,21.820955 C70.3118468,20.7049279 71.5533063,19.7229099 72.886964,18.9006306 C76.0592252,16.9408829 79.7214234,15.9041892 83.4811802,15.9041892 C88.877991,15.9041892 93.9531802,18.0043784 97.7665405,21.820955 C98.1975135,22.253 98.7817928,22.4952883 99.3907297,22.4952883 L99.3928739,22.4952883 C100.000739,22.4952883 100.58609,22.253 101.017063,21.820955 L114.206766,8.63661261 C115.10409,7.73821622 115.10409,6.28234234 114.206766,5.38394595 C113.309441,4.48769369 111.85464,4.48662162 110.957315,5.38394595 L99.3189009,17.0191441 C94.8783784,13.3204955 89.3346937,11.3060721 83.4811802,11.3060721 C79.2154054,11.3060721 75.0493333,12.3963694 71.3635495,14.4654685 C69.7865315,14.0548649 68.1623423,13.8436667 66.521,13.8436667 C62.1651712,13.8436667 58.0312613,15.2845315 54.6595946,17.9411261 L38.0489099,1.33044144 C37.1515856,0.433117117 35.6967838,0.433117117 34.7994595,1.33044144 C33.9021351,2.22669369 33.9021351,3.68363964 34.7994595,4.57989189 L52.9378468,22.7193514 C53.387045,23.1685495 53.9756126,23.3936847 54.5641802,23.3936847 C55.1506036,23.3936847 55.7391712,23.1685495 56.1883694,22.7204234 C58.8438919,20.0691892 62.3367027,18.5650721 66.0675135,18.4525045 C66.0278468,18.4921712 44.728991,39.7888829 44.728991,39.7888829 C43.0018829,41.515991 42.9997387,44.3291081 44.728991,46.0626486 C48.1145946,49.4503964 52.6172973,51.3158018 57.4051712,51.3158018 C62.1951892,51.3158018 66.6968198,49.4503964 70.0824234,46.0626486 L71.9628378,44.1822342 L109.803766,82.0231622 C110.686081,82.9054775 111.17173,84.0772523 111.17173,85.3251441 C111.17173,86.573036 110.686081,87.7458829 109.802694,88.6292703 C108.92145,89.5115856 107.748604,89.9983063 106.500712,89.9983063 C105.254964,89.9983063 104.082117,89.5115856 103.19873,88.6281982 L103.197658,88.6292703 L74.5701171,60.006018 C73.6717207,59.1076216 72.2158468,59.1076216 71.3185225,60.006018 C70.4222703,60.9044144 70.4222703,62.3581441 71.3195946,63.2565405 L102.157748,94.0925495 C103.040063,94.9737928 103.525712,96.1466396 103.525712,97.3945315 C103.525712,98.6445676 103.040063,99.8174144 102.157748,100.698658 C100.335225,102.520108 97.3698739,102.522252 95.5505676,100.700802 L90.3445856,95.496964 C90.3199279,95.468018 90.2941982,95.4401441 90.2663243,95.4144144 C90.2566757,95.4047658 90.247027,95.3961892 90.2384505,95.3886847 L66.3173063,71.4675405 C65.4189099,70.5702162 63.963036,70.5702162 63.0657117,71.4675405 C62.1683874,72.3637928 62.1683874,73.8196667 63.0657117,74.716991 L87.064045,98.7153243 C87.9174144,99.5890631 88.3859099,100.746901 88.3859099,101.972279 C88.3859099,103.220171 87.9002613,104.393018 87.0179459,105.275333 C85.1986396,107.095712 82.2354324,107.095712 80.4129099,105.275333 L54.3990811,79.2604324 C53.5006847,78.3631081 52.0448108,78.3631081 51.1474865,79.2604324 C50.2501622,80.1577568 50.2501622,81.6125586 51.1474865,82.5098829 L70.4458559,101.808252 C71.3281712,102.688423 71.8138198,103.862342 71.8138198,105.110234 C71.8138198,106.357054 71.3281712,107.530973 70.4426396,108.41436 C69.5624685,109.296676 68.3896216,109.783396 67.1385135,109.783396 C65.8927658,109.783396 64.7199189,109.297748 63.8376036,108.413288 L28.9255766,73.5023333 C22.2562162,66.8308288 18.042973,57.9894505 17.0663153,48.612036 C17.0105676,48.0867207 16.7768559,47.5967838 16.4059189,47.2247748 L4.55952252,35.3815946 C3.6621982,34.4831982 3.83158559,36.1073874 2.93426126,37.0057838 C2.03693694,37.900964 0.412747748,37.7337207 1.31007207,38.631045 L12.5871982,49.9092432 C13.8275856,60.0253153 18.4557207,69.5303063 25.6761261,76.755 L28.5921622,79.6688919 C27.7484414,81.0872432 27.2981712,82.7071441 27.2981712,84.3999459 C27.2981712,86.8742883 28.2608919,89.2017568 30.0126577,90.9535225 C31.8040901,92.7417387 34.1883784,93.6487117 36.576955,93.6487117 C36.6830901,93.6487117 36.7870811,93.637991 36.8910721,93.6358468 C36.846045,94.0110721 36.8203153,94.3938018 36.8203153,94.7786757 C36.8203153,97.2519459 37.781964,99.5804865 39.5326577,101.334396 C41.3423153,103.144054 43.7148108,104.055315 46.0926667,104.055315 C46.4175045,104.055315 46.7444865,104.033874 47.0693243,104.00064 C46.7895135,106.687252 47.673973,109.471423 49.7259189,111.526586 C51.4776847,113.278351 53.8051532,114.241072 56.2794955,114.241072 C58.2178018,114.241072 60.0639099,113.649288 61.6141261,112.551486 C63.2018649,113.73827 65.1208739,114.379369 67.1406577,114.379369 C69.6192883,114.379369 71.9478288,113.414505 73.6953063,111.662739 C74.8745856,110.483459 75.6957928,109.04045 76.1063964,107.468793 L77.1634595,108.523712 C78.9688288,110.332297 81.3423964,111.234982 83.717036,111.234982 C86.0884595,111.234982 88.462027,110.330153 90.2695405,108.523712 C91.4531081,107.340144 92.2753874,105.890703 92.685991,104.312613 C94.4366847,105.875694 96.6440811,106.657234 98.8525495,106.657234 C101.226117,106.657234 103.600757,105.75455 105.40827,103.94918 C107.158964,102.199559 108.122757,99.871018 108.122757,97.3923874 C108.122757,96.4007207 107.966234,95.4347838 107.668198,94.5192342 C109.700847,94.2651532 111.583405,93.3506757 113.05536,91.8765766 C114.804982,90.1258829 115.767703,87.7973423 115.767703,85.3251441 C115.767703,83.1874324 115.048342,81.1622883 113.726477,79.522018 L116.496712,76.7528559 C123.713901,69.5303063 128.343108,60.0253153 129.588856,49.9070991 L141.429892,38.0660631 C142.327216,37.1698108 142.327216,35.7139369 141.429892,34.8166126" id="Fill-18" fill="#000E46"></path>
                </g>
                <g id="Group-27" transform="translate(0.000000, 1.063495)">
                    <g id="Group-23" transform="translate(109.351351, 0.000000)">
                        <mask id="mask-2" fill="white">
                            <use xlink:href="#path-1"></use>
                        </mask>
                        <g id="Clip-22"></g>
                        <polygon id="Fill-21" fill="#000E46" mask="url(#mask-2)" points="39.7536117 44.6208189 0.33244955 2.71459369 3.19488198 0.0226207207 42.6171162 41.9256297"></polygon>
                    </g>
                    <g id="Group-26">
                        <mask id="mask-4" fill="white">
                            <use xlink:href="#path-3"></use>
                        </mask>
                        <g id="Clip-25"></g>
                        <polygon id="Fill-24" fill="#000E46" mask="url(#mask-4)" points="2.8739036 46.8476198 44.6879306 2.69004324 41.8137054 0.00879099099 -0.000321621622 44.1610072"></polygon>
                    </g>
                </g>
            </g>
        </g>
    </g>
</svg>