<?xml version="1.0" encoding="UTF-8" standalone="no"?>
<!DOCTYPE svg PUBLIC "-//W3C//DTD SVG 1.1//EN"
 "http://www.w3.org/Graphics/SVG/1.1/DTD/svg11.dtd">
<!-- Generated by graphviz version 2.38.0 (20140413.2041)
 -->
<!-- Title: controllers_diagram Pages: 1 -->
<svg width="627pt" height="622pt"
 viewBox="0.00 0.00 626.86 622.00" xmlns="http://www.w3.org/2000/svg" xmlns:xlink="http://www.w3.org/1999/xlink">
<g id="graph0" class="graph" transform="scale(1 1) rotate(0) translate(242.033 363.5)">
<title>controllers_diagram</title>
<polygon fill="none" stroke="none" points="-242.033,258.5 -242.033,-363.5 384.824,-363.5 384.824,258.5 -242.033,258.5"/>
<!-- _diagram_info -->
<g id="node1" class="node"><title>_diagram_info</title>
<text text-anchor="start" x="-195.688" y="144.9" font-family="Times,serif" font-size="13.00">Controllers diagram</text>
<text text-anchor="start" x="-195.688" y="157.9" font-family="Times,serif" font-size="13.00">Date: Jan 09 2017 &#45; 13:06</text>
<text text-anchor="start" x="-195.688" y="170.9" font-family="Times,serif" font-size="13.00">Migration version: 20161222135844</text>
<text text-anchor="start" x="-195.688" y="183.9" font-family="Times,serif" font-size="13.00">Generated by RailRoady 1.5.2</text>
<text text-anchor="start" x="-195.688" y="196.9" font-family="Times,serif" font-size="13.00">http://railroady.prestonlee.com</text>
</g>
<!-- ApplicationController -->
<g id="node2" class="node"><title>ApplicationController</title>
<path fill="none" stroke="black" d="M46.1792,237C46.1792,237 161.821,237 161.821,237 167.821,237 173.821,231 173.821,225 173.821,225 173.821,157 173.821,157 173.821,151 167.821,145 161.821,145 161.821,145 46.1792,145 46.1792,145 40.1792,145 34.1792,151 34.1792,157 34.1792,157 34.1792,225 34.1792,225 34.1792,231 40.1792,237 46.1792,237"/>
<text text-anchor="middle" x="104" y="160.2" font-family="Times,serif" font-size="14.00">ApplicationController</text>
<polyline fill="none" stroke="black" points="34.1792,167 173.821,167 "/>
<polyline fill="none" stroke="black" points="34.1792,191 173.821,191 "/>
<polyline fill="none" stroke="black" points="34.1792,215 173.821,215 "/>
<text text-anchor="start" x="42.1792" y="230.2" font-family="Times,serif" font-size="14.00">_layout</text>
</g>
<!-- ArticlesController -->
<g id="node3" class="node"><title>ArticlesController</title>
<path fill="none" stroke="black" d="M-21.9312,-120C-21.9312,-120 71.9312,-120 71.9312,-120 77.9312,-120 83.9312,-126 83.9312,-132 83.9312,-132 83.9312,-324 83.9312,-324 83.9312,-330 77.9312,-336 71.9312,-336 71.9312,-336 -21.9312,-336 -21.9312,-336 -27.9312,-336 -33.9312,-330 -33.9312,-324 -33.9312,-324 -33.9312,-132 -33.9312,-132 -33.9312,-126 -27.9312,-120 -21.9312,-120"/>
<text text-anchor="middle" x="25" y="-320.8" font-family="Times,serif" font-size="14.00">ArticlesController</text>
<polyline fill="none" stroke="black" points="-33.9312,-314 83.9312,-314 "/>
<text text-anchor="start" x="-25.9312" y="-298.8" font-family="Times,serif" font-size="14.00">index</text>
<text text-anchor="start" x="-25.9312" y="-284.8" font-family="Times,serif" font-size="14.00">destroy</text>
<text text-anchor="start" x="-25.9312" y="-270.8" font-family="Times,serif" font-size="14.00">edit</text>
<text text-anchor="start" x="-25.9312" y="-256.8" font-family="Times,serif" font-size="14.00">create</text>
<text text-anchor="start" x="-25.9312" y="-242.8" font-family="Times,serif" font-size="14.00">new</text>
<text text-anchor="start" x="-25.9312" y="-228.8" font-family="Times,serif" font-size="14.00">show</text>
<text text-anchor="start" x="-25.9312" y="-214.8" font-family="Times,serif" font-size="14.00">update</text>
<polyline fill="none" stroke="black" points="-33.9312,-208 83.9312,-208 "/>
<polyline fill="none" stroke="black" points="-33.9312,-184 83.9312,-184 "/>
<text text-anchor="start" x="-25.9312" y="-168.8" font-family="Times,serif" font-size="14.00">_layout</text>
<text text-anchor="start" x="-25.9312" y="-154.8" font-family="Times,serif" font-size="14.00">catch_not_found</text>
<text text-anchor="start" x="-25.9312" y="-140.8" font-family="Times,serif" font-size="14.00">logged_in_user</text>
<text text-anchor="start" x="-25.9312" y="-126.8" font-family="Times,serif" font-size="14.00">news_params</text>
</g>
<!-- FactsController -->
<g id="node4" class="node"><title>FactsController</title>
<path fill="none" stroke="black" d="M-157.548,-171C-157.548,-171 -78.4517,-171 -78.4517,-171 -72.4517,-171 -66.4517,-177 -66.4517,-183 -66.4517,-183 -66.4517,-347 -66.4517,-347 -66.4517,-353 -72.4517,-359 -78.4517,-359 -78.4517,-359 -157.548,-359 -157.548,-359 -163.548,-359 -169.548,-353 -169.548,-347 -169.548,-347 -169.548,-183 -169.548,-183 -169.548,-177 -163.548,-171 -157.548,-171"/>
<text text-anchor="middle" x="-118" y="-343.8" font-family="Times,serif" font-size="14.00">FactsController</text>
<polyline fill="none" stroke="black" points="-169.548,-337 -66.4517,-337 "/>
<text text-anchor="start" x="-161.548" y="-321.8" font-family="Times,serif" font-size="14.00">index</text>
<text text-anchor="start" x="-161.548" y="-307.8" font-family="Times,serif" font-size="14.00">destroy</text>
<text text-anchor="start" x="-161.548" y="-293.8" font-family="Times,serif" font-size="14.00">edit</text>
<text text-anchor="start" x="-161.548" y="-279.8" font-family="Times,serif" font-size="14.00">create</text>
<text text-anchor="start" x="-161.548" y="-265.8" font-family="Times,serif" font-size="14.00">new</text>
<text text-anchor="start" x="-161.548" y="-251.8" font-family="Times,serif" font-size="14.00">show</text>
<text text-anchor="start" x="-161.548" y="-237.8" font-family="Times,serif" font-size="14.00">update</text>
<polyline fill="none" stroke="black" points="-169.548,-231 -66.4517,-231 "/>
<polyline fill="none" stroke="black" points="-169.548,-207 -66.4517,-207 "/>
<text text-anchor="start" x="-161.548" y="-191.8" font-family="Times,serif" font-size="14.00">_layout</text>
<text text-anchor="start" x="-161.548" y="-177.8" font-family="Times,serif" font-size="14.00">fact_params</text>
</g>
<!-- FavoritesController -->
<g id="node5" class="node"><title>FavoritesController</title>
<path fill="none" stroke="black" d="M267.176,254C267.176,254 368.824,254 368.824,254 374.824,254 380.824,248 380.824,242 380.824,242 380.824,148 380.824,148 380.824,142 374.824,136 368.824,136 368.824,136 267.176,136 267.176,136 261.176,136 255.176,142 255.176,148 255.176,148 255.176,242 255.176,242 255.176,248 261.176,254 267.176,254"/>
<text text-anchor="middle" x="318" y="151.2" font-family="Times,serif" font-size="14.00">FavoritesController</text>
<polyline fill="none" stroke="black" points="255.176,158 380.824,158 "/>
<text text-anchor="start" x="263.176" y="173.2" font-family="Times,serif" font-size="14.00">create</text>
<text text-anchor="start" x="263.176" y="187.2" font-family="Times,serif" font-size="14.00">destroy</text>
<polyline fill="none" stroke="black" points="255.176,194 380.824,194 "/>
<polyline fill="none" stroke="black" points="255.176,218 380.824,218 "/>
<text text-anchor="start" x="263.176" y="233.2" font-family="Times,serif" font-size="14.00">_layout</text>
<text text-anchor="start" x="263.176" y="247.2" font-family="Times,serif" font-size="14.00">set_article</text>
</g>
<!-- PasswordResetsController -->
<g id="node6" class="node"><title>PasswordResetsController</title>
<path fill="none" stroke="black" d="M-72.8828,101C-72.8828,101 66.8828,101 66.8828,101 72.8828,101 78.8828,95 78.8828,89 78.8828,89 78.8828,-75 78.8828,-75 78.8828,-81 72.8828,-87 66.8828,-87 66.8828,-87 -72.8828,-87 -72.8828,-87 -78.8828,-87 -84.8828,-81 -84.8828,-75 -84.8828,-75 -84.8828,89 -84.8828,89 -84.8828,95 -78.8828,101 -72.8828,101"/>
<text text-anchor="middle" x="-3" y="-71.8" font-family="Times,serif" font-size="14.00">PasswordResetsController</text>
<polyline fill="none" stroke="black" points="-84.8828,-65 78.8828,-65 "/>
<text text-anchor="start" x="-76.8828" y="-49.8" font-family="Times,serif" font-size="14.00">create</text>
<text text-anchor="start" x="-76.8828" y="-35.8" font-family="Times,serif" font-size="14.00">edit</text>
<text text-anchor="start" x="-76.8828" y="-21.8" font-family="Times,serif" font-size="14.00">new</text>
<text text-anchor="start" x="-76.8828" y="-7.8" font-family="Times,serif" font-size="14.00">update</text>
<polyline fill="none" stroke="black" points="-84.8828,-1 78.8828,-1 "/>
<polyline fill="none" stroke="black" points="-84.8828,23 78.8828,23 "/>
<text text-anchor="start" x="-76.8828" y="38.2" font-family="Times,serif" font-size="14.00">_layout</text>
<text text-anchor="start" x="-76.8828" y="52.2" font-family="Times,serif" font-size="14.00">check_expiration</text>
<text text-anchor="start" x="-76.8828" y="66.2" font-family="Times,serif" font-size="14.00">get_user</text>
<text text-anchor="start" x="-76.8828" y="80.2" font-family="Times,serif" font-size="14.00">user_params</text>
<text text-anchor="start" x="-76.8828" y="94.2" font-family="Times,serif" font-size="14.00">valid_user</text>
</g>
<!-- SessionsController -->
<g id="node7" class="node"><title>SessionsController</title>
<path fill="none" stroke="black" d="M-225.89,-18C-225.89,-18 -128.11,-18 -128.11,-18 -122.11,-18 -116.11,-24 -116.11,-30 -116.11,-30 -116.11,-124 -116.11,-124 -116.11,-130 -122.11,-136 -128.11,-136 -128.11,-136 -225.89,-136 -225.89,-136 -231.89,-136 -237.89,-130 -237.89,-124 -237.89,-124 -237.89,-30 -237.89,-30 -237.89,-24 -231.89,-18 -225.89,-18"/>
<text text-anchor="middle" x="-177" y="-120.8" font-family="Times,serif" font-size="14.00">SessionsController</text>
<polyline fill="none" stroke="black" points="-237.89,-114 -116.11,-114 "/>
<text text-anchor="start" x="-229.89" y="-98.8" font-family="Times,serif" font-size="14.00">create</text>
<text text-anchor="start" x="-229.89" y="-84.8" font-family="Times,serif" font-size="14.00">destroy</text>
<text text-anchor="start" x="-229.89" y="-70.8" font-family="Times,serif" font-size="14.00">new</text>
<polyline fill="none" stroke="black" points="-237.89,-64 -116.11,-64 "/>
<polyline fill="none" stroke="black" points="-237.89,-40 -116.11,-40 "/>
<text text-anchor="start" x="-229.89" y="-24.8" font-family="Times,serif" font-size="14.00">_layout</text>
</g>
<!-- SpecialistsController -->
<g id="node8" class="node"><title>SpecialistsController</title>
<path fill="none" stroke="black" d="M148.286,-137C148.286,-137 257.714,-137 257.714,-137 263.714,-137 269.714,-143 269.714,-149 269.714,-149 269.714,-313 269.714,-313 269.714,-319 263.714,-325 257.714,-325 257.714,-325 148.286,-325 148.286,-325 142.286,-325 136.286,-319 136.286,-313 136.286,-313 136.286,-149 136.286,-149 136.286,-143 142.286,-137 148.286,-137"/>
<text text-anchor="middle" x="203" y="-309.8" font-family="Times,serif" font-size="14.00">SpecialistsController</text>
<polyline fill="none" stroke="black" points="136.286,-303 269.714,-303 "/>
<text text-anchor="start" x="144.286" y="-287.8" font-family="Times,serif" font-size="14.00">index</text>
<text text-anchor="start" x="144.286" y="-273.8" font-family="Times,serif" font-size="14.00">destroy</text>
<text text-anchor="start" x="144.286" y="-259.8" font-family="Times,serif" font-size="14.00">edit</text>
<text text-anchor="start" x="144.286" y="-245.8" font-family="Times,serif" font-size="14.00">create</text>
<text text-anchor="start" x="144.286" y="-231.8" font-family="Times,serif" font-size="14.00">new</text>
<text text-anchor="start" x="144.286" y="-217.8" font-family="Times,serif" font-size="14.00">show</text>
<text text-anchor="start" x="144.286" y="-203.8" font-family="Times,serif" font-size="14.00">update</text>
<polyline fill="none" stroke="black" points="136.286,-197 269.714,-197 "/>
<polyline fill="none" stroke="black" points="136.286,-173 269.714,-173 "/>
<text text-anchor="start" x="144.286" y="-157.8" font-family="Times,serif" font-size="14.00">_layout</text>
<text text-anchor="start" x="144.286" y="-143.8" font-family="Times,serif" font-size="14.00">specialist_params</text>
</g>
<!-- UsersController -->
<g id="node9" class="node"><title>UsersController</title>
<path fill="none" stroke="black" d="M131.286,118C131.286,118 212.714,118 212.714,118 218.714,118 224.714,112 224.714,106 224.714,106 224.714,-86 224.714,-86 224.714,-92 218.714,-98 212.714,-98 212.714,-98 131.286,-98 131.286,-98 125.286,-98 119.286,-92 119.286,-86 119.286,-86 119.286,106 119.286,106 119.286,112 125.286,118 131.286,118"/>
<text text-anchor="middle" x="172" y="-82.8" font-family="Times,serif" font-size="14.00">UsersController</text>
<polyline fill="none" stroke="black" points="119.286,-76 224.714,-76 "/>
<text text-anchor="start" x="127.286" y="-60.8" font-family="Times,serif" font-size="14.00">update</text>
<text text-anchor="start" x="127.286" y="-46.8" font-family="Times,serif" font-size="14.00">destroy</text>
<text text-anchor="start" x="127.286" y="-32.8" font-family="Times,serif" font-size="14.00">edit</text>
<text text-anchor="start" x="127.286" y="-18.8" font-family="Times,serif" font-size="14.00">favorites</text>
<text text-anchor="start" x="127.286" y="-4.8" font-family="Times,serif" font-size="14.00">index</text>
<text text-anchor="start" x="127.286" y="9.2" font-family="Times,serif" font-size="14.00">new</text>
<text text-anchor="start" x="127.286" y="23.2" font-family="Times,serif" font-size="14.00">show</text>
<text text-anchor="start" x="127.286" y="37.2" font-family="Times,serif" font-size="14.00">create</text>
<polyline fill="none" stroke="black" points="119.286,44 224.714,44 "/>
<polyline fill="none" stroke="black" points="119.286,68 224.714,68 "/>
<text text-anchor="start" x="127.286" y="83.2" font-family="Times,serif" font-size="14.00">_layout</text>
<text text-anchor="start" x="127.286" y="97.2" font-family="Times,serif" font-size="14.00">correct_user</text>
<text text-anchor="start" x="127.286" y="111.2" font-family="Times,serif" font-size="14.00">user_params</text>
</g>
<!-- WelcomeController -->
<g id="node10" class="node"><title>WelcomeController</title>
<path fill="none" stroke="black" d="M-226.033,101C-226.033,101 -123.967,101 -123.967,101 -117.967,101 -111.967,95 -111.967,89 -111.967,89 -111.967,23 -111.967,23 -111.967,17 -117.967,11 -123.967,11 -123.967,11 -226.033,11 -226.033,11 -232.033,11 -238.033,17 -238.033,23 -238.033,23 -238.033,89 -238.033,89 -238.033,95 -232.033,101 -226.033,101"/>
<text text-anchor="middle" x="-175" y="26.2" font-family="Times,serif" font-size="14.00">WelcomeController</text>
<polyline fill="none" stroke="black" points="-238.033,33 -111.967,33 "/>
<text text-anchor="start" x="-230.033" y="48.2" font-family="Times,serif" font-size="14.00">index</text>
<polyline fill="none" stroke="black" points="-238.033,55 -111.967,55 "/>
<polyline fill="none" stroke="black" points="-238.033,79 -111.967,79 "/>
<text text-anchor="start" x="-230.033" y="94.2" font-family="Times,serif" font-size="14.00">_layout</text>
</g>
</g>
</svg>
