<?xml version="1.0" encoding="UTF-8" standalone="no"?>
<!DOCTYPE svg PUBLIC "-//W3C//DTD SVG 1.1//EN"
 "http://www.w3.org/Graphics/SVG/1.1/DTD/svg11.dtd">
<!-- Generated by graphviz version 2.38.0 (20140413.2041)
 -->
<!-- Title: controllers_diagram Pages: 1 -->
<svg width="478pt" height="425pt"
 viewBox="0.00 0.00 477.65 425.00" xmlns="http://www.w3.org/2000/svg" xmlns:xlink="http://www.w3.org/1999/xlink">
<g id="graph0" class="graph" transform="scale(1 1) rotate(0) translate(198.824 226.5)">
<title>controllers_diagram</title>
<polygon fill="none" stroke="none" points="-198.824,198.5 -198.824,-226.5 278.821,-226.5 278.821,198.5 -198.824,198.5"/>
<!-- _diagram_info -->
<g id="node1" class="node"><title>_diagram_info</title>
<text text-anchor="start" x="-96.6877" y="-14.1" font-family="Times,serif" font-size="13.00">Controllers diagram</text>
<text text-anchor="start" x="-96.6877" y="-1.1" font-family="Times,serif" font-size="13.00">Date: Dec 08 2016 &#45; 23:53</text>
<text text-anchor="start" x="-96.6877" y="11.9" font-family="Times,serif" font-size="13.00">Migration version: 20161208143715</text>
<text text-anchor="start" x="-96.6877" y="24.9" font-family="Times,serif" font-size="13.00">Generated by RailRoady 1.5.2</text>
<text text-anchor="start" x="-96.6877" y="37.9" font-family="Times,serif" font-size="13.00">http://railroady.prestonlee.com</text>
</g>
<!-- ApplicationController -->
<g id="node2" class="node"><title>ApplicationController</title>
<path fill="none" stroke="black" d="M147.179,134C147.179,134 262.821,134 262.821,134 268.821,134 274.821,128 274.821,122 274.821,122 274.821,54 274.821,54 274.821,48 268.821,42 262.821,42 262.821,42 147.179,42 147.179,42 141.179,42 135.179,48 135.179,54 135.179,54 135.179,122 135.179,122 135.179,128 141.179,134 147.179,134"/>
<text text-anchor="middle" x="205" y="57.2" font-family="Times,serif" font-size="14.00">ApplicationController</text>
<polyline fill="none" stroke="black" points="135.179,64 274.821,64 "/>
<polyline fill="none" stroke="black" points="135.179,88 274.821,88 "/>
<polyline fill="none" stroke="black" points="135.179,112 274.821,112 "/>
<text text-anchor="start" x="143.179" y="127.2" font-family="Times,serif" font-size="14.00">_layout</text>
</g>
<!-- ArticlesController -->
<g id="node3" class="node"><title>ArticlesController</title>
<path fill="none" stroke="black" d="M72.0688,-61C72.0688,-61 165.931,-61 165.931,-61 171.931,-61 177.931,-67 177.931,-73 177.931,-73 177.931,-209 177.931,-209 177.931,-215 171.931,-221 165.931,-221 165.931,-221 72.0688,-221 72.0688,-221 66.0688,-221 60.0688,-215 60.0688,-209 60.0688,-209 60.0688,-73 60.0688,-73 60.0688,-67 66.0688,-61 72.0688,-61"/>
<text text-anchor="middle" x="119" y="-205.8" font-family="Times,serif" font-size="14.00">ArticlesController</text>
<polyline fill="none" stroke="black" points="60.0688,-199 177.931,-199 "/>
<text text-anchor="start" x="68.0688" y="-183.8" font-family="Times,serif" font-size="14.00">create</text>
<text text-anchor="start" x="68.0688" y="-169.8" font-family="Times,serif" font-size="14.00">destroy</text>
<text text-anchor="start" x="68.0688" y="-155.8" font-family="Times,serif" font-size="14.00">index</text>
<text text-anchor="start" x="68.0688" y="-141.8" font-family="Times,serif" font-size="14.00">new</text>
<text text-anchor="start" x="68.0688" y="-127.8" font-family="Times,serif" font-size="14.00">show</text>
<polyline fill="none" stroke="black" points="60.0688,-121 177.931,-121 "/>
<polyline fill="none" stroke="black" points="60.0688,-97 177.931,-97 "/>
<text text-anchor="start" x="68.0688" y="-81.8" font-family="Times,serif" font-size="14.00">_layout</text>
<text text-anchor="start" x="68.0688" y="-67.8" font-family="Times,serif" font-size="14.00">news_params</text>
</g>
<!-- FavoritesController -->
<g id="node4" class="node"><title>FavoritesController</title>
<path fill="none" stroke="black" d="M-182.824,194C-182.824,194 -81.1758,194 -81.1758,194 -75.1758,194 -69.1758,188 -69.1758,182 -69.1758,182 -69.1758,88 -69.1758,88 -69.1758,82 -75.1758,76 -81.1758,76 -81.1758,76 -182.824,76 -182.824,76 -188.824,76 -194.824,82 -194.824,88 -194.824,88 -194.824,182 -194.824,182 -194.824,188 -188.824,194 -182.824,194"/>
<text text-anchor="middle" x="-132" y="91.2" font-family="Times,serif" font-size="14.00">FavoritesController</text>
<polyline fill="none" stroke="black" points="-194.824,98 -69.1758,98 "/>
<text text-anchor="start" x="-186.824" y="113.2" font-family="Times,serif" font-size="14.00">create</text>
<text text-anchor="start" x="-186.824" y="127.2" font-family="Times,serif" font-size="14.00">destroy</text>
<polyline fill="none" stroke="black" points="-194.824,134 -69.1758,134 "/>
<polyline fill="none" stroke="black" points="-194.824,158 -69.1758,158 "/>
<text text-anchor="start" x="-186.824" y="173.2" font-family="Times,serif" font-size="14.00">_layout</text>
<text text-anchor="start" x="-186.824" y="187.2" font-family="Times,serif" font-size="14.00">set_article</text>
</g>
<!-- SessionsController -->
<g id="node5" class="node"><title>SessionsController</title>
<path fill="none" stroke="black" d="M-32.8896,194C-32.8896,194 64.8896,194 64.8896,194 70.8896,194 76.8896,188 76.8896,182 76.8896,182 76.8896,88 76.8896,88 76.8896,82 70.8896,76 64.8896,76 64.8896,76 -32.8896,76 -32.8896,76 -38.8896,76 -44.8896,82 -44.8896,88 -44.8896,88 -44.8896,182 -44.8896,182 -44.8896,188 -38.8896,194 -32.8896,194"/>
<text text-anchor="middle" x="16" y="91.2" font-family="Times,serif" font-size="14.00">SessionsController</text>
<polyline fill="none" stroke="black" points="-44.8896,98 76.8896,98 "/>
<text text-anchor="start" x="-36.8896" y="113.2" font-family="Times,serif" font-size="14.00">create</text>
<text text-anchor="start" x="-36.8896" y="127.2" font-family="Times,serif" font-size="14.00">destroy</text>
<text text-anchor="start" x="-36.8896" y="141.2" font-family="Times,serif" font-size="14.00">new</text>
<polyline fill="none" stroke="black" points="-44.8896,148 76.8896,148 "/>
<polyline fill="none" stroke="black" points="-44.8896,172 76.8896,172 "/>
<text text-anchor="start" x="-36.8896" y="187.2" font-family="Times,serif" font-size="14.00">_layout</text>
</g>
<!-- UsersController -->
<g id="node6" class="node"><title>UsersController</title>
<path fill="none" stroke="black" d="M-62.7139,-76C-62.7139,-76 18.7139,-76 18.7139,-76 24.7139,-76 30.7139,-82 30.7139,-88 30.7139,-88 30.7139,-210 30.7139,-210 30.7139,-216 24.7139,-222 18.7139,-222 18.7139,-222 -62.7139,-222 -62.7139,-222 -68.7139,-222 -74.7139,-216 -74.7139,-210 -74.7139,-210 -74.7139,-88 -74.7139,-88 -74.7139,-82 -68.7139,-76 -62.7139,-76"/>
<text text-anchor="middle" x="-22" y="-206.8" font-family="Times,serif" font-size="14.00">UsersController</text>
<polyline fill="none" stroke="black" points="-74.7139,-200 30.7139,-200 "/>
<text text-anchor="start" x="-66.7139" y="-184.8" font-family="Times,serif" font-size="14.00">create</text>
<text text-anchor="start" x="-66.7139" y="-170.8" font-family="Times,serif" font-size="14.00">favorites</text>
<text text-anchor="start" x="-66.7139" y="-156.8" font-family="Times,serif" font-size="14.00">new</text>
<text text-anchor="start" x="-66.7139" y="-142.8" font-family="Times,serif" font-size="14.00">show</text>
<polyline fill="none" stroke="black" points="-74.7139,-136 30.7139,-136 "/>
<polyline fill="none" stroke="black" points="-74.7139,-112 30.7139,-112 "/>
<text text-anchor="start" x="-66.7139" y="-96.8" font-family="Times,serif" font-size="14.00">_layout</text>
<text text-anchor="start" x="-66.7139" y="-82.8" font-family="Times,serif" font-size="14.00">user_params</text>
</g>
</g>
</svg>
