<?xml version="1.0" encoding="UTF-8" standalone="no"?>
<!DOCTYPE svg PUBLIC "-//W3C//DTD SVG 1.1//EN"
 "http://www.w3.org/Graphics/SVG/1.1/DTD/svg11.dtd">
<!-- Generated by graphviz version 2.38.0 (20140413.2041)
 -->
<!-- Title: models_diagram Pages: 1 -->
<svg width="743pt" height="297pt"
 viewBox="0.00 0.00 742.69 297.00" xmlns="http://www.w3.org/2000/svg" xmlns:xlink="http://www.w3.org/1999/xlink">
<g id="graph0" class="graph" transform="scale(1 1) rotate(0) translate(4 293)">
<title>models_diagram</title>
<polygon fill="none" stroke="none" points="-4,4 -4,-293 738.688,-293 738.688,4 -4,4"/>
<!-- _diagram_info -->
<g id="node1" class="node"><title>_diagram_info</title>
<text text-anchor="start" x="8" y="-274.6" font-family="Times,serif" font-size="13.00">Models diagram</text>
<text text-anchor="start" x="8" y="-261.6" font-family="Times,serif" font-size="13.00">Date: Dec 08 2016 &#45; 23:52</text>
<text text-anchor="start" x="8" y="-248.6" font-family="Times,serif" font-size="13.00">Migration version: 20161208143715</text>
<text text-anchor="start" x="8" y="-235.6" font-family="Times,serif" font-size="13.00">Generated by RailRoady 1.5.2</text>
<text text-anchor="start" x="8" y="-222.6" font-family="Times,serif" font-size="13.00">http://railroady.prestonlee.com</text>
</g>
<!-- Answer -->
<g id="node2" class="node"><title>Answer</title>
<ellipse fill="none" stroke="black" cx="269.688" cy="-18" rx="37.7266" ry="18"/>
<text text-anchor="middle" x="269.688" y="-13.8" font-family="Times,serif" font-size="14.00">Answer</text>
</g>
<!-- ApplicationRecord -->
<g id="node3" class="node"><title>ApplicationRecord</title>
<ellipse fill="none" stroke="black" cx="409.688" cy="-252.5" rx="77.2916" ry="18"/>
<text text-anchor="middle" x="409.688" y="-248.3" font-family="Times,serif" font-size="14.00">ApplicationRecord</text>
</g>
<!-- Article -->
<g id="node4" class="node"><title>Article</title>
<ellipse fill="none" stroke="black" cx="269.688" cy="-162" rx="34.8198" ry="18"/>
<text text-anchor="middle" x="269.688" y="-157.8" font-family="Times,serif" font-size="14.00">Article</text>
</g>
<!-- Question -->
<g id="node7" class="node"><title>Question</title>
<ellipse fill="none" stroke="black" cx="269.688" cy="-90" rx="42.0784" ry="18"/>
<text text-anchor="middle" x="269.688" y="-85.8" font-family="Times,serif" font-size="14.00">Question</text>
</g>
<!-- Article&#45;&gt;Question -->
<g id="edge1" class="edge"><title>Article&#45;&gt;Question</title>
<path fill="none" stroke="#237586" d="M269.688,-135.64C269.688,-130.063 269.688,-124.132 269.688,-118.476"/>
<ellipse fill="none" stroke="#237586" cx="269.688" cy="-139.697" rx="4" ry="4"/>
<polygon fill="#237586" stroke="#237586" points="269.688,-118.104 274.188,-108.104 269.688,-113.104 269.688,-108.104 269.688,-108.104 269.688,-108.104 269.688,-113.104 265.188,-108.104 269.688,-118.104 269.688,-118.104"/>
</g>
<!-- Favorite -->
<g id="node5" class="node"><title>Favorite</title>
<ellipse fill="none" stroke="black" cx="531.688" cy="-162" rx="39.6558" ry="18"/>
<text text-anchor="middle" x="531.688" y="-157.8" font-family="Times,serif" font-size="14.00">Favorite</text>
</g>
<!-- NewsTag -->
<g id="node6" class="node"><title>NewsTag</title>
<ellipse fill="none" stroke="black" cx="619.688" cy="-252.5" rx="43.2559" ry="18"/>
<text text-anchor="middle" x="619.688" y="-248.3" font-family="Times,serif" font-size="14.00">NewsTag</text>
</g>
<!-- Question&#45;&gt;Answer -->
<g id="edge2" class="edge"><title>Question&#45;&gt;Answer</title>
<path fill="none" stroke="#ca4f3f" d="M269.688,-63.6398C269.688,-58.0629 269.688,-52.1319 269.688,-46.4761"/>
<ellipse fill="none" stroke="#ca4f3f" cx="269.688" cy="-67.6966" rx="4" ry="4"/>
<polygon fill="#ca4f3f" stroke="#ca4f3f" points="269.688,-46.1043 274.188,-36.1043 269.688,-41.1043 269.688,-36.1043 269.688,-36.1043 269.688,-36.1043 269.688,-41.1043 265.188,-36.1044 269.688,-46.1043 269.688,-46.1043"/>
</g>
<!-- Specialist -->
<g id="node8" class="node"><title>Specialist</title>
<ellipse fill="none" stroke="black" cx="269.688" cy="-252.5" rx="44.4837" ry="18"/>
<text text-anchor="middle" x="269.688" y="-248.3" font-family="Times,serif" font-size="14.00">Specialist</text>
</g>
<!-- Specialist&#45;&gt;Article -->
<g id="edge3" class="edge"><title>Specialist&#45;&gt;Article</title>
<path fill="none" stroke="#a3e427" d="M269.688,-226.189C269.688,-214.971 269.688,-201.752 269.688,-190.311"/>
<ellipse fill="none" stroke="#a3e427" cx="269.688" cy="-230.436" rx="4" ry="4"/>
<polygon fill="#a3e427" stroke="#a3e427" points="269.688,-190.011 274.188,-180.011 269.688,-185.011 269.688,-180.011 269.688,-180.011 269.688,-180.011 269.688,-185.011 265.188,-180.011 269.688,-190.011 269.688,-190.011"/>
</g>
<!-- Tag -->
<g id="node9" class="node"><title>Tag</title>
<ellipse fill="none" stroke="black" cx="707.688" cy="-252.5" rx="27" ry="18"/>
<text text-anchor="middle" x="707.688" y="-248.3" font-family="Times,serif" font-size="14.00">Tag</text>
</g>
<!-- User -->
<g id="node10" class="node"><title>User</title>
<ellipse fill="none" stroke="black" cx="531.688" cy="-252.5" rx="27" ry="18"/>
<text text-anchor="middle" x="531.688" y="-248.3" font-family="Times,serif" font-size="14.00">User</text>
</g>
<!-- User&#45;&gt;Favorite -->
<g id="edge4" class="edge"><title>User&#45;&gt;Favorite</title>
<path fill="none" stroke="#4cd0b6" d="M531.688,-226.189C531.688,-214.971 531.688,-201.752 531.688,-190.311"/>
<ellipse fill="none" stroke="#4cd0b6" cx="531.688" cy="-230.436" rx="4" ry="4"/>
<polygon fill="#4cd0b6" stroke="#4cd0b6" points="531.688,-190.011 536.188,-180.011 531.688,-185.011 531.688,-180.011 531.688,-180.011 531.688,-180.011 531.688,-185.011 527.188,-180.011 531.688,-190.011 531.688,-190.011"/>
</g>
</g>
</svg>
