<?xml version="1.0" encoding="UTF-8" standalone="no"?>
<!DOCTYPE svg PUBLIC "-//W3C//DTD SVG 1.1//EN"
 "http://www.w3.org/Graphics/SVG/1.1/DTD/svg11.dtd">
<!-- Generated by graphviz version 2.38.0 (20140413.2041)
 -->
<!-- Title: models_diagram Pages: 1 -->
<svg width="720pt" height="632pt"
 viewBox="0.00 0.00 719.96 632.00" xmlns="http://www.w3.org/2000/svg" xmlns:xlink="http://www.w3.org/1999/xlink">
<g id="graph0" class="graph" transform="scale(1 1) rotate(0) translate(4 628)">
<title>models_diagram</title>
<polygon fill="none" stroke="none" points="-4,4 -4,-628 715.959,-628 715.959,4 -4,4"/>
<!-- _diagram_info -->
<g id="node1" class="node"><title>_diagram_info</title>
<text text-anchor="start" x="8" y="-567.6" font-family="Times,serif" font-size="13.00">Models diagram</text>
<text text-anchor="start" x="8" y="-554.6" font-family="Times,serif" font-size="13.00">Date: Dec 08 2016 &#45; 23:52</text>
<text text-anchor="start" x="8" y="-541.6" font-family="Times,serif" font-size="13.00">Migration version: 20161208143715</text>
<text text-anchor="start" x="8" y="-528.6" font-family="Times,serif" font-size="13.00">Generated by RailRoady 1.5.2</text>
<text text-anchor="start" x="8" y="-515.6" font-family="Times,serif" font-size="13.00">http://railroady.prestonlee.com</text>
</g>
<!-- Answer -->
<g id="node2" class="node"><title>Answer</title>
<path fill="none" stroke="black" d="M237.182,-0.5C237.182,-0.5 346.193,-0.5 346.193,-0.5 352.193,-0.5 358.193,-6.5 358.193,-12.5 358.193,-12.5 358.193,-88.5 358.193,-88.5 358.193,-94.5 352.193,-100.5 346.193,-100.5 346.193,-100.5 237.182,-100.5 237.182,-100.5 231.182,-100.5 225.182,-94.5 225.182,-88.5 225.182,-88.5 225.182,-12.5 225.182,-12.5 225.182,-6.5 231.182,-0.5 237.182,-0.5"/>
<text text-anchor="middle" x="291.688" y="-85.3" font-family="Times,serif" font-size="14.00">Answer</text>
<polyline fill="none" stroke="black" points="225.182,-78.5 358.193,-78.5 "/>
<text text-anchor="start" x="233.182" y="-63.3" font-family="Times,serif" font-size="14.00">id :INTEGER</text>
<text text-anchor="start" x="233.182" y="-49.3" font-family="Times,serif" font-size="14.00">question_id :integer</text>
<text text-anchor="start" x="233.182" y="-35.3" font-family="Times,serif" font-size="14.00">content :varchar</text>
<text text-anchor="start" x="233.182" y="-21.3" font-family="Times,serif" font-size="14.00">created_at :datetime</text>
<text text-anchor="start" x="233.182" y="-7.3" font-family="Times,serif" font-size="14.00">updated_at :datetime</text>
</g>
<!-- ApplicationRecord -->
<g id="node3" class="node"><title>ApplicationRecord</title>
<ellipse fill="none" stroke="black" cx="453.688" cy="-545.5" rx="77.2916" ry="18"/>
<text text-anchor="middle" x="453.688" y="-541.3" font-family="Times,serif" font-size="14.00">ApplicationRecord</text>
</g>
<!-- Article -->
<g id="node4" class="node"><title>Article</title>
<path fill="none" stroke="black" d="M237.182,-274.5C237.182,-274.5 346.193,-274.5 346.193,-274.5 352.193,-274.5 358.193,-280.5 358.193,-286.5 358.193,-286.5 358.193,-418.5 358.193,-418.5 358.193,-424.5 352.193,-430.5 346.193,-430.5 346.193,-430.5 237.182,-430.5 237.182,-430.5 231.182,-430.5 225.182,-424.5 225.182,-418.5 225.182,-418.5 225.182,-286.5 225.182,-286.5 225.182,-280.5 231.182,-274.5 237.182,-274.5"/>
<text text-anchor="middle" x="291.688" y="-415.3" font-family="Times,serif" font-size="14.00">Article</text>
<polyline fill="none" stroke="black" points="225.182,-408.5 358.193,-408.5 "/>
<text text-anchor="start" x="233.182" y="-393.3" font-family="Times,serif" font-size="14.00">explanation :varchar</text>
<text text-anchor="start" x="233.182" y="-379.3" font-family="Times,serif" font-size="14.00">specialist_id :integer</text>
<text text-anchor="start" x="233.182" y="-365.3" font-family="Times,serif" font-size="14.00">title :varchar</text>
<text text-anchor="start" x="233.182" y="-351.3" font-family="Times,serif" font-size="14.00">author :varchar</text>
<text text-anchor="start" x="233.182" y="-337.3" font-family="Times,serif" font-size="14.00">content :varchar</text>
<text text-anchor="start" x="233.182" y="-323.3" font-family="Times,serif" font-size="14.00">source :varchar</text>
<text text-anchor="start" x="233.182" y="-309.3" font-family="Times,serif" font-size="14.00">created_at :datetime</text>
<text text-anchor="start" x="233.182" y="-295.3" font-family="Times,serif" font-size="14.00">updated_at :datetime</text>
<text text-anchor="start" x="233.182" y="-281.3" font-family="Times,serif" font-size="14.00">id :INTEGER</text>
</g>
<!-- Question -->
<g id="node6" class="node"><title>Question</title>
<path fill="none" stroke="black" d="M237.182,-137.5C237.182,-137.5 346.193,-137.5 346.193,-137.5 352.193,-137.5 358.193,-143.5 358.193,-149.5 358.193,-149.5 358.193,-225.5 358.193,-225.5 358.193,-231.5 352.193,-237.5 346.193,-237.5 346.193,-237.5 237.182,-237.5 237.182,-237.5 231.182,-237.5 225.182,-231.5 225.182,-225.5 225.182,-225.5 225.182,-149.5 225.182,-149.5 225.182,-143.5 231.182,-137.5 237.182,-137.5"/>
<text text-anchor="middle" x="291.688" y="-222.3" font-family="Times,serif" font-size="14.00">Question</text>
<polyline fill="none" stroke="black" points="225.182,-215.5 358.193,-215.5 "/>
<text text-anchor="start" x="233.182" y="-200.3" font-family="Times,serif" font-size="14.00">id :INTEGER</text>
<text text-anchor="start" x="233.182" y="-186.3" font-family="Times,serif" font-size="14.00">article_id :integer</text>
<text text-anchor="start" x="233.182" y="-172.3" font-family="Times,serif" font-size="14.00">content :varchar</text>
<text text-anchor="start" x="233.182" y="-158.3" font-family="Times,serif" font-size="14.00">created_at :datetime</text>
<text text-anchor="start" x="233.182" y="-144.3" font-family="Times,serif" font-size="14.00">updated_at :datetime</text>
</g>
<!-- Article&#45;&gt;Question -->
<g id="edge1" class="edge"><title>Article&#45;&gt;Question</title>
<path fill="none" stroke="#820be1" d="M291.688,-266.081C291.688,-259.973 291.688,-253.894 291.688,-247.982"/>
<ellipse fill="none" stroke="#820be1" cx="291.688" cy="-270.296" rx="4" ry="4"/>
<polygon fill="#820be1" stroke="#820be1" points="291.688,-247.55 296.188,-237.55 291.688,-242.55 291.688,-237.55 291.688,-237.55 291.688,-237.55 291.688,-242.55 287.188,-237.55 291.688,-247.55 291.688,-247.55"/>
</g>
<!-- Favorite -->
<g id="node5" class="node"><title>Favorite</title>
<path fill="none" stroke="black" d="M569.193,-295.5C569.193,-295.5 692.183,-295.5 692.183,-295.5 698.183,-295.5 704.183,-301.5 704.183,-307.5 704.183,-307.5 704.183,-397.5 704.183,-397.5 704.183,-403.5 698.183,-409.5 692.183,-409.5 692.183,-409.5 569.193,-409.5 569.193,-409.5 563.193,-409.5 557.193,-403.5 557.193,-397.5 557.193,-397.5 557.193,-307.5 557.193,-307.5 557.193,-301.5 563.193,-295.5 569.193,-295.5"/>
<text text-anchor="middle" x="630.688" y="-394.3" font-family="Times,serif" font-size="14.00">Favorite</text>
<polyline fill="none" stroke="black" points="557.193,-387.5 704.183,-387.5 "/>
<text text-anchor="start" x="565.193" y="-372.3" font-family="Times,serif" font-size="14.00">id :INTEGER</text>
<text text-anchor="start" x="565.193" y="-358.3" font-family="Times,serif" font-size="14.00">user_id :integer</text>
<text text-anchor="start" x="565.193" y="-344.3" font-family="Times,serif" font-size="14.00">favorited_type :varchar</text>
<text text-anchor="start" x="565.193" y="-330.3" font-family="Times,serif" font-size="14.00">favorited_id :integer</text>
<text text-anchor="start" x="565.193" y="-316.3" font-family="Times,serif" font-size="14.00">created_at :datetime</text>
<text text-anchor="start" x="565.193" y="-302.3" font-family="Times,serif" font-size="14.00">updated_at :datetime</text>
</g>
<!-- Question&#45;&gt;Answer -->
<g id="edge2" class="edge"><title>Question&#45;&gt;Answer</title>
<path fill="none" stroke="#360351" d="M291.688,-129.176C291.688,-123.13 291.688,-116.973 291.688,-110.904"/>
<ellipse fill="none" stroke="#360351" cx="291.688" cy="-133.38" rx="4" ry="4"/>
<polygon fill="#360351" stroke="#360351" points="291.688,-110.81 296.188,-100.81 291.688,-105.81 291.688,-100.81 291.688,-100.81 291.688,-100.81 291.688,-105.81 287.188,-100.81 291.688,-110.81 291.688,-110.81"/>
</g>
<!-- Specialist -->
<g id="node7" class="node"><title>Specialist</title>
<path fill="none" stroke="black" d="M237.182,-488.5C237.182,-488.5 346.193,-488.5 346.193,-488.5 352.193,-488.5 358.193,-494.5 358.193,-500.5 358.193,-500.5 358.193,-590.5 358.193,-590.5 358.193,-596.5 352.193,-602.5 346.193,-602.5 346.193,-602.5 237.182,-602.5 237.182,-602.5 231.182,-602.5 225.182,-596.5 225.182,-590.5 225.182,-590.5 225.182,-500.5 225.182,-500.5 225.182,-494.5 231.182,-488.5 237.182,-488.5"/>
<text text-anchor="middle" x="291.688" y="-587.3" font-family="Times,serif" font-size="14.00">Specialist</text>
<polyline fill="none" stroke="black" points="225.182,-580.5 358.193,-580.5 "/>
<text text-anchor="start" x="233.182" y="-565.3" font-family="Times,serif" font-size="14.00">id :INTEGER</text>
<text text-anchor="start" x="233.182" y="-551.3" font-family="Times,serif" font-size="14.00">name :varchar</text>
<text text-anchor="start" x="233.182" y="-537.3" font-family="Times,serif" font-size="14.00">profession :varchar</text>
<text text-anchor="start" x="233.182" y="-523.3" font-family="Times,serif" font-size="14.00">bio :varchar</text>
<text text-anchor="start" x="233.182" y="-509.3" font-family="Times,serif" font-size="14.00">created_at :datetime</text>
<text text-anchor="start" x="233.182" y="-495.3" font-family="Times,serif" font-size="14.00">updated_at :datetime</text>
</g>
<!-- Specialist&#45;&gt;Article -->
<g id="edge3" class="edge"><title>Specialist&#45;&gt;Article</title>
<path fill="none" stroke="#a7a095" d="M291.688,-480.305C291.688,-467.644 291.688,-454.158 291.688,-440.883"/>
<ellipse fill="none" stroke="#a7a095" cx="291.688" cy="-484.484" rx="4" ry="4"/>
<polygon fill="#a7a095" stroke="#a7a095" points="291.688,-440.789 296.188,-430.789 291.688,-435.789 291.688,-430.789 291.688,-430.789 291.688,-430.789 291.688,-435.789 287.188,-430.789 291.688,-440.789 291.688,-440.789"/>
</g>
<!-- User -->
<g id="node8" class="node"><title>User</title>
<path fill="none" stroke="black" d="M561.417,-467.5C561.417,-467.5 699.959,-467.5 699.959,-467.5 705.959,-467.5 711.959,-473.5 711.959,-479.5 711.959,-479.5 711.959,-611.5 711.959,-611.5 711.959,-617.5 705.959,-623.5 699.959,-623.5 699.959,-623.5 561.417,-623.5 561.417,-623.5 555.417,-623.5 549.417,-617.5 549.417,-611.5 549.417,-611.5 549.417,-479.5 549.417,-479.5 549.417,-473.5 555.417,-467.5 561.417,-467.5"/>
<text text-anchor="middle" x="630.688" y="-608.3" font-family="Times,serif" font-size="14.00">User</text>
<polyline fill="none" stroke="black" points="549.417,-601.5 711.959,-601.5 "/>
<text text-anchor="start" x="557.417" y="-586.3" font-family="Times,serif" font-size="14.00">remember_digest :varchar</text>
<text text-anchor="start" x="557.417" y="-572.3" font-family="Times,serif" font-size="14.00">username :varchar</text>
<text text-anchor="start" x="557.417" y="-558.3" font-family="Times,serif" font-size="14.00">firstname :varchar</text>
<text text-anchor="start" x="557.417" y="-544.3" font-family="Times,serif" font-size="14.00">lastname :varchar</text>
<text text-anchor="start" x="557.417" y="-530.3" font-family="Times,serif" font-size="14.00">email :varchar</text>
<text text-anchor="start" x="557.417" y="-516.3" font-family="Times,serif" font-size="14.00">password_digest :varchar</text>
<text text-anchor="start" x="557.417" y="-502.3" font-family="Times,serif" font-size="14.00">created_at :datetime</text>
<text text-anchor="start" x="557.417" y="-488.3" font-family="Times,serif" font-size="14.00">updated_at :datetime</text>
<text text-anchor="start" x="557.417" y="-474.3" font-family="Times,serif" font-size="14.00">id :INTEGER</text>
</g>
<!-- User&#45;&gt;Favorite -->
<g id="edge4" class="edge"><title>User&#45;&gt;Favorite</title>
<path fill="none" stroke="#d73e49" d="M630.688,-459.187C630.688,-445.975 630.688,-432.501 630.688,-419.79"/>
<ellipse fill="none" stroke="#d73e49" cx="630.688" cy="-463.364" rx="4" ry="4"/>
<polygon fill="#d73e49" stroke="#d73e49" points="630.688,-419.779 635.188,-409.779 630.688,-414.779 630.688,-409.779 630.688,-409.779 630.688,-409.779 630.688,-414.779 626.188,-409.779 630.688,-419.779 630.688,-419.779"/>
</g>
</g>
</svg>
