<?xml version="1.0" encoding="UTF-8" standalone="no"?>
<!DOCTYPE svg PUBLIC "-//W3C//DTD SVG 1.1//EN"
 "http://www.w3.org/Graphics/SVG/1.1/DTD/svg11.dtd">
<!-- Generated by graphviz version 2.38.0 (20140413.2041)
 -->
<!-- Title: models_diagram Pages: 1 -->
<svg width="871pt" height="716pt"
 viewBox="0.00 0.00 870.96 716.00" xmlns="http://www.w3.org/2000/svg" xmlns:xlink="http://www.w3.org/1999/xlink">
<g id="graph0" class="graph" transform="scale(1 1) rotate(0) translate(4 712)">
<title>models_diagram</title>
<polygon fill="none" stroke="none" points="-4,4 -4,-712 866.959,-712 866.959,4 -4,4"/>
<!-- _diagram_info -->
<g id="node1" class="node"><title>_diagram_info</title>
<text text-anchor="start" x="8" y="-644.6" font-family="Times,serif" font-size="13.00">Models diagram</text>
<text text-anchor="start" x="8" y="-631.6" font-family="Times,serif" font-size="13.00">Date: Jan 09 2017 &#45; 13:06</text>
<text text-anchor="start" x="8" y="-618.6" font-family="Times,serif" font-size="13.00">Migration version: 20161222135844</text>
<text text-anchor="start" x="8" y="-605.6" font-family="Times,serif" font-size="13.00">Generated by RailRoady 1.5.2</text>
<text text-anchor="start" x="8" y="-592.6" font-family="Times,serif" font-size="13.00">http://railroady.prestonlee.com</text>
</g>
<!-- Answer -->
<g id="node2" class="node"><title>Answer</title>
<path fill="none" stroke="black" d="M86.1824,-0.5C86.1824,-0.5 195.193,-0.5 195.193,-0.5 201.193,-0.5 207.193,-6.5 207.193,-12.5 207.193,-12.5 207.193,-102.5 207.193,-102.5 207.193,-108.5 201.193,-114.5 195.193,-114.5 195.193,-114.5 86.1824,-114.5 86.1824,-114.5 80.1824,-114.5 74.1824,-108.5 74.1824,-102.5 74.1824,-102.5 74.1824,-12.5 74.1824,-12.5 74.1824,-6.5 80.1824,-0.5 86.1824,-0.5"/>
<text text-anchor="middle" x="140.688" y="-99.3" font-family="Times,serif" font-size="14.00">Answer</text>
<polyline fill="none" stroke="black" points="74.1824,-92.5 207.193,-92.5 "/>
<text text-anchor="start" x="82.1824" y="-77.3" font-family="Times,serif" font-size="14.00">id :INTEGER</text>
<text text-anchor="start" x="82.1824" y="-63.3" font-family="Times,serif" font-size="14.00">question_id :integer</text>
<text text-anchor="start" x="82.1824" y="-49.3" font-family="Times,serif" font-size="14.00">content :varchar</text>
<text text-anchor="start" x="82.1824" y="-35.3" font-family="Times,serif" font-size="14.00">created_at :datetime</text>
<text text-anchor="start" x="82.1824" y="-21.3" font-family="Times,serif" font-size="14.00">updated_at :datetime</text>
<text text-anchor="start" x="82.1824" y="-7.3" font-family="Times,serif" font-size="14.00">correct :boolean</text>
</g>
<!-- ApplicationRecord -->
<g id="node3" class="node"><title>ApplicationRecord</title>
<ellipse fill="none" stroke="black" cx="453.688" cy="-622.5" rx="77.2916" ry="18"/>
<text text-anchor="middle" x="453.688" y="-618.3" font-family="Times,serif" font-size="14.00">ApplicationRecord</text>
</g>
<!-- Article -->
<g id="node4" class="node"><title>Article</title>
<path fill="none" stroke="black" d="M193.265,-288.5C193.265,-288.5 390.111,-288.5 390.111,-288.5 396.111,-288.5 402.111,-294.5 402.111,-300.5 402.111,-300.5 402.111,-488.5 402.111,-488.5 402.111,-494.5 396.111,-500.5 390.111,-500.5 390.111,-500.5 193.265,-500.5 193.265,-500.5 187.265,-500.5 181.265,-494.5 181.265,-488.5 181.265,-488.5 181.265,-300.5 181.265,-300.5 181.265,-294.5 187.265,-288.5 193.265,-288.5"/>
<text text-anchor="middle" x="291.688" y="-485.3" font-family="Times,serif" font-size="14.00">Article</text>
<polyline fill="none" stroke="black" points="181.265,-478.5 402.111,-478.5 "/>
<text text-anchor="start" x="189.265" y="-463.3" font-family="Times,serif" font-size="14.00">article_image_updated_at :datetime</text>
<text text-anchor="start" x="189.265" y="-449.3" font-family="Times,serif" font-size="14.00">specialist_id :integer</text>
<text text-anchor="start" x="189.265" y="-435.3" font-family="Times,serif" font-size="14.00">title :varchar</text>
<text text-anchor="start" x="189.265" y="-421.3" font-family="Times,serif" font-size="14.00">author :varchar</text>
<text text-anchor="start" x="189.265" y="-407.3" font-family="Times,serif" font-size="14.00">content :varchar</text>
<text text-anchor="start" x="189.265" y="-393.3" font-family="Times,serif" font-size="14.00">source :varchar</text>
<text text-anchor="start" x="189.265" y="-379.3" font-family="Times,serif" font-size="14.00">created_at :datetime</text>
<text text-anchor="start" x="189.265" y="-365.3" font-family="Times,serif" font-size="14.00">updated_at :datetime</text>
<text text-anchor="start" x="189.265" y="-351.3" font-family="Times,serif" font-size="14.00">explanation :varchar</text>
<text text-anchor="start" x="189.265" y="-337.3" font-family="Times,serif" font-size="14.00">article_image_file_name :varchar</text>
<text text-anchor="start" x="189.265" y="-323.3" font-family="Times,serif" font-size="14.00">article_image_content_type :varchar</text>
<text text-anchor="start" x="189.265" y="-309.3" font-family="Times,serif" font-size="14.00">article_image_file_size :integer</text>
<text text-anchor="start" x="189.265" y="-295.3" font-family="Times,serif" font-size="14.00">id :INTEGER</text>
</g>
<!-- Question -->
<g id="node7" class="node"><title>Question</title>
<path fill="none" stroke="black" d="M86.1824,-151.5C86.1824,-151.5 195.193,-151.5 195.193,-151.5 201.193,-151.5 207.193,-157.5 207.193,-163.5 207.193,-163.5 207.193,-239.5 207.193,-239.5 207.193,-245.5 201.193,-251.5 195.193,-251.5 195.193,-251.5 86.1824,-251.5 86.1824,-251.5 80.1824,-251.5 74.1824,-245.5 74.1824,-239.5 74.1824,-239.5 74.1824,-163.5 74.1824,-163.5 74.1824,-157.5 80.1824,-151.5 86.1824,-151.5"/>
<text text-anchor="middle" x="140.688" y="-236.3" font-family="Times,serif" font-size="14.00">Question</text>
<polyline fill="none" stroke="black" points="74.1824,-229.5 207.193,-229.5 "/>
<text text-anchor="start" x="82.1824" y="-214.3" font-family="Times,serif" font-size="14.00">id :INTEGER</text>
<text text-anchor="start" x="82.1824" y="-200.3" font-family="Times,serif" font-size="14.00">article_id :integer</text>
<text text-anchor="start" x="82.1824" y="-186.3" font-family="Times,serif" font-size="14.00">content :varchar</text>
<text text-anchor="start" x="82.1824" y="-172.3" font-family="Times,serif" font-size="14.00">created_at :datetime</text>
<text text-anchor="start" x="82.1824" y="-158.3" font-family="Times,serif" font-size="14.00">updated_at :datetime</text>
</g>
<!-- Article&#45;&gt;Question -->
<g id="edge1" class="edge"><title>Article&#45;&gt;Question</title>
<path fill="none" stroke="#27c407" d="M203.331,-281.737C197.439,-274.285 191.655,-266.969 186.128,-259.977"/>
<ellipse fill="none" stroke="#27c407" cx="205.977" cy="-285.085" rx="4.00002" ry="4.00002"/>
<polygon fill="#27c407" stroke="#27c407" points="185.968,-259.775 183.297,-249.14 182.867,-255.853 179.767,-251.931 179.767,-251.931 179.767,-251.931 182.867,-255.853 176.236,-254.722 185.968,-259.775 185.968,-259.775"/>
</g>
<!-- Tag -->
<g id="node9" class="node"><title>Tag</title>
<path fill="none" stroke="black" d="M237.182,-158.5C237.182,-158.5 346.193,-158.5 346.193,-158.5 352.193,-158.5 358.193,-164.5 358.193,-170.5 358.193,-170.5 358.193,-232.5 358.193,-232.5 358.193,-238.5 352.193,-244.5 346.193,-244.5 346.193,-244.5 237.182,-244.5 237.182,-244.5 231.182,-244.5 225.182,-238.5 225.182,-232.5 225.182,-232.5 225.182,-170.5 225.182,-170.5 225.182,-164.5 231.182,-158.5 237.182,-158.5"/>
<text text-anchor="middle" x="291.688" y="-229.3" font-family="Times,serif" font-size="14.00">Tag</text>
<polyline fill="none" stroke="black" points="225.182,-222.5 358.193,-222.5 "/>
<text text-anchor="start" x="233.182" y="-207.3" font-family="Times,serif" font-size="14.00">id :INTEGER</text>
<text text-anchor="start" x="233.182" y="-193.3" font-family="Times,serif" font-size="14.00">name :varchar</text>
<text text-anchor="start" x="233.182" y="-179.3" font-family="Times,serif" font-size="14.00">created_at :datetime</text>
<text text-anchor="start" x="233.182" y="-165.3" font-family="Times,serif" font-size="14.00">updated_at :datetime</text>
</g>
<!-- Article&#45;&gt;Tag -->
<g id="edge3" class="edge"><title>Article&#45;&gt;Tag</title>
<path fill="none" stroke="#5a36f2" d="M291.688,-278.187C291.688,-270.134 291.688,-262.277 291.688,-254.86"/>
<polygon fill="#5a36f2" stroke="#5a36f2" points="291.688,-278.223 287.188,-288.223 291.688,-283.223 291.688,-288.223 291.688,-288.223 291.688,-288.223 291.688,-283.223 296.188,-288.223 291.688,-278.223 291.688,-278.223"/>
<polygon fill="#5a36f2" stroke="#5a36f2" points="291.688,-254.692 296.188,-244.692 291.688,-249.692 291.688,-244.692 291.688,-244.692 291.688,-244.692 291.688,-249.692 287.188,-244.692 291.688,-254.692 291.688,-254.692"/>
</g>
<!-- Tagging -->
<g id="node10" class="node"><title>Tagging</title>
<path fill="none" stroke="black" d="M284.182,-7.5C284.182,-7.5 393.193,-7.5 393.193,-7.5 399.193,-7.5 405.193,-13.5 405.193,-19.5 405.193,-19.5 405.193,-95.5 405.193,-95.5 405.193,-101.5 399.193,-107.5 393.193,-107.5 393.193,-107.5 284.182,-107.5 284.182,-107.5 278.182,-107.5 272.182,-101.5 272.182,-95.5 272.182,-95.5 272.182,-19.5 272.182,-19.5 272.182,-13.5 278.182,-7.5 284.182,-7.5"/>
<text text-anchor="middle" x="338.688" y="-92.3" font-family="Times,serif" font-size="14.00">Tagging</text>
<polyline fill="none" stroke="black" points="272.182,-85.5 405.193,-85.5 "/>
<text text-anchor="start" x="280.182" y="-70.3" font-family="Times,serif" font-size="14.00">id :INTEGER</text>
<text text-anchor="start" x="280.182" y="-56.3" font-family="Times,serif" font-size="14.00">article_id :integer</text>
<text text-anchor="start" x="280.182" y="-42.3" font-family="Times,serif" font-size="14.00">tag_id :integer</text>
<text text-anchor="start" x="280.182" y="-28.3" font-family="Times,serif" font-size="14.00">created_at :datetime</text>
<text text-anchor="start" x="280.182" y="-14.3" font-family="Times,serif" font-size="14.00">updated_at :datetime</text>
</g>
<!-- Article&#45;&gt;Tagging -->
<g id="edge2" class="edge"><title>Article&#45;&gt;Tagging</title>
<path fill="none" stroke="#e8711f" d="M358.331,-280.781C362.065,-271.263 365.272,-261.602 367.688,-252 378.639,-208.467 374.48,-195.372 367.688,-151 366.011,-140.046 363.278,-128.608 360.144,-117.659"/>
<ellipse fill="none" stroke="#e8711f" cx="356.741" cy="-284.677" rx="4.00001" ry="4.00001"/>
<polygon fill="#e8711f" stroke="#e8711f" points="360.05,-117.346 361.48,-106.474 358.61,-112.558 357.171,-107.77 357.171,-107.77 357.171,-107.77 358.61,-112.558 352.861,-109.065 360.05,-117.346 360.05,-117.346"/>
</g>
<!-- Fact -->
<g id="node5" class="node"><title>Fact</title>
<path fill="none" stroke="black" d="M561.182,-572.5C561.182,-572.5 670.193,-572.5 670.193,-572.5 676.193,-572.5 682.193,-578.5 682.193,-584.5 682.193,-584.5 682.193,-660.5 682.193,-660.5 682.193,-666.5 676.193,-672.5 670.193,-672.5 670.193,-672.5 561.182,-672.5 561.182,-672.5 555.182,-672.5 549.182,-666.5 549.182,-660.5 549.182,-660.5 549.182,-584.5 549.182,-584.5 549.182,-578.5 555.182,-572.5 561.182,-572.5"/>
<text text-anchor="middle" x="615.688" y="-657.3" font-family="Times,serif" font-size="14.00">Fact</text>
<polyline fill="none" stroke="black" points="549.182,-650.5 682.193,-650.5 "/>
<text text-anchor="start" x="557.182" y="-635.3" font-family="Times,serif" font-size="14.00">id :INTEGER</text>
<text text-anchor="start" x="557.182" y="-621.3" font-family="Times,serif" font-size="14.00">title :varchar</text>
<text text-anchor="start" x="557.182" y="-607.3" font-family="Times,serif" font-size="14.00">content :varchar</text>
<text text-anchor="start" x="557.182" y="-593.3" font-family="Times,serif" font-size="14.00">created_at :datetime</text>
<text text-anchor="start" x="557.182" y="-579.3" font-family="Times,serif" font-size="14.00">updated_at :datetime</text>
</g>
<!-- Favorite -->
<g id="node6" class="node"><title>Favorite</title>
<path fill="none" stroke="black" d="M720.193,-337.5C720.193,-337.5 843.183,-337.5 843.183,-337.5 849.183,-337.5 855.183,-343.5 855.183,-349.5 855.183,-349.5 855.183,-439.5 855.183,-439.5 855.183,-445.5 849.183,-451.5 843.183,-451.5 843.183,-451.5 720.193,-451.5 720.193,-451.5 714.193,-451.5 708.193,-445.5 708.193,-439.5 708.193,-439.5 708.193,-349.5 708.193,-349.5 708.193,-343.5 714.193,-337.5 720.193,-337.5"/>
<text text-anchor="middle" x="781.688" y="-436.3" font-family="Times,serif" font-size="14.00">Favorite</text>
<polyline fill="none" stroke="black" points="708.193,-429.5 855.183,-429.5 "/>
<text text-anchor="start" x="716.193" y="-414.3" font-family="Times,serif" font-size="14.00">id :INTEGER</text>
<text text-anchor="start" x="716.193" y="-400.3" font-family="Times,serif" font-size="14.00">user_id :integer</text>
<text text-anchor="start" x="716.193" y="-386.3" font-family="Times,serif" font-size="14.00">favorited_type :varchar</text>
<text text-anchor="start" x="716.193" y="-372.3" font-family="Times,serif" font-size="14.00">favorited_id :integer</text>
<text text-anchor="start" x="716.193" y="-358.3" font-family="Times,serif" font-size="14.00">created_at :datetime</text>
<text text-anchor="start" x="716.193" y="-344.3" font-family="Times,serif" font-size="14.00">updated_at :datetime</text>
</g>
<!-- Question&#45;&gt;Answer -->
<g id="edge4" class="edge"><title>Question&#45;&gt;Answer</title>
<path fill="none" stroke="#583491" d="M140.688,-143.168C140.688,-137.214 140.688,-131.127 140.688,-125.084"/>
<ellipse fill="none" stroke="#583491" cx="140.688" cy="-147.234" rx="4" ry="4"/>
<polygon fill="#583491" stroke="#583491" points="140.688,-124.984 145.188,-114.984 140.688,-119.984 140.688,-114.984 140.688,-114.984 140.688,-114.984 140.688,-119.984 136.188,-114.984 140.688,-124.984 140.688,-124.984"/>
</g>
<!-- Specialist -->
<g id="node8" class="node"><title>Specialist</title>
<path fill="none" stroke="black" d="M237.182,-565.5C237.182,-565.5 346.193,-565.5 346.193,-565.5 352.193,-565.5 358.193,-571.5 358.193,-577.5 358.193,-577.5 358.193,-667.5 358.193,-667.5 358.193,-673.5 352.193,-679.5 346.193,-679.5 346.193,-679.5 237.182,-679.5 237.182,-679.5 231.182,-679.5 225.182,-673.5 225.182,-667.5 225.182,-667.5 225.182,-577.5 225.182,-577.5 225.182,-571.5 231.182,-565.5 237.182,-565.5"/>
<text text-anchor="middle" x="291.688" y="-664.3" font-family="Times,serif" font-size="14.00">Specialist</text>
<polyline fill="none" stroke="black" points="225.182,-657.5 358.193,-657.5 "/>
<text text-anchor="start" x="233.182" y="-642.3" font-family="Times,serif" font-size="14.00">id :INTEGER</text>
<text text-anchor="start" x="233.182" y="-628.3" font-family="Times,serif" font-size="14.00">name :varchar</text>
<text text-anchor="start" x="233.182" y="-614.3" font-family="Times,serif" font-size="14.00">profession :varchar</text>
<text text-anchor="start" x="233.182" y="-600.3" font-family="Times,serif" font-size="14.00">bio :varchar</text>
<text text-anchor="start" x="233.182" y="-586.3" font-family="Times,serif" font-size="14.00">created_at :datetime</text>
<text text-anchor="start" x="233.182" y="-572.3" font-family="Times,serif" font-size="14.00">updated_at :datetime</text>
</g>
<!-- Specialist&#45;&gt;Article -->
<g id="edge5" class="edge"><title>Specialist&#45;&gt;Article</title>
<path fill="none" stroke="#3ead82" d="M291.688,-556.898C291.688,-542.511 291.688,-526.833 291.688,-511.088"/>
<ellipse fill="none" stroke="#3ead82" cx="291.688" cy="-561.344" rx="4" ry="4"/>
<polygon fill="#3ead82" stroke="#3ead82" points="291.688,-510.745 296.188,-500.745 291.688,-505.745 291.688,-500.745 291.688,-500.745 291.688,-500.745 291.688,-505.745 287.188,-500.745 291.688,-510.745 291.688,-510.745"/>
</g>
<!-- Tag&#45;&gt;Tagging -->
<g id="edge6" class="edge"><title>Tag&#45;&gt;Tagging</title>
<path fill="none" stroke="#0c2f5e" d="M308.187,-150.652C311.766,-139.838 315.583,-128.304 319.263,-117.186"/>
<ellipse fill="none" stroke="#0c2f5e" cx="306.919" cy="-154.482" rx="4.00001" ry="4.00001"/>
<polygon fill="#0c2f5e" stroke="#0c2f5e" points="319.31,-117.044 326.725,-108.965 320.881,-112.298 322.453,-107.551 322.453,-107.551 322.453,-107.551 320.881,-112.298 318.181,-106.137 319.31,-117.044 319.31,-117.044"/>
</g>
<!-- User -->
<g id="node11" class="node"><title>User</title>
<path fill="none" stroke="black" d="M712.417,-537.5C712.417,-537.5 850.959,-537.5 850.959,-537.5 856.959,-537.5 862.959,-543.5 862.959,-549.5 862.959,-549.5 862.959,-695.5 862.959,-695.5 862.959,-701.5 856.959,-707.5 850.959,-707.5 850.959,-707.5 712.417,-707.5 712.417,-707.5 706.417,-707.5 700.417,-701.5 700.417,-695.5 700.417,-695.5 700.417,-549.5 700.417,-549.5 700.417,-543.5 706.417,-537.5 712.417,-537.5"/>
<text text-anchor="middle" x="781.688" y="-692.3" font-family="Times,serif" font-size="14.00">User</text>
<polyline fill="none" stroke="black" points="700.417,-685.5 862.959,-685.5 "/>
<text text-anchor="start" x="708.417" y="-670.3" font-family="Times,serif" font-size="14.00">admin :boolean</text>
<text text-anchor="start" x="708.417" y="-656.3" font-family="Times,serif" font-size="14.00">firstname :varchar</text>
<text text-anchor="start" x="708.417" y="-642.3" font-family="Times,serif" font-size="14.00">email :varchar</text>
<text text-anchor="start" x="708.417" y="-628.3" font-family="Times,serif" font-size="14.00">password_digest :varchar</text>
<text text-anchor="start" x="708.417" y="-614.3" font-family="Times,serif" font-size="14.00">created_at :datetime</text>
<text text-anchor="start" x="708.417" y="-600.3" font-family="Times,serif" font-size="14.00">updated_at :datetime</text>
<text text-anchor="start" x="708.417" y="-586.3" font-family="Times,serif" font-size="14.00">remember_digest :varchar</text>
<text text-anchor="start" x="708.417" y="-572.3" font-family="Times,serif" font-size="14.00">reset_digest :varchar</text>
<text text-anchor="start" x="708.417" y="-558.3" font-family="Times,serif" font-size="14.00">reset_sent_at :datetime</text>
<text text-anchor="start" x="708.417" y="-544.3" font-family="Times,serif" font-size="14.00">id :INTEGER</text>
</g>
<!-- User&#45;&gt;Favorite -->
<g id="edge7" class="edge"><title>User&#45;&gt;Favorite</title>
<path fill="none" stroke="#fedfce" d="M781.688,-529.235C781.688,-506.62 781.688,-482.856 781.688,-461.739"/>
<ellipse fill="none" stroke="#fedfce" cx="781.688" cy="-533.346" rx="4" ry="4"/>
<polygon fill="#fedfce" stroke="#fedfce" points="781.688,-461.601 786.188,-451.601 781.688,-456.601 781.688,-451.601 781.688,-451.601 781.688,-451.601 781.688,-456.601 777.188,-451.601 781.688,-461.601 781.688,-461.601"/>
</g>
</g>
</svg>
