<?xml version="1.0" encoding="UTF-8" standalone="no"?>
<!DOCTYPE svg PUBLIC "-//W3C//DTD SVG 1.1//EN"
 "http://www.w3.org/Graphics/SVG/1.1/DTD/svg11.dtd">
<!-- Generated by graphviz version 2.38.0 (20140413.2041)
 -->
<!-- Title: models_diagram Pages: 1 -->
<svg width="651pt" height="297pt"
 viewBox="0.00 0.00 651.27 297.00" xmlns="http://www.w3.org/2000/svg" xmlns:xlink="http://www.w3.org/1999/xlink">
<g id="graph0" class="graph" transform="scale(1 1) rotate(0) translate(4 293)">
<title>models_diagram</title>
<polygon fill="none" stroke="none" points="-4,4 -4,-293 647.266,-293 647.266,4 -4,4"/>
<!-- _diagram_info -->
<g id="node1" class="node"><title>_diagram_info</title>
<text text-anchor="start" x="8" y="-274.6" font-family="Times,serif" font-size="13.00">Models diagram</text>
<text text-anchor="start" x="8" y="-261.6" font-family="Times,serif" font-size="13.00">Date: Jan 09 2017 &#45; 13:06</text>
<text text-anchor="start" x="8" y="-248.6" font-family="Times,serif" font-size="13.00">Migration version: 20161222135844</text>
<text text-anchor="start" x="8" y="-235.6" font-family="Times,serif" font-size="13.00">Generated by RailRoady 1.5.2</text>
<text text-anchor="start" x="8" y="-222.6" font-family="Times,serif" font-size="13.00">http://railroady.prestonlee.com</text>
</g>
<!-- Answer -->
<g id="node2" class="node"><title>Answer</title>
<ellipse fill="none" stroke="black" cx="182.688" cy="-18" rx="37.7266" ry="18"/>
<text text-anchor="middle" x="182.688" y="-13.8" font-family="Times,serif" font-size="14.00">Answer</text>
</g>
<!-- ApplicationRecord -->
<g id="node3" class="node"><title>ApplicationRecord</title>
<ellipse fill="none" stroke="black" cx="409.688" cy="-252.5" rx="77.2916" ry="18"/>
<text text-anchor="middle" x="409.688" y="-248.3" font-family="Times,serif" font-size="14.00">ApplicationRecord</text>
</g>
<!-- Article -->
<g id="node4" class="node"><title>Article</title>
<ellipse fill="none" stroke="black" cx="269.688" cy="-162" rx="34.8198" ry="18"/>
<text text-anchor="middle" x="269.688" y="-157.8" font-family="Times,serif" font-size="14.00">Article</text>
</g>
<!-- Question -->
<g id="node7" class="node"><title>Question</title>
<ellipse fill="none" stroke="black" cx="182.688" cy="-90" rx="42.0784" ry="18"/>
<text text-anchor="middle" x="182.688" y="-85.8" font-family="Times,serif" font-size="14.00">Question</text>
</g>
<!-- Article&#45;&gt;Question -->
<g id="edge1" class="edge"><title>Article&#45;&gt;Question</title>
<path fill="none" stroke="#4d12cb" d="M245.168,-141.272C234.054,-132.329 220.883,-121.732 209.506,-112.578"/>
<ellipse fill="none" stroke="#4d12cb" cx="248.545" cy="-143.988" rx="4.00002" ry="4.00002"/>
<polygon fill="#4d12cb" stroke="#4d12cb" points="209.385,-112.481 204.415,-102.706 205.49,-109.346 201.594,-106.212 201.594,-106.212 201.594,-106.212 205.49,-109.346 198.773,-109.718 209.385,-112.481 209.385,-112.481"/>
</g>
<!-- Tag -->
<g id="node9" class="node"><title>Tag</title>
<ellipse fill="none" stroke="black" cx="269.688" cy="-90" rx="27" ry="18"/>
<text text-anchor="middle" x="269.688" y="-85.8" font-family="Times,serif" font-size="14.00">Tag</text>
</g>
<!-- Article&#45;&gt;Tag -->
<g id="edge3" class="edge"><title>Article&#45;&gt;Tag</title>
<path fill="none" stroke="#1d6b7d" d="M269.688,-133.665C269.688,-128.687 269.688,-123.491 269.688,-118.507"/>
<polygon fill="#1d6b7d" stroke="#1d6b7d" points="269.688,-133.697 265.188,-143.697 269.688,-138.697 269.688,-143.697 269.688,-143.697 269.688,-143.697 269.688,-138.697 274.188,-143.697 269.688,-133.697 269.688,-133.697"/>
<polygon fill="#1d6b7d" stroke="#1d6b7d" points="269.688,-118.104 274.188,-108.104 269.688,-113.104 269.688,-108.104 269.688,-108.104 269.688,-108.104 269.688,-113.104 265.188,-108.104 269.688,-118.104 269.688,-118.104"/>
</g>
<!-- Tagging -->
<g id="node10" class="node"><title>Tagging</title>
<ellipse fill="none" stroke="black" cx="300.688" cy="-18" rx="38.9207" ry="18"/>
<text text-anchor="middle" x="300.688" y="-13.8" font-family="Times,serif" font-size="14.00">Tagging</text>
</g>
<!-- Article&#45;&gt;Tagging -->
<g id="edge2" class="edge"><title>Article&#45;&gt;Tagging</title>
<path fill="none" stroke="#83bcf9" d="M289.172,-138.724C295.76,-129.793 302.301,-119.014 305.688,-108 311.857,-87.9387 310.086,-64.1547 307.057,-46.2228"/>
<ellipse fill="none" stroke="#83bcf9" cx="286.628" cy="-142.005" rx="4.00002" ry="4.00002"/>
<polygon fill="#83bcf9" stroke="#83bcf9" points="307.01,-45.9773 309.543,-35.3079 306.067,-41.0671 305.123,-36.1568 305.123,-36.1568 305.123,-36.1568 306.067,-41.0671 300.704,-37.0057 307.01,-45.9773 307.01,-45.9773"/>
</g>
<!-- Fact -->
<g id="node5" class="node"><title>Fact</title>
<ellipse fill="none" stroke="black" cx="531.688" cy="-252.5" rx="27" ry="18"/>
<text text-anchor="middle" x="531.688" y="-248.3" font-family="Times,serif" font-size="14.00">Fact</text>
</g>
<!-- Favorite -->
<g id="node6" class="node"><title>Favorite</title>
<ellipse fill="none" stroke="black" cx="603.688" cy="-162" rx="39.6558" ry="18"/>
<text text-anchor="middle" x="603.688" y="-157.8" font-family="Times,serif" font-size="14.00">Favorite</text>
</g>
<!-- Question&#45;&gt;Answer -->
<g id="edge4" class="edge"><title>Question&#45;&gt;Answer</title>
<path fill="none" stroke="#30fda6" d="M182.688,-63.6398C182.688,-58.0629 182.688,-52.1319 182.688,-46.4761"/>
<ellipse fill="none" stroke="#30fda6" cx="182.688" cy="-67.6966" rx="4" ry="4"/>
<polygon fill="#30fda6" stroke="#30fda6" points="182.688,-46.1043 187.188,-36.1043 182.688,-41.1043 182.688,-36.1043 182.688,-36.1043 182.688,-36.1043 182.688,-41.1043 178.188,-36.1044 182.688,-46.1043 182.688,-46.1043"/>
</g>
<!-- Specialist -->
<g id="node8" class="node"><title>Specialist</title>
<ellipse fill="none" stroke="black" cx="269.688" cy="-252.5" rx="44.4837" ry="18"/>
<text text-anchor="middle" x="269.688" y="-248.3" font-family="Times,serif" font-size="14.00">Specialist</text>
</g>
<!-- Specialist&#45;&gt;Article -->
<g id="edge5" class="edge"><title>Specialist&#45;&gt;Article</title>
<path fill="none" stroke="#1bd912" d="M269.688,-226.189C269.688,-214.971 269.688,-201.752 269.688,-190.311"/>
<ellipse fill="none" stroke="#1bd912" cx="269.688" cy="-230.436" rx="4" ry="4"/>
<polygon fill="#1bd912" stroke="#1bd912" points="269.688,-190.011 274.188,-180.011 269.688,-185.011 269.688,-180.011 269.688,-180.011 269.688,-180.011 269.688,-185.011 265.188,-180.011 269.688,-190.011 269.688,-190.011"/>
</g>
<!-- Tag&#45;&gt;Tagging -->
<g id="edge6" class="edge"><title>Tag&#45;&gt;Tagging</title>
<path fill="none" stroke="#6055b3" d="M280.289,-65.0625C283.136,-58.6325 286.23,-51.6473 289.127,-45.106"/>
<ellipse fill="none" stroke="#6055b3" cx="278.654" cy="-68.7536" rx="4.00002" ry="4.00002"/>
<polygon fill="#6055b3" stroke="#6055b3" points="289.129,-45.0997 297.293,-37.7784 291.154,-40.528 293.179,-35.9562 293.179,-35.9562 293.179,-35.9562 291.154,-40.528 289.064,-34.134 289.129,-45.0997 289.129,-45.0997"/>
</g>
<!-- User -->
<g id="node11" class="node"><title>User</title>
<ellipse fill="none" stroke="black" cx="603.688" cy="-252.5" rx="27" ry="18"/>
<text text-anchor="middle" x="603.688" y="-248.3" font-family="Times,serif" font-size="14.00">User</text>
</g>
<!-- User&#45;&gt;Favorite -->
<g id="edge7" class="edge"><title>User&#45;&gt;Favorite</title>
<path fill="none" stroke="#15793e" d="M603.688,-226.189C603.688,-214.971 603.688,-201.752 603.688,-190.311"/>
<ellipse fill="none" stroke="#15793e" cx="603.688" cy="-230.436" rx="4" ry="4"/>
<polygon fill="#15793e" stroke="#15793e" points="603.688,-190.011 608.188,-180.011 603.688,-185.011 603.688,-180.011 603.688,-180.011 603.688,-180.011 603.688,-185.011 599.188,-180.011 603.688,-190.011 603.688,-190.011"/>
</g>
</g>
</svg>
